  0
SECTION
  2
HEADER
  9
$ACADVER
  1
AC1015
  9
$ACADMAINTVER
 70
     6
  9
$DWGCODEPAGE
  3
ANSI_936
  9
$INSBASE
 10
0.0
 20
0.0
 30
0.0
  9
$EXTMIN
 10
-99.4538481727
 20
-38.2492301117
 30
0.0
  9
$EXTMAX
 10
100.5920533358
 20
90.5121090886
 30
0.0
  9
$LIMMIN
 10
0.0
 20
0.0
  9
$LIMMAX
 10
420.0
 20
297.0
  9
$ORTHOMODE
 70
     0
  9
$REGENMODE
 70
     1
  9
$FILLMODE
 70
     1
  9
$QTEXTMODE
 70
     0
  9
$MIRRTEXT
 70
     1
  9
$LTSCALE
 40
1.0
  9
$ATTMODE
 70
     1
  9
$TEXTSIZE
 40
3.5
  9
$TRACEWID
 40
1.0
  9
$TEXTSTYLE
  7
Standard
  9
$CLAYER
  8
0
  9
$CELTYPE
  6
ByLayer
  9
$CECOLOR
 62
   256
  9
$CELTSCALE
 40
1.0
  9
$DISPSILH
 70
     0
  9
$DIMSCALE
 40
1.0
  9
$DIMASZ
 40
3.556
  9
$DIMEXO
 40
0.0
  9
$DIMDLI
 40
3.75
  9
$DIMRND
 40
0.0
  9
$DIMDLE
 40
0.0
  9
$DIMEXE
 40
1.0
  9
$DIMTP
 40
0.0
  9
$DIMTM
 40
0.0
  9
$DIMTXT
 40
3.5
  9
$DIMCEN
 40
2.5
  9
$DIMTSZ
 40
0.0
  9
$DIMTOL
 70
     0
  9
$DIMLIM
 70
     0
  9
$DIMTIH
 70
     1
  9
$DIMTOH
 70
     1
  9
$DIMSE1
 70
     0
  9
$DIMSE2
 70
     0
  9
$DIMTAD
 70
     1
  9
$DIMZIN
 70
     1
  9
$DIMBLK
  1

  9
$DIMASO
 70
     1
  9
$DIMSHO
 70
     1
  9
$DIMPOST
  1

  9
$DIMAPOST
  1

  9
$DIMALT
 70
     0
  9
$DIMALTD
 70
     3
  9
$DIMALTF
 40
0.0393700787
  9
$DIMLFAC
 40
1.0
  9
$DIMTOFL
 70
     1
  9
$DIMTVP
 40
0.0
  9
$DIMTIX
 70
     0
  9
$DIMSOXD
 70
     0
  9
$DIMSAH
 70
     0
  9
$DIMBLK1
  1

  9
$DIMBLK2
  1

  9
$DIMSTYLE
  2
ISO-25
  9
$DIMCLRD
 70
     0
  9
$DIMCLRE
 70
     0
  9
$DIMCLRT
 70
     0
  9
$DIMTFAC
 40
1.0
  9
$DIMGAP
 40
1.524
  9
$DIMJUST
 70
     0
  9
$DIMSD1
 70
     0
  9
$DIMSD2
 70
     0
  9
$DIMTOLJ
 70
     0
  9
$DIMTZIN
 70
     1
  9
$DIMALTZ
 70
     0
  9
$DIMALTTZ
 70
     0
  9
$DIMUPT
 70
     0
  9
$DIMDEC
 70
     2
  9
$DIMTDEC
 70
     2
  9
$DIMALTU
 70
     2
  9
$DIMALTTD
 70
     3
  9
$DIMTXSTY
  7
Standard
  9
$DIMAUNIT
 70
     0
  9
$DIMADEC
 70
     2
  9
$DIMALTRND
 40
0.0
  9
$DIMAZIN
 70
     0
  9
$DIMDSEP
 70
    44
  9
$DIMATFIT
 70
     3
  9
$DIMFRAC
 70
     0
  9
$DIMLDRBLK
  1

  9
$DIMLUNIT
 70
     2
  9
$DIMLWD
 70
    -2
  9
$DIMLWE
 70
    -2
  9
$DIMTMOVE
 70
     0
  9
$LUNITS
 70
     2
  9
$LUPREC
 70
     2
  9
$SKETCHINC
 40
1.0
  9
$FILLETRAD
 40
0.0
  9
$AUNITS
 70
     0
  9
$AUPREC
 70
     2
  9
$MENU
  1
.
  9
$ELEVATION
 40
0.0
  9
$PELEVATION
 40
0.0
  9
$THICKNESS
 40
0.0
  9
$LIMCHECK
 70
     0
  9
$CHAMFERA
 40
0.0
  9
$CHAMFERB
 40
0.0
  9
$CHAMFERC
 40
0.0
  9
$CHAMFERD
 40
0.0
  9
$SKPOLY
 70
     0
  9
$TDCREATE
 40
2460806.502331841
  9
$TDUCREATE
 40
2460806.168998507
  9
$TDUPDATE
 40
2460806.502360313
  9
$TDUUPDATE
 40
2460806.169026979
  9
$TDINDWG
 40
0.0000000116
  9
$TDUSRTIMER
 40
0.0000000116
  9
$USRTIMER
 70
     1
  9
$ANGBASE
 50
0.0
  9
$ANGDIR
 70
     0
  9
$PDMODE
 70
     0
  9
$PDSIZE
 40
-1.0
  9
$PLINEWID
 40
0.0
  9
$SPLFRAME
 70
     0
  9
$SPLINETYPE
 70
     6
  9
$SPLINESEGS
 70
     8
  9
$HANDSEED
  5
2F5
  9
$SURFTAB1
 70
     6
  9
$SURFTAB2
 70
     6
  9
$SURFTYPE
 70
     6
  9
$SURFU
 70
     6
  9
$SURFV
 70
     6
  9
$UCSBASE
  2

  9
$UCSNAME
  2

  9
$UCSORG
 10
0.0
 20
0.0
 30
0.0
  9
$UCSXDIR
 10
1.0
 20
0.0
 30
0.0
  9
$UCSYDIR
 10
0.0
 20
1.0
 30
0.0
  9
$UCSORTHOREF
  2

  9
$UCSORTHOVIEW
 70
     0
  9
$UCSORGTOP
 10
0.0
 20
0.0
 30
0.0
  9
$UCSORGBOTTOM
 10
0.0
 20
0.0
 30
0.0
  9
$UCSORGLEFT
 10
0.0
 20
0.0
 30
0.0
  9
$UCSORGRIGHT
 10
0.0
 20
0.0
 30
0.0
  9
$UCSORGFRONT
 10
0.0
 20
0.0
 30
0.0
  9
$UCSORGBACK
 10
0.0
 20
0.0
 30
0.0
  9
$PUCSBASE
  2

  9
$PUCSNAME
  2

  9
$PUCSORG
 10
0.0
 20
0.0
 30
0.0
  9
$PUCSXDIR
 10
1.0
 20
0.0
 30
0.0
  9
$PUCSYDIR
 10
0.0
 20
1.0
 30
0.0
  9
$PUCSORTHOREF
  2

  9
$PUCSORTHOVIEW
 70
     0
  9
$PUCSORGTOP
 10
0.0
 20
0.0
 30
0.0
  9
$PUCSORGBOTTOM
 10
0.0
 20
0.0
 30
0.0
  9
$PUCSORGLEFT
 10
0.0
 20
0.0
 30
0.0
  9
$PUCSORGRIGHT
 10
0.0
 20
0.0
 30
0.0
  9
$PUCSORGFRONT
 10
0.0
 20
0.0
 30
0.0
  9
$PUCSORGBACK
 10
0.0
 20
0.0
 30
0.0
  9
$USERI1
 70
     0
  9
$USERI2
 70
     0
  9
$USERI3
 70
     0
  9
$USERI4
 70
     0
  9
$USERI5
 70
     0
  9
$USERR1
 40
0.0
  9
$USERR2
 40
0.0
  9
$USERR3
 40
0.0
  9
$USERR4
 40
0.0
  9
$USERR5
 40
0.0
  9
$WORLDVIEW
 70
     1
  9
$SHADEDGE
 70
     3
  9
$SHADEDIF
 70
    70
  9
$TILEMODE
 70
     1
  9
$MAXACTVP
 70
    64
  9
$PINSBASE
 10
0.0
 20
0.0
 30
0.0
  9
$PLIMCHECK
 70
     0
  9
$PEXTMIN
 10
1.0000000000E+20
 20
1.0000000000E+20
 30
1.0000000000E+20
  9
$PEXTMAX
 10
-1.0000000000E+20
 20
-1.0000000000E+20
 30
-1.0000000000E+20
  9
$PLIMMIN
 10
0.0
 20
0.0
  9
$PLIMMAX
 10
420.0
 20
297.0
  9
$UNITMODE
 70
     0
  9
$VISRETAIN
 70
     1
  9
$PLINEGEN
 70
     0
  9
$PSLTSCALE
 70
     1
  9
$TREEDEPTH
 70
  3020
  9
$CMLSTYLE
  2
Standard
  9
$CMLJUST
 70
     0
  9
$CMLSCALE
 40
20.0
  9
$PROXYGRAPHICS
 70
     1
  9
$MEASUREMENT
 70
     1
  9
$CELWEIGHT
370
    -1
  9
$ENDCAPS
280
     0
  9
$JOINSTYLE
280
     0
  9
$LWDISPLAY
290
     1
  9
$INSUNITS
 70
     4
  9
$HYPERLINKBASE
  1

  9
$STYLESHEET
  1

  9
$XEDIT
290
     1
  9
$CEPSNTYPE
380
     0
  9
$PSTYLEMODE
290
     1
  9
$FINGERPRINTGUID
  2
{0c7c38b6-6ae5-419f-affc-6fabe6952fc9}
  9
$VERSIONGUID
  2
{FAEB1C32-E019-11D5-929B-00C0DF256EC4}
  9
$EXTNAMES
290
     1
  9
$PSVPSCALE
 40
0.0
  9
$OLESTARTUP
290
     0
  0
ENDSEC
  0
SECTION
  2
CLASSES
  0
CLASS
  1
ACDBDICTIONARYWDFLT
  2
AcDbDictionaryWithDefault
  3
ObjectDBX Classes
 90
        0
280
     0
281
     0
  0
CLASS
  1
VISUALSTYLE
  2
AcDbVisualStyle
  3
ObjectDBX Classes
 90
     4095
280
     0
281
     0
  0
CLASS
  1
MATERIAL
  2
AcDbMaterial
  3
ObjectDBX Classes
 90
     1153
280
     0
281
     0
  0
CLASS
  1
SCALE
  2
AcDbScale
  3
ObjectDBX Classes
 90
     1153
280
     0
281
     0
  0
CLASS
  1
TABLESTYLE
  2
AcDbTableStyle
  3
ObjectDBX Classes
 90
     4095
280
     0
281
     0
  0
CLASS
  1
MLEADERSTYLE
  2
AcDbMLeaderStyle
  3
ACDB_MLEADERSTYLE_CLASS
 90
     4095
280
     0
281
     0
  0
CLASS
  1
SUN
  2
AcDbSun
  3
SCENEOE
 90
     1153
280
     0
281
     0
  0
CLASS
  1
ACDBPLACEHOLDER
  2
AcDbPlaceHolder
  3
ObjectDBX Classes
 90
        0
280
     0
281
     0
  0
CLASS
  1
LAYOUT
  2
AcDbLayout
  3
ObjectDBX Classes
 90
        0
280
     0
281
     0
  0
ENDSEC
  0
SECTION
  2
TABLES
  0
TABLE
  2
VPORT
  5
8
330
0
100
AcDbSymbolTable
 70
     1
  0
VPORT
  5
29
330
8
100
AcDbSymbolTableRecord
100
AcDbViewportTableRecord
  2
*Active
 70
     0
 10
0.0
 20
0.0
 11
1.0
 21
1.0
 12
0.5691025816
 22
26.1314394884
 13
0.0
 23
0.0
 14
10.0
 24
10.0
 15
10.0
 25
10.0
 16
0.0
 26
0.0
 36
1.0
 17
0.0
 27
0.0
 37
0.0
 40
131.3365659842
 41
1.5536177454
 42
50.0
 43
0.0
 44
0.0
 50
0.0
 51
0.0
 71
     0
 72
   100
 73
     1
 74
     3
 75
     0
 76
     0
 77
     0
 78
     0
281
     0
 65
     1
110
0.0
120
0.0
130
0.0
111
1.0
121
0.0
131
0.0
112
0.0
122
1.0
132
0.0
 79
     0
146
0.0
  0
ENDTAB
  0
TABLE
  2
LTYPE
  5
5
330
0
100
AcDbSymbolTable
 70
     6
  0
LTYPE
  5
14
330
5
100
AcDbSymbolTableRecord
100
AcDbLinetypeTableRecord
  2
ByBlock
 70
     0
  3

 72
    65
 73
     0
 40
0.0
  0
LTYPE
  5
15
330
5
100
AcDbSymbolTableRecord
100
AcDbLinetypeTableRecord
  2
ByLayer
 70
     0
  3

 72
    65
 73
     0
 40
0.0
  0
LTYPE
  5
16
330
5
100
AcDbSymbolTableRecord
100
AcDbLinetypeTableRecord
  2
Continuous
 70
     0
  3
Solid line
 72
    65
 73
     0
 40
0.0
  0
LTYPE
  5
5E
330
5
100
AcDbSymbolTableRecord
100
AcDbLinetypeTableRecord
  2
HIDDEN
 70
     0
  3
Hidden __ __ __ __ __ __ __ __ __ __ __ __ __ __
 72
    65
 73
     2
 40
1.905
 49
1.27
 74
     0
 49
-0.635
 74
     0
  0
LTYPE
  5
5F
330
5
100
AcDbSymbolTableRecord
100
AcDbLinetypeTableRecord
  2
PHANTOM
 70
     0
  3
Phantom ______  __  __  ______  __  __  ______
 72
    65
 73
     6
 40
12.7
 49
6.35
 74
     0
 49
-1.27
 74
     0
 49
1.27
 74
     0
 49
-1.27
 74
     0
 49
1.27
 74
     0
 49
-1.27
 74
     0
  0
LTYPE
  5
60
330
5
100
AcDbSymbolTableRecord
100
AcDbLinetypeTableRecord
  2
CENTER
 70
     0
  3
Center ____ _ ____ _ ____ _ ____ _ ____ _ ____
 72
    65
 73
     4
 40
10.16
 49
6.35
 74
     0
 49
-1.27
 74
     0
 49
1.27
 74
     0
 49
-1.27
 74
     0
  0
LTYPE
  5
61
330
5
100
AcDbSymbolTableRecord
100
AcDbLinetypeTableRecord
  2
CENTERX2
 70
     0
  3
Center (2x) ________  __  ________  __  _____
 72
    65
 73
     4
 40
20.32
 49
12.7
 74
     0
 49
-2.54
 74
     0
 49
2.54
 74
     0
 49
-2.54
 74
     0
  0
LTYPE
  5
62
330
5
100
AcDbSymbolTableRecord
100
AcDbLinetypeTableRecord
  2
DOT2
 70
     0
  3
Dot (.5x) ........................................
 72
    65
 73
     2
 40
0.635
 49
0.0
 74
     0
 49
-0.635
 74
     0
  0
ENDTAB
  0
TABLE
  2
LAYER
  5
2
330
0
100
AcDbSymbolTable
 70
     1
  0
LAYER
  5
10
330
2
100
AcDbSymbolTableRecord
100
AcDbLayerTableRecord
  2
0
 70
     0
 62
     7
  6
Continuous
370
    -3
390
F
  0
ENDTAB
  0
TABLE
  2
STYLE
  5
3
330
0
100
AcDbSymbolTable
 70
     1
  0
STYLE
  5
11
330
3
100
AcDbSymbolTableRecord
100
AcDbTextStyleTableRecord
  2
Standard
 70
     0
 40
0.0
 41
1.0
 50
0.0
 71
     0
 42
3.5
  3
txt
  4

  0
ENDTAB
  0
TABLE
  2
VIEW
  5
6
330
0
100
AcDbSymbolTable
 70
     0
  0
ENDTAB
  0
TABLE
  2
UCS
  5
7
330
0
100
AcDbSymbolTable
 70
     0
  0
ENDTAB
  0
TABLE
  2
APPID
  5
9
330
0
100
AcDbSymbolTable
 70
     1
  0
APPID
  5
12
330
9
100
AcDbSymbolTableRecord
100
AcDbRegAppTableRecord
  2
ACAD
 70
     0
  0
ENDTAB
  0
TABLE
  2
DIMSTYLE
  5
A
330
0
100
AcDbSymbolTable
 70
     1
100
AcDbDimStyleTable
  0
DIMSTYLE
105
27
330
A
100
AcDbSymbolTableRecord
100
AcDbDimStyleTableRecord
  2
ISO-25
 70
     0
 41
2.5
 42
0.625
 43
3.75
 44
1.25
 73
     0
 74
     0
 77
     1
 78
     8
140
2.5
141
2.5
143
0.0393700787
147
0.625
171
     3
172
     1
178
     0
271
     2
272
     2
274
     3
278
    44
283
     0
284
     8
340
11
  0
ENDTAB
  0
TABLE
  2
BLOCK_RECORD
  5
1
330
0
100
AcDbSymbolTable
 70
     1
  0
BLOCK_RECORD
  5
1F
330
1
100
AcDbSymbolTableRecord
100
AcDbBlockTableRecord
  2
*Model_Space
340
22
  0
BLOCK_RECORD
  5
1B
330
1
100
AcDbSymbolTableRecord
100
AcDbBlockTableRecord
  2
*Paper_Space
340
1E
  0
BLOCK_RECORD
  5
23
330
1
100
AcDbSymbolTableRecord
100
AcDbBlockTableRecord
  2
*Paper_Space0
340
26
  0
ENDTAB
  0
ENDSEC
  0
SECTION
  2
BLOCKS
  0
BLOCK
  5
20
330
1F
100
AcDbEntity
  8
0
100
AcDbBlockBegin
  2
*Model_Space
 70
     0
 10
0.0
 20
0.0
 30
0.0
  3
*Model_Space
  1

  0
ENDBLK
  5
21
330
1F
100
AcDbEntity
  8
0
100
AcDbBlockEnd
  0
BLOCK
  5
1C
330
1B
100
AcDbEntity
 67
     1
  8
0
100
AcDbBlockBegin
  2
*Paper_Space
 70
     0
 10
0.0
 20
0.0
 30
0.0
  3
*Paper_Space
  1

  0
ENDBLK
  5
1D
330
1B
100
AcDbEntity
 67
     1
  8
0
100
AcDbBlockEnd
  0
BLOCK
  5
24
330
23
100
AcDbEntity
  8
0
100
AcDbBlockBegin
  2
*Paper_Space0
 70
     0
 10
0.0
 20
0.0
 30
0.0
  3
*Paper_Space0
  1

  0
ENDBLK
  5
25
330
23
100
AcDbEntity
  8
0
100
AcDbBlockEnd
  0
ENDSEC
  0
SECTION
  2
ENTITIES
  0
CIRCLE
  5
63
330
1F
100
AcDbEntity
  8
0
  6
CENTERX2
 62
     7
100
AcDbCircle
 10
33.0809961872
 20
15.0825380761
 30
0.0
 40
17.6
  0
CIRCLE
  5
64
330
1F
100
AcDbEntity
  8
0
  6
Continuous
 62
     7
100
AcDbCircle
 10
59.114713719
 20
-35.2212001228
 30
0.0
 40
1.249999999999997
  0
CIRCLE
  5
65
330
1F
100
AcDbEntity
  8
0
  6
Continuous
 62
     7
100
AcDbCircle
 10
92.6348998937
 20
34.751922356
 30
0.0
 40
1.24999999999999
  0
CIRCLE
  5
66
330
1F
100
AcDbEntity
  8
0
  6
Continuous
 62
     7
100
AcDbCircle
 10
40.3148197841
 20
87.5118294197
 30
0.0
 40
1.249999999999999
  0
CIRCLE
  5
67
330
1F
100
AcDbEntity
  8
0
  6
Continuous
 62
     7
100
AcDbCircle
 10
-96.4538481727
 20
87.5118294197
 30
0.0
 40
1.250000000000006
  0
CIRCLE
  5
68
330
1F
100
AcDbEntity
  8
0
  6
Continuous
 62
     7
100
AcDbCircle
 10
-96.4538481727
 20
-12.5924909873
 30
0.0
 40
1.250000000000003
  0
CIRCLE
  5
69
330
1F
100
AcDbEntity
  8
0
  6
Continuous
 62
     7
100
AcDbCircle
 10
5.4198389835
 20
-12.5924909873
 30
0.0
 40
1.25
  0
LINE
  5
6A
330
1F
100
AcDbEntity
  8
0
  6
Continuous
 62
     7
100
AcDbLine
 10
-62.4022670423
 20
5.9323380761
 30
0.0
 11
-62.4022670423
 21
4.9319380761
 31
0.0
  0
LINE
  5
6B
330
1F
100
AcDbEntity
  8
0
  6
Continuous
 62
     7
100
AcDbLine
 10
-62.4022670423
 20
4.9319380761
 30
0.0
 11
-63.2029670423
 21
4.9319380761
 31
0.0
  0
LINE
  5
6C
330
1F
100
AcDbEntity
  8
0
  6
Continuous
 62
     7
100
AcDbLine
 10
-63.2029670423
 20
4.9319380761
 30
0.0
 11
-63.2029670423
 21
1.8340380761
 31
0.0
  0
LINE
  5
6D
330
1F
100
AcDbEntity
  8
0
  6
Continuous
 62
     7
100
AcDbLine
 10
-63.2029670423
 20
1.8340380761
 30
0.0
 11
-62.4022670423
 21
1.8340380761
 31
0.0
  0
LINE
  5
6E
330
1F
100
AcDbEntity
  8
0
  6
Continuous
 62
     7
100
AcDbLine
 10
-62.4022670423
 20
1.8340380761
 30
0.0
 11
-62.4022670423
 21
1.2318380761
 31
0.0
  0
LINE
  5
6F
330
1F
100
AcDbEntity
  8
0
  6
Continuous
 62
     7
100
AcDbLine
 10
-62.4022670423
 20
1.2318380761
 30
0.0
 11
-63.9277670423
 21
1.2318380761
 31
0.0
  0
LINE
  5
70
330
1F
100
AcDbEntity
  8
0
  6
Continuous
 62
     7
100
AcDbLine
 10
-63.9277670423
 20
1.2318380761
 30
0.0
 11
-63.9277670423
 21
4.4620380761
 31
0.0
  0
LINE
  5
71
330
1F
100
AcDbEntity
  8
0
  6
Continuous
 62
     7
100
AcDbLine
 10
-63.9277670423
 20
4.4620380761
 30
0.0
 11
-65.6531670423
 21
4.4620380761
 31
0.0
  0
LINE
  5
72
330
1F
100
AcDbEntity
  8
0
  6
Continuous
 62
     7
100
AcDbLine
 10
-65.6531670423
 20
4.4620380761
 30
0.0
 11
-65.6531670423
 21
5.3839380761
 31
0.0
  0
LINE
  5
73
330
1F
100
AcDbEntity
  8
0
  6
Continuous
 62
     7
100
AcDbLine
 10
-65.6531670423
 20
5.3839380761
 30
0.0
 11
-68.9521670423
 21
5.3839380761
 31
0.0
  0
LINE
  5
74
330
1F
100
AcDbEntity
  8
0
  6
Continuous
 62
     7
100
AcDbLine
 10
-68.9521670423
 20
5.3839380761
 30
0.0
 11
-68.9521670423
 21
4.4620380761
 31
0.0
  0
LINE
  5
75
330
1F
100
AcDbEntity
  8
0
  6
Continuous
 62
     7
100
AcDbLine
 10
-68.9521670423
 20
4.4620380761
 30
0.0
 11
-70.6773670423
 21
4.4620380761
 31
0.0
  0
LINE
  5
76
330
1F
100
AcDbEntity
  8
0
  6
Continuous
 62
     7
100
AcDbLine
 10
-70.6773670423
 20
4.4620380761
 30
0.0
 11
-70.6773670423
 21
1.2318380761
 31
0.0
  0
LINE
  5
77
330
1F
100
AcDbEntity
  8
0
  6
Continuous
 62
     7
100
AcDbLine
 10
-70.6773670423
 20
1.2318380761
 30
0.0
 11
-71.5028670423
 21
1.2318380761
 31
0.0
  0
LINE
  5
78
330
1F
100
AcDbEntity
  8
0
  6
Continuous
 62
     7
100
AcDbLine
 10
-71.5028670423
 20
1.2318380761
 30
0.0
 11
-71.5028670423
 21
-1.5669219239
 31
0.0
  0
LINE
  5
79
330
1F
100
AcDbEntity
  8
0
  6
Continuous
 62
     7
100
AcDbLine
 10
-71.5028670423
 20
-1.5669219239
 30
0.0
 11
-70.6773670423
 21
-1.5669219239
 31
0.0
  0
LINE
  5
7A
330
1F
100
AcDbEntity
  8
0
  6
Continuous
 62
     7
100
AcDbLine
 10
-70.6773670423
 20
-1.5669219239
 30
0.0
 11
-70.6773670423
 21
-7.8369919239
 31
0.0
  0
LINE
  5
7B
330
1F
100
AcDbEntity
  8
0
  6
Continuous
 62
     7
100
AcDbLine
 10
-70.6773670423
 20
-7.8369919239
 30
0.0
 11
-68.9521670423
 21
-7.8369919239
 31
0.0
  0
LINE
  5
7C
330
1F
100
AcDbEntity
  8
0
  6
Continuous
 62
     7
100
AcDbLine
 10
-68.9521670423
 20
-7.8369919239
 30
0.0
 11
-68.9521670423
 21
-8.8181519239
 31
0.0
  0
LINE
  5
7D
330
1F
100
AcDbEntity
  8
0
  6
Continuous
 62
     7
100
AcDbLine
 10
-68.9521670423
 20
-8.8181519239
 30
0.0
 11
-65.6531670423
 21
-8.8181519239
 31
0.0
  0
LINE
  5
7E
330
1F
100
AcDbEntity
  8
0
  6
Continuous
 62
     7
100
AcDbLine
 10
-65.6531670423
 20
-8.8181519239
 30
0.0
 11
-65.6531670423
 21
-7.8369919239
 31
0.0
  0
LINE
  5
7F
330
1F
100
AcDbEntity
  8
0
  6
Continuous
 62
     7
100
AcDbLine
 10
-65.6531670423
 20
-7.8369919239
 30
0.0
 11
-63.9277670423
 21
-7.8369919239
 31
0.0
  0
LINE
  5
80
330
1F
100
AcDbEntity
  8
0
  6
Continuous
 62
     7
100
AcDbLine
 10
-63.9277670423
 20
-7.8369919239
 30
0.0
 11
-63.9277670423
 21
-3.3666519239
 31
0.0
  0
LINE
  5
81
330
1F
100
AcDbEntity
  8
0
  6
Continuous
 62
     7
100
AcDbLine
 10
-63.9277670423
 20
-3.3666519239
 30
0.0
 11
-62.4022670423
 21
-3.3666519239
 31
0.0
  0
LINE
  5
82
330
1F
100
AcDbEntity
  8
0
  6
Continuous
 62
     7
100
AcDbLine
 10
-62.4022670423
 20
-3.3666519239
 30
0.0
 11
-62.4022670423
 21
-3.9674719239
 31
0.0
  0
LINE
  5
83
330
1F
100
AcDbEntity
  8
0
  6
Continuous
 62
     7
100
AcDbLine
 10
-62.4022670423
 20
-3.9674719239
 30
0.0
 11
-63.2029670423
 21
-3.9674719239
 31
0.0
  0
LINE
  5
84
330
1F
100
AcDbEntity
  8
0
  6
Continuous
 62
     7
100
AcDbLine
 10
-63.2029670423
 20
-3.9674719239
 30
0.0
 11
-63.2029670423
 21
-7.0680319239
 31
0.0
  0
LINE
  5
85
330
1F
100
AcDbEntity
  8
0
  6
Continuous
 62
     7
100
AcDbLine
 10
-63.2029670423
 20
-7.0680319239
 30
0.0
 11
-62.4022670423
 21
-7.0680319239
 31
0.0
  0
LINE
  5
86
330
1F
100
AcDbEntity
  8
0
  6
Continuous
 62
     7
100
AcDbLine
 10
-62.4022670423
 20
-7.0680319239
 30
0.0
 11
-62.4022670423
 21
-8.0671219239
 31
0.0
  0
LINE
  5
87
330
1F
100
AcDbEntity
  8
0
  6
Continuous
 62
     7
100
AcDbLine
 10
-62.4022670423
 20
-8.0671219239
 30
0.0
 11
-48.4029670423
 21
-8.0671219239
 31
0.0
  0
LINE
  5
88
330
1F
100
AcDbEntity
  8
0
  6
Continuous
 62
     7
100
AcDbLine
 10
-48.4029670423
 20
-8.0671219239
 30
0.0
 11
-48.4029670423
 21
-7.0680319239
 31
0.0
  0
LINE
  5
89
330
1F
100
AcDbEntity
  8
0
  6
Continuous
 62
     7
100
AcDbLine
 10
-48.4029670423
 20
-7.0680319239
 30
0.0
 11
-47.6021670423
 21
-7.0680319239
 31
0.0
  0
LINE
  5
8A
330
1F
100
AcDbEntity
  8
0
  6
Continuous
 62
     7
100
AcDbLine
 10
-47.6021670423
 20
-7.0680319239
 30
0.0
 11
-47.6021670423
 21
-3.9674719239
 31
0.0
  0
LINE
  5
8B
330
1F
100
AcDbEntity
  8
0
  6
Continuous
 62
     7
100
AcDbLine
 10
-47.6021670423
 20
-3.9674719239
 30
0.0
 11
-48.4029670423
 21
-3.9674719239
 31
0.0
  0
LINE
  5
8C
330
1F
100
AcDbEntity
  8
0
  6
Continuous
 62
     7
100
AcDbLine
 10
-48.4029670423
 20
-3.9674719239
 30
0.0
 11
-48.4029670423
 21
-3.3666519239
 31
0.0
  0
LINE
  5
8D
330
1F
100
AcDbEntity
  8
0
  6
Continuous
 62
     7
100
AcDbLine
 10
-48.4029670423
 20
-3.3666519239
 30
0.0
 11
-46.8771670423
 21
-3.3666519239
 31
0.0
  0
LINE
  5
8E
330
1F
100
AcDbEntity
  8
0
  6
Continuous
 62
     7
100
AcDbLine
 10
-46.8771670423
 20
-3.3666519239
 30
0.0
 11
-46.8771670423
 21
-7.8369919239
 31
0.0
  0
LINE
  5
8F
330
1F
100
AcDbEntity
  8
0
  6
Continuous
 62
     7
100
AcDbLine
 10
-46.8771670423
 20
-7.8369919239
 30
0.0
 11
-45.1520670423
 21
-7.8369919239
 31
0.0
  0
LINE
  5
90
330
1F
100
AcDbEntity
  8
0
  6
Continuous
 62
     7
100
AcDbLine
 10
-45.1520670423
 20
-7.8369919239
 30
0.0
 11
-45.1520670423
 21
-8.8181519239
 31
0.0
  0
LINE
  5
91
330
1F
100
AcDbEntity
  8
0
  6
Continuous
 62
     7
100
AcDbLine
 10
-45.1520670423
 20
-8.8181519239
 30
0.0
 11
-41.8529670423
 21
-8.8181519239
 31
0.0
  0
LINE
  5
92
330
1F
100
AcDbEntity
  8
0
  6
Continuous
 62
     7
100
AcDbLine
 10
-41.8529670423
 20
-8.8181519239
 30
0.0
 11
-41.8529670423
 21
-7.8369919239
 31
0.0
  0
LINE
  5
93
330
1F
100
AcDbEntity
  8
0
  6
Continuous
 62
     7
100
AcDbLine
 10
-41.8529670423
 20
-7.8369919239
 30
0.0
 11
-40.1278670423
 21
-7.8369919239
 31
0.0
  0
LINE
  5
94
330
1F
100
AcDbEntity
  8
0
  6
Continuous
 62
     7
100
AcDbLine
 10
-40.1278670423
 20
-7.8369919239
 30
0.0
 11
-40.1278670423
 21
-1.5669219239
 31
0.0
  0
LINE
  5
95
330
1F
100
AcDbEntity
  8
0
  6
Continuous
 62
     7
100
AcDbLine
 10
-40.1278670423
 20
-1.5669219239
 30
0.0
 11
-39.3023670423
 21
-1.5669219239
 31
0.0
  0
LINE
  5
96
330
1F
100
AcDbEntity
  8
0
  6
Continuous
 62
     7
100
AcDbLine
 10
-39.3023670423
 20
-1.5669219239
 30
0.0
 11
-39.3023670423
 21
1.2318380761
 31
0.0
  0
LINE
  5
97
330
1F
100
AcDbEntity
  8
0
  6
Continuous
 62
     7
100
AcDbLine
 10
-39.3023670423
 20
1.2318380761
 30
0.0
 11
-40.1278670423
 21
1.2318380761
 31
0.0
  0
LINE
  5
98
330
1F
100
AcDbEntity
  8
0
  6
Continuous
 62
     7
100
AcDbLine
 10
-40.1278670423
 20
1.2318380761
 30
0.0
 11
-40.1278670423
 21
4.4620380761
 31
0.0
  0
LINE
  5
99
330
1F
100
AcDbEntity
  8
0
  6
Continuous
 62
     7
100
AcDbLine
 10
-40.1278670423
 20
4.4620380761
 30
0.0
 11
-41.8529670423
 21
4.4620380761
 31
0.0
  0
LINE
  5
9A
330
1F
100
AcDbEntity
  8
0
  6
Continuous
 62
     7
100
AcDbLine
 10
-41.8529670423
 20
4.4620380761
 30
0.0
 11
-41.8529670423
 21
5.3839380761
 31
0.0
  0
LINE
  5
9B
330
1F
100
AcDbEntity
  8
0
  6
Continuous
 62
     7
100
AcDbLine
 10
-41.8529670423
 20
5.3839380761
 30
0.0
 11
-45.1520670423
 21
5.3839380761
 31
0.0
  0
LINE
  5
9C
330
1F
100
AcDbEntity
  8
0
  6
Continuous
 62
     7
100
AcDbLine
 10
-45.1520670423
 20
5.3839380761
 30
0.0
 11
-45.1520670423
 21
4.4620380761
 31
0.0
  0
LINE
  5
9D
330
1F
100
AcDbEntity
  8
0
  6
Continuous
 62
     7
100
AcDbLine
 10
-45.1520670423
 20
4.4620380761
 30
0.0
 11
-46.8771670423
 21
4.4620380761
 31
0.0
  0
LINE
  5
9E
330
1F
100
AcDbEntity
  8
0
  6
Continuous
 62
     7
100
AcDbLine
 10
-46.8771670423
 20
4.4620380761
 30
0.0
 11
-46.8771670423
 21
1.2318380761
 31
0.0
  0
LINE
  5
9F
330
1F
100
AcDbEntity
  8
0
  6
Continuous
 62
     7
100
AcDbLine
 10
-46.8771670423
 20
1.2318380761
 30
0.0
 11
-48.4029670423
 21
1.2318380761
 31
0.0
  0
LINE
  5
A0
330
1F
100
AcDbEntity
  8
0
  6
Continuous
 62
     7
100
AcDbLine
 10
-48.4029670423
 20
1.2318380761
 30
0.0
 11
-48.4029670423
 21
1.8340380761
 31
0.0
  0
LINE
  5
A1
330
1F
100
AcDbEntity
  8
0
  6
Continuous
 62
     7
100
AcDbLine
 10
-48.4029670423
 20
1.8340380761
 30
0.0
 11
-47.6021670423
 21
1.8340380761
 31
0.0
  0
LINE
  5
A2
330
1F
100
AcDbEntity
  8
0
  6
Continuous
 62
     7
100
AcDbLine
 10
-47.6021670423
 20
1.8340380761
 30
0.0
 11
-47.6021670423
 21
4.9319380761
 31
0.0
  0
LINE
  5
A3
330
1F
100
AcDbEntity
  8
0
  6
Continuous
 62
     7
100
AcDbLine
 10
-47.6021670423
 20
4.9319380761
 30
0.0
 11
-48.4029670423
 21
4.9319380761
 31
0.0
  0
LINE
  5
A4
330
1F
100
AcDbEntity
  8
0
  6
Continuous
 62
     7
100
AcDbLine
 10
-48.4029670423
 20
4.9319380761
 30
0.0
 11
-48.4029670423
 21
5.9323380761
 31
0.0
  0
LINE
  5
A5
330
1F
100
AcDbEntity
  8
0
  6
Continuous
 62
     7
100
AcDbLine
 10
-48.4029670423
 20
5.9323380761
 30
0.0
 11
-62.4022670423
 21
5.9323380761
 31
0.0
  0
LINE
  5
A6
330
1F
100
AcDbEntity
  8
0
  6
Continuous
 62
     7
100
AcDbLine
 10
-33.8272670423
 20
5.9323380761
 30
0.0
 11
-33.8272670423
 21
4.9319380761
 31
0.0
  0
LINE
  5
A7
330
1F
100
AcDbEntity
  8
0
  6
Continuous
 62
     7
100
AcDbLine
 10
-33.8272670423
 20
4.9319380761
 30
0.0
 11
-34.6280670423
 21
4.9319380761
 31
0.0
  0
LINE
  5
A8
330
1F
100
AcDbEntity
  8
0
  6
Continuous
 62
     7
100
AcDbLine
 10
-34.6280670423
 20
4.9319380761
 30
0.0
 11
-34.6280670423
 21
1.8340380761
 31
0.0
  0
LINE
  5
A9
330
1F
100
AcDbEntity
  8
0
  6
Continuous
 62
     7
100
AcDbLine
 10
-34.6280670423
 20
1.8340380761
 30
0.0
 11
-33.8272670423
 21
1.8340380761
 31
0.0
  0
LINE
  5
AA
330
1F
100
AcDbEntity
  8
0
  6
Continuous
 62
     7
100
AcDbLine
 10
-33.8272670423
 20
1.8340380761
 30
0.0
 11
-33.8272670423
 21
-3.9674719239
 31
0.0
  0
LINE
  5
AB
330
1F
100
AcDbEntity
  8
0
  6
Continuous
 62
     7
100
AcDbLine
 10
-33.8272670423
 20
-3.9674719239
 30
0.0
 11
-34.6280670423
 21
-3.9674719239
 31
0.0
  0
LINE
  5
AC
330
1F
100
AcDbEntity
  8
0
  6
Continuous
 62
     7
100
AcDbLine
 10
-34.6280670423
 20
-3.9674719239
 30
0.0
 11
-34.6280670423
 21
-7.0680319239
 31
0.0
  0
LINE
  5
AD
330
1F
100
AcDbEntity
  8
0
  6
Continuous
 62
     7
100
AcDbLine
 10
-34.6280670423
 20
-7.0680319239
 30
0.0
 11
-33.8272670423
 21
-7.0680319239
 31
0.0
  0
LINE
  5
AE
330
1F
100
AcDbEntity
  8
0
  6
Continuous
 62
     7
100
AcDbLine
 10
-33.8272670423
 20
-7.0680319239
 30
0.0
 11
-33.8272670423
 21
-8.0671219239
 31
0.0
  0
LINE
  5
AF
330
1F
100
AcDbEntity
  8
0
  6
Continuous
 62
     7
100
AcDbLine
 10
-33.8272670423
 20
-8.0671219239
 30
0.0
 11
-19.8279670423
 21
-8.0671219239
 31
0.0
  0
LINE
  5
B0
330
1F
100
AcDbEntity
  8
0
  6
Continuous
 62
     7
100
AcDbLine
 10
-19.8279670423
 20
-8.0671219239
 30
0.0
 11
-19.8279670423
 21
-7.0680319239
 31
0.0
  0
LINE
  5
B1
330
1F
100
AcDbEntity
  8
0
  6
Continuous
 62
     7
100
AcDbLine
 10
-19.8279670423
 20
-7.0680319239
 30
0.0
 11
-19.0271670423
 21
-7.0680319239
 31
0.0
  0
LINE
  5
B2
330
1F
100
AcDbEntity
  8
0
  6
Continuous
 62
     7
100
AcDbLine
 10
-19.0271670423
 20
-7.0680319239
 30
0.0
 11
-19.0271670423
 21
-3.9674719239
 31
0.0
  0
LINE
  5
B3
330
1F
100
AcDbEntity
  8
0
  6
Continuous
 62
     7
100
AcDbLine
 10
-19.0271670423
 20
-3.9674719239
 30
0.0
 11
-19.8279670423
 21
-3.9674719239
 31
0.0
  0
LINE
  5
B4
330
1F
100
AcDbEntity
  8
0
  6
Continuous
 62
     7
100
AcDbLine
 10
-19.8279670423
 20
-3.9674719239
 30
0.0
 11
-19.8279670423
 21
1.8340380761
 31
0.0
  0
LINE
  5
B5
330
1F
100
AcDbEntity
  8
0
  6
Continuous
 62
     7
100
AcDbLine
 10
-19.8279670423
 20
1.8340380761
 30
0.0
 11
-19.0271670423
 21
1.8340380761
 31
0.0
  0
LINE
  5
B6
330
1F
100
AcDbEntity
  8
0
  6
Continuous
 62
     7
100
AcDbLine
 10
-19.0271670423
 20
1.8340380761
 30
0.0
 11
-19.0271670423
 21
4.9319380761
 31
0.0
  0
LINE
  5
B7
330
1F
100
AcDbEntity
  8
0
  6
Continuous
 62
     7
100
AcDbLine
 10
-19.0271670423
 20
4.9319380761
 30
0.0
 11
-19.8279670423
 21
4.9319380761
 31
0.0
  0
LINE
  5
B8
330
1F
100
AcDbEntity
  8
0
  6
Continuous
 62
     7
100
AcDbLine
 10
-19.8279670423
 20
4.9319380761
 30
0.0
 11
-19.8279670423
 21
5.9323380761
 31
0.0
  0
LINE
  5
B9
330
1F
100
AcDbEntity
  8
0
  6
Continuous
 62
     7
100
AcDbLine
 10
-19.8279670423
 20
5.9323380761
 30
0.0
 11
-33.8272670423
 21
5.9323380761
 31
0.0
  0
LINE
  5
BA
330
1F
100
AcDbEntity
  8
0
  6
Continuous
 62
     7
100
AcDbLine
 10
-14.7772670423
 20
5.9323380761
 30
0.0
 11
-14.7772670423
 21
4.9319380761
 31
0.0
  0
LINE
  5
BB
330
1F
100
AcDbEntity
  8
0
  6
Continuous
 62
     7
100
AcDbLine
 10
-14.7772670423
 20
4.9319380761
 30
0.0
 11
-15.5780670423
 21
4.9319380761
 31
0.0
  0
LINE
  5
BC
330
1F
100
AcDbEntity
  8
0
  6
Continuous
 62
     7
100
AcDbLine
 10
-15.5780670423
 20
4.9319380761
 30
0.0
 11
-15.5780670423
 21
1.8340380761
 31
0.0
  0
LINE
  5
BD
330
1F
100
AcDbEntity
  8
0
  6
Continuous
 62
     7
100
AcDbLine
 10
-15.5780670423
 20
1.8340380761
 30
0.0
 11
-14.7772670423
 21
1.8340380761
 31
0.0
  0
LINE
  5
BE
330
1F
100
AcDbEntity
  8
0
  6
Continuous
 62
     7
100
AcDbLine
 10
-14.7772670423
 20
1.8340380761
 30
0.0
 11
-14.7772670423
 21
-3.9674719239
 31
0.0
  0
LINE
  5
BF
330
1F
100
AcDbEntity
  8
0
  6
Continuous
 62
     7
100
AcDbLine
 10
-14.7772670423
 20
-3.9674719239
 30
0.0
 11
-15.5780670423
 21
-3.9674719239
 31
0.0
  0
LINE
  5
C0
330
1F
100
AcDbEntity
  8
0
  6
Continuous
 62
     7
100
AcDbLine
 10
-15.5780670423
 20
-3.9674719239
 30
0.0
 11
-15.5780670423
 21
-7.0680319239
 31
0.0
  0
LINE
  5
C1
330
1F
100
AcDbEntity
  8
0
  6
Continuous
 62
     7
100
AcDbLine
 10
-15.5780670423
 20
-7.0680319239
 30
0.0
 11
-14.7772670423
 21
-7.0680319239
 31
0.0
  0
LINE
  5
C2
330
1F
100
AcDbEntity
  8
0
  6
Continuous
 62
     7
100
AcDbLine
 10
-14.7772670423
 20
-7.0680319239
 30
0.0
 11
-14.7772670423
 21
-8.0671219239
 31
0.0
  0
LINE
  5
C3
330
1F
100
AcDbEntity
  8
0
  6
Continuous
 62
     7
100
AcDbLine
 10
-14.7772670423
 20
-8.0671219239
 30
0.0
 11
-0.7779670423
 21
-8.0671219239
 31
0.0
  0
LINE
  5
C4
330
1F
100
AcDbEntity
  8
0
  6
Continuous
 62
     7
100
AcDbLine
 10
-0.7779670423
 20
-8.0671219239
 30
0.0
 11
-0.7779670423
 21
-7.0680319239
 31
0.0
  0
LINE
  5
C5
330
1F
100
AcDbEntity
  8
0
  6
Continuous
 62
     7
100
AcDbLine
 10
-0.7779670423
 20
-7.0680319239
 30
0.0
 11
0.0228329577
 21
-7.0680319239
 31
0.0
  0
LINE
  5
C6
330
1F
100
AcDbEntity
  8
0
  6
Continuous
 62
     7
100
AcDbLine
 10
0.0228329577
 20
-7.0680319239
 30
0.0
 11
0.0228329577
 21
-3.9674719239
 31
0.0
  0
LINE
  5
C7
330
1F
100
AcDbEntity
  8
0
  6
Continuous
 62
     7
100
AcDbLine
 10
0.0228329577
 20
-3.9674719239
 30
0.0
 11
-0.7779670423
 21
-3.9674719239
 31
0.0
  0
LINE
  5
C8
330
1F
100
AcDbEntity
  8
0
  6
Continuous
 62
     7
100
AcDbLine
 10
-0.7779670423
 20
-3.9674719239
 30
0.0
 11
-0.7779670423
 21
1.8340380761
 31
0.0
  0
LINE
  5
C9
330
1F
100
AcDbEntity
  8
0
  6
Continuous
 62
     7
100
AcDbLine
 10
-0.7779670423
 20
1.8340380761
 30
0.0
 11
0.0228329577
 21
1.8340380761
 31
0.0
  0
LINE
  5
CA
330
1F
100
AcDbEntity
  8
0
  6
Continuous
 62
     7
100
AcDbLine
 10
0.0228329577
 20
1.8340380761
 30
0.0
 11
0.0228329577
 21
4.9319380761
 31
0.0
  0
LINE
  5
CB
330
1F
100
AcDbEntity
  8
0
  6
Continuous
 62
     7
100
AcDbLine
 10
0.0228329577
 20
4.9319380761
 30
0.0
 11
-0.7779670423
 21
4.9319380761
 31
0.0
  0
LINE
  5
CC
330
1F
100
AcDbEntity
  8
0
  6
Continuous
 62
     7
100
AcDbLine
 10
-0.7779670423
 20
4.9319380761
 30
0.0
 11
-0.7779670423
 21
5.9323380761
 31
0.0
  0
LINE
  5
CD
330
1F
100
AcDbEntity
  8
0
  6
Continuous
 62
     7
100
AcDbLine
 10
-0.7779670423
 20
5.9323380761
 30
0.0
 11
-14.7772670423
 21
5.9323380761
 31
0.0
  0
LINE
  5
CE
330
1F
100
AcDbEntity
  8
0
  6
Continuous
 62
     7
100
AcDbLine
 10
-84.4784770423
 20
24.5579380761
 30
0.0
 11
-84.4784770423
 21
23.7325380761
 31
0.0
  0
LINE
  5
CF
330
1F
100
AcDbEntity
  8
0
  6
Continuous
 62
     7
100
AcDbLine
 10
-84.4784770423
 20
23.7325380761
 30
0.0
 11
-90.7471870423
 21
23.7325380761
 31
0.0
  0
LINE
  5
D0
330
1F
100
AcDbEntity
  8
0
  6
Continuous
 62
     7
100
AcDbLine
 10
-90.7471870423
 20
23.7325380761
 30
0.0
 11
-90.7471870423
 21
22.0071380761
 31
0.0
  0
LINE
  5
D1
330
1F
100
AcDbEntity
  8
0
  6
Continuous
 62
     7
100
AcDbLine
 10
-90.7471870423
 20
22.0071380761
 30
0.0
 11
-91.7283470423
 21
22.0071380761
 31
0.0
  0
LINE
  5
D2
330
1F
100
AcDbEntity
  8
0
  6
Continuous
 62
     7
100
AcDbLine
 10
-91.7283470423
 20
22.0071380761
 30
0.0
 11
-91.7283470423
 21
18.7081380761
 31
0.0
  0
LINE
  5
D3
330
1F
100
AcDbEntity
  8
0
  6
Continuous
 62
     7
100
AcDbLine
 10
-91.7283470423
 20
18.7081380761
 30
0.0
 11
-90.7471870423
 21
18.7081380761
 31
0.0
  0
LINE
  5
D4
330
1F
100
AcDbEntity
  8
0
  6
Continuous
 62
     7
100
AcDbLine
 10
-90.7471870423
 20
18.7081380761
 30
0.0
 11
-90.7471870423
 21
16.9828380761
 31
0.0
  0
LINE
  5
D5
330
1F
100
AcDbEntity
  8
0
  6
Continuous
 62
     7
100
AcDbLine
 10
-90.7471870423
 20
16.9828380761
 30
0.0
 11
-86.2768270423
 21
16.9828380761
 31
0.0
  0
LINE
  5
D6
330
1F
100
AcDbEntity
  8
0
  6
Continuous
 62
     7
100
AcDbLine
 10
-86.2768270423
 20
16.9828380761
 30
0.0
 11
-86.2768270423
 21
15.4573380761
 31
0.0
  0
LINE
  5
D7
330
1F
100
AcDbEntity
  8
0
  6
Continuous
 62
     7
100
AcDbLine
 10
-86.2768270423
 20
15.4573380761
 30
0.0
 11
-86.8776470423
 21
15.4573380761
 31
0.0
  0
LINE
  5
D8
330
1F
100
AcDbEntity
  8
0
  6
Continuous
 62
     7
100
AcDbLine
 10
-86.8776470423
 20
15.4573380761
 30
0.0
 11
-86.8776470423
 21
16.2580380761
 31
0.0
  0
LINE
  5
D9
330
1F
100
AcDbEntity
  8
0
  6
Continuous
 62
     7
100
AcDbLine
 10
-86.8776470423
 20
16.2580380761
 30
0.0
 11
-89.9782470423
 21
16.2580380761
 31
0.0
  0
LINE
  5
DA
330
1F
100
AcDbEntity
  8
0
  6
Continuous
 62
     7
100
AcDbLine
 10
-89.9782470423
 20
16.2580380761
 30
0.0
 11
-89.9768670423
 21
15.4573380761
 31
0.0
  0
LINE
  5
DB
330
1F
100
AcDbEntity
  8
0
  6
Continuous
 62
     7
100
AcDbLine
 10
-89.9768670423
 20
15.4573380761
 30
0.0
 11
-90.9773170423
 21
15.4573380761
 31
0.0
  0
LINE
  5
DC
330
1F
100
AcDbEntity
  8
0
  6
Continuous
 62
     7
100
AcDbLine
 10
-90.9773170423
 20
15.4573380761
 30
0.0
 11
-90.9773170423
 21
1.4578380761
 31
0.0
  0
LINE
  5
DD
330
1F
100
AcDbEntity
  8
0
  6
Continuous
 62
     7
100
AcDbLine
 10
-90.9773170423
 20
1.4578380761
 30
0.0
 11
-89.9768670423
 21
1.4578380761
 31
0.0
  0
LINE
  5
DE
330
1F
100
AcDbEntity
  8
0
  6
Continuous
 62
     7
100
AcDbLine
 10
-89.9768670423
 20
1.4578380761
 30
0.0
 11
-89.9768670423
 21
0.6572380761
 31
0.0
  0
LINE
  5
DF
330
1F
100
AcDbEntity
  8
0
  6
Continuous
 62
     7
100
AcDbLine
 10
-89.9768670423
 20
0.6572380761
 30
0.0
 11
-86.8776470423
 21
0.6572380761
 31
0.0
  0
LINE
  5
E0
330
1F
100
AcDbEntity
  8
0
  6
Continuous
 62
     7
100
AcDbLine
 10
-86.8776470423
 20
0.6572380761
 30
0.0
 11
-86.8776470423
 21
1.4578380761
 31
0.0
  0
LINE
  5
E1
330
1F
100
AcDbEntity
  8
0
  6
Continuous
 62
     7
100
AcDbLine
 10
-86.8776470423
 20
1.4578380761
 30
0.0
 11
-86.2768270423
 21
1.4578380761
 31
0.0
  0
LINE
  5
E2
330
1F
100
AcDbEntity
  8
0
  6
Continuous
 62
     7
100
AcDbLine
 10
-86.2768270423
 20
1.4578380761
 30
0.0
 11
-86.2768270423
 21
-0.0676619239
 31
0.0
  0
LINE
  5
E3
330
1F
100
AcDbEntity
  8
0
  6
Continuous
 62
     7
100
AcDbLine
 10
-86.2768270423
 20
-0.0676619239
 30
0.0
 11
-90.7471870423
 21
-0.0676619239
 31
0.0
  0
LINE
  5
E4
330
1F
100
AcDbEntity
  8
0
  6
Continuous
 62
     7
100
AcDbLine
 10
-90.7471870423
 20
-0.0676619239
 30
0.0
 11
-90.7471870423
 21
-1.7929119239
 31
0.0
  0
LINE
  5
E5
330
1F
100
AcDbEntity
  8
0
  6
Continuous
 62
     7
100
AcDbLine
 10
-90.7471870423
 20
-1.7929119239
 30
0.0
 11
-91.7269670423
 21
-1.7929119239
 31
0.0
  0
LINE
  5
E6
330
1F
100
AcDbEntity
  8
0
  6
Continuous
 62
     7
100
AcDbLine
 10
-91.7269670423
 20
-1.7929119239
 30
0.0
 11
-91.7269670423
 21
-5.0919519239
 31
0.0
  0
LINE
  5
E7
330
1F
100
AcDbEntity
  8
0
  6
Continuous
 62
     7
100
AcDbLine
 10
-91.7269670423
 20
-5.0919519239
 30
0.0
 11
-90.7471870423
 21
-5.0919519239
 31
0.0
  0
LINE
  5
E8
330
1F
100
AcDbEntity
  8
0
  6
Continuous
 62
     7
100
AcDbLine
 10
-90.7471870423
 20
-5.0919519239
 30
0.0
 11
-90.7471870423
 21
-6.8172419239
 31
0.0
  0
LINE
  5
E9
330
1F
100
AcDbEntity
  8
0
  6
Continuous
 62
     7
100
AcDbLine
 10
-90.7471870423
 20
-6.8172419239
 30
0.0
 11
-84.4770970423
 21
-6.8172419239
 31
0.0
  0
LINE
  5
EA
330
1F
100
AcDbEntity
  8
0
  6
Continuous
 62
     7
100
AcDbLine
 10
-84.4770970423
 20
-6.8172419239
 30
0.0
 11
-84.4770970423
 21
-7.6426919239
 31
0.0
  0
LINE
  5
EB
330
1F
100
AcDbEntity
  8
0
  6
Continuous
 62
     7
100
AcDbLine
 10
-84.4770970423
 20
-7.6426919239
 30
0.0
 11
-81.6769670423
 21
-7.6426919239
 31
0.0
  0
LINE
  5
EC
330
1F
100
AcDbEntity
  8
0
  6
Continuous
 62
     7
100
AcDbLine
 10
-81.6769670423
 20
-7.6426919239
 30
0.0
 11
-81.6769670423
 21
-6.8172419239
 31
0.0
  0
LINE
  5
ED
330
1F
100
AcDbEntity
  8
0
  6
Continuous
 62
     7
100
AcDbLine
 10
-81.6769670423
 20
-6.8172419239
 30
0.0
 11
-78.4468670423
 21
-6.8172419239
 31
0.0
  0
LINE
  5
EE
330
1F
100
AcDbEntity
  8
0
  6
Continuous
 62
     7
100
AcDbLine
 10
-78.4468670423
 20
-6.8172419239
 30
0.0
 11
-78.4468670423
 21
-5.0919519239
 31
0.0
  0
LINE
  5
EF
330
1F
100
AcDbEntity
  8
0
  6
Continuous
 62
     7
100
AcDbLine
 10
-78.4468670423
 20
-5.0919519239
 30
0.0
 11
-77.5276670423
 21
-5.0919519239
 31
0.0
  0
LINE
  5
F0
330
1F
100
AcDbEntity
  8
0
  6
Continuous
 62
     7
100
AcDbLine
 10
-77.5276670423
 20
-5.0919519239
 30
0.0
 11
-77.5276670423
 21
-1.7929119239
 31
0.0
  0
LINE
  5
F1
330
1F
100
AcDbEntity
  8
0
  6
Continuous
 62
     7
100
AcDbLine
 10
-77.5276670423
 20
-1.7929119239
 30
0.0
 11
-78.4468670423
 21
-1.7929119239
 31
0.0
  0
LINE
  5
F2
330
1F
100
AcDbEntity
  8
0
  6
Continuous
 62
     7
100
AcDbLine
 10
-78.4468670423
 20
-1.7929119239
 30
0.0
 11
-78.4468670423
 21
-0.0676619239
 31
0.0
  0
LINE
  5
F3
330
1F
100
AcDbEntity
  8
0
  6
Continuous
 62
     7
100
AcDbLine
 10
-78.4468670423
 20
-0.0676619239
 30
0.0
 11
-81.6769670423
 21
-0.0676619239
 31
0.0
  0
LINE
  5
F4
330
1F
100
AcDbEntity
  8
0
  6
Continuous
 62
     7
100
AcDbLine
 10
-81.6769670423
 20
-0.0676619239
 30
0.0
 11
-81.6769670423
 21
1.4578380761
 31
0.0
  0
LINE
  5
F5
330
1F
100
AcDbEntity
  8
0
  6
Continuous
 62
     7
100
AcDbLine
 10
-81.6769670423
 20
1.4578380761
 30
0.0
 11
-81.0774670423
 21
1.4578380761
 31
0.0
  0
LINE
  5
F6
330
1F
100
AcDbEntity
  8
0
  6
Continuous
 62
     7
100
AcDbLine
 10
-81.0774670423
 20
1.4578380761
 30
0.0
 11
-81.0774670423
 21
0.6572380761
 31
0.0
  0
LINE
  5
F7
330
1F
100
AcDbEntity
  8
0
  6
Continuous
 62
     7
100
AcDbLine
 10
-81.0774670423
 20
0.6572380761
 30
0.0
 11
-77.9769670423
 21
0.6572380761
 31
0.0
  0
LINE
  5
F8
330
1F
100
AcDbEntity
  8
0
  6
Continuous
 62
     7
100
AcDbLine
 10
-77.9769670423
 20
0.6572380761
 30
0.0
 11
-77.9769670423
 21
1.4578380761
 31
0.0
  0
LINE
  5
F9
330
1F
100
AcDbEntity
  8
0
  6
Continuous
 62
     7
100
AcDbLine
 10
-77.9769670423
 20
1.4578380761
 30
0.0
 11
-76.9777670423
 21
1.4578380761
 31
0.0
  0
LINE
  5
FA
330
1F
100
AcDbEntity
  8
0
  6
Continuous
 62
     7
100
AcDbLine
 10
-76.9777670423
 20
1.4578380761
 30
0.0
 11
-76.9777670423
 21
15.4573380761
 31
0.0
  0
LINE
  5
FB
330
1F
100
AcDbEntity
  8
0
  6
Continuous
 62
     7
100
AcDbLine
 10
-76.9777670423
 20
15.4573380761
 30
0.0
 11
-77.9769670423
 21
15.4573380761
 31
0.0
  0
LINE
  5
FC
330
1F
100
AcDbEntity
  8
0
  6
Continuous
 62
     7
100
AcDbLine
 10
-77.9769670423
 20
15.4573380761
 30
0.0
 11
-77.9769670423
 21
16.2580380761
 31
0.0
  0
LINE
  5
FD
330
1F
100
AcDbEntity
  8
0
  6
Continuous
 62
     7
100
AcDbLine
 10
-77.9769670423
 20
16.2580380761
 30
0.0
 11
-81.0774670423
 21
16.2580380761
 31
0.0
  0
LINE
  5
FE
330
1F
100
AcDbEntity
  8
0
  6
Continuous
 62
     7
100
AcDbLine
 10
-81.0774670423
 20
16.2580380761
 30
0.0
 11
-81.0774670423
 21
15.4573380761
 31
0.0
  0
LINE
  5
FF
330
1F
100
AcDbEntity
  8
0
  6
Continuous
 62
     7
100
AcDbLine
 10
-81.0774670423
 20
15.4573380761
 30
0.0
 11
-81.6769670423
 21
15.4573380761
 31
0.0
  0
LINE
  5
100
330
1F
100
AcDbEntity
  8
0
  6
Continuous
 62
     7
100
AcDbLine
 10
-81.6769670423
 20
15.4573380761
 30
0.0
 11
-81.6769670423
 21
16.9828380761
 31
0.0
  0
LINE
  5
101
330
1F
100
AcDbEntity
  8
0
  6
Continuous
 62
     7
100
AcDbLine
 10
-81.6769670423
 20
16.9828380761
 30
0.0
 11
-78.4468670423
 21
16.9828380761
 31
0.0
  0
LINE
  5
102
330
1F
100
AcDbEntity
  8
0
  6
Continuous
 62
     7
100
AcDbLine
 10
-78.4468670423
 20
16.9828380761
 30
0.0
 11
-78.4468670423
 21
18.7081380761
 31
0.0
  0
LINE
  5
103
330
1F
100
AcDbEntity
  8
0
  6
Continuous
 62
     7
100
AcDbLine
 10
-78.4468670423
 20
18.7081380761
 30
0.0
 11
-77.5276670423
 21
18.7081380761
 31
0.0
  0
LINE
  5
104
330
1F
100
AcDbEntity
  8
0
  6
Continuous
 62
     7
100
AcDbLine
 10
-77.5276670423
 20
18.7081380761
 30
0.0
 11
-77.5276670423
 21
22.0071380761
 31
0.0
  0
LINE
  5
105
330
1F
100
AcDbEntity
  8
0
  6
Continuous
 62
     7
100
AcDbLine
 10
-77.5276670423
 20
22.0071380761
 30
0.0
 11
-78.4468670423
 21
22.0071380761
 31
0.0
  0
LINE
  5
106
330
1F
100
AcDbEntity
  8
0
  6
Continuous
 62
     7
100
AcDbLine
 10
-78.4468670423
 20
22.0071380761
 30
0.0
 11
-78.4468670423
 21
23.7325380761
 31
0.0
  0
LINE
  5
107
330
1F
100
AcDbEntity
  8
0
  6
Continuous
 62
     7
100
AcDbLine
 10
-78.4468670423
 20
23.7325380761
 30
0.0
 11
-81.6769670423
 21
23.7325380761
 31
0.0
  0
LINE
  5
108
330
1F
100
AcDbEntity
  8
0
  6
Continuous
 62
     7
100
AcDbLine
 10
-81.6769670423
 20
23.7325380761
 30
0.0
 11
-81.6769670423
 21
24.5579380761
 31
0.0
  0
LINE
  5
109
330
1F
100
AcDbEntity
  8
0
  6
Continuous
 62
     7
100
AcDbLine
 10
-81.6769670423
 20
24.5579380761
 30
0.0
 11
-84.4784770423
 21
24.5579380761
 31
0.0
  0
LINE
  5
10A
330
1F
100
AcDbEntity
  8
0
  6
Continuous
 62
     7
100
AcDbLine
 10
-71.9272670423
 20
24.9822380761
 30
0.0
 11
-71.9272670423
 21
23.9819380761
 31
0.0
  0
LINE
  5
10B
330
1F
100
AcDbEntity
  8
0
  6
Continuous
 62
     7
100
AcDbLine
 10
-71.9272670423
 20
23.9819380761
 30
0.0
 11
-72.7279670423
 21
23.9819380761
 31
0.0
  0
LINE
  5
10C
330
1F
100
AcDbEntity
  8
0
  6
Continuous
 62
     7
100
AcDbLine
 10
-72.7279670423
 20
23.9819380761
 30
0.0
 11
-72.7279670423
 21
20.8840380761
 31
0.0
  0
LINE
  5
10D
330
1F
100
AcDbEntity
  8
0
  6
Continuous
 62
     7
100
AcDbLine
 10
-72.7279670423
 20
20.8840380761
 30
0.0
 11
-71.9272670423
 21
20.8840380761
 31
0.0
  0
LINE
  5
10E
330
1F
100
AcDbEntity
  8
0
  6
Continuous
 62
     7
100
AcDbLine
 10
-71.9272670423
 20
20.8840380761
 30
0.0
 11
-71.9272670423
 21
15.0825380761
 31
0.0
  0
LINE
  5
10F
330
1F
100
AcDbEntity
  8
0
  6
Continuous
 62
     7
100
AcDbLine
 10
-71.9272670423
 20
15.0825380761
 30
0.0
 11
-72.7279670423
 21
15.0825380761
 31
0.0
  0
LINE
  5
110
330
1F
100
AcDbEntity
  8
0
  6
Continuous
 62
     7
100
AcDbLine
 10
-72.7279670423
 20
15.0825380761
 30
0.0
 11
-72.7279670423
 21
11.9819380761
 31
0.0
  0
LINE
  5
111
330
1F
100
AcDbEntity
  8
0
  6
Continuous
 62
     7
100
AcDbLine
 10
-72.7279670423
 20
11.9819380761
 30
0.0
 11
-71.9272670423
 21
11.9819380761
 31
0.0
  0
LINE
  5
112
330
1F
100
AcDbEntity
  8
0
  6
Continuous
 62
     7
100
AcDbLine
 10
-71.9272670423
 20
11.9819380761
 30
0.0
 11
-71.9272670423
 21
10.9828380761
 31
0.0
  0
LINE
  5
113
330
1F
100
AcDbEntity
  8
0
  6
Continuous
 62
     7
100
AcDbLine
 10
-71.9272670423
 20
10.9828380761
 30
0.0
 11
-57.9279670423
 21
10.9828380761
 31
0.0
  0
LINE
  5
114
330
1F
100
AcDbEntity
  8
0
  6
Continuous
 62
     7
100
AcDbLine
 10
-57.9279670423
 20
10.9828380761
 30
0.0
 11
-57.9279670423
 21
11.9819380761
 31
0.0
  0
LINE
  5
115
330
1F
100
AcDbEntity
  8
0
  6
Continuous
 62
     7
100
AcDbLine
 10
-57.9279670423
 20
11.9819380761
 30
0.0
 11
-57.1271670423
 21
11.9819380761
 31
0.0
  0
LINE
  5
116
330
1F
100
AcDbEntity
  8
0
  6
Continuous
 62
     7
100
AcDbLine
 10
-57.1271670423
 20
11.9819380761
 30
0.0
 11
-57.1271670423
 21
15.0825380761
 31
0.0
  0
LINE
  5
117
330
1F
100
AcDbEntity
  8
0
  6
Continuous
 62
     7
100
AcDbLine
 10
-57.1271670423
 20
15.0825380761
 30
0.0
 11
-57.9279670423
 21
15.0825380761
 31
0.0
  0
LINE
  5
118
330
1F
100
AcDbEntity
  8
0
  6
Continuous
 62
     7
100
AcDbLine
 10
-57.9279670423
 20
15.0825380761
 30
0.0
 11
-57.9279670423
 21
20.8840380761
 31
0.0
  0
LINE
  5
119
330
1F
100
AcDbEntity
  8
0
  6
Continuous
 62
     7
100
AcDbLine
 10
-57.9279670423
 20
20.8840380761
 30
0.0
 11
-57.1271670423
 21
20.8840380761
 31
0.0
  0
LINE
  5
11A
330
1F
100
AcDbEntity
  8
0
  6
Continuous
 62
     7
100
AcDbLine
 10
-57.1271670423
 20
20.8840380761
 30
0.0
 11
-57.1271670423
 21
23.9819380761
 31
0.0
  0
LINE
  5
11B
330
1F
100
AcDbEntity
  8
0
  6
Continuous
 62
     7
100
AcDbLine
 10
-57.1271670423
 20
23.9819380761
 30
0.0
 11
-57.9279670423
 21
23.9819380761
 31
0.0
  0
LINE
  5
11C
330
1F
100
AcDbEntity
  8
0
  6
Continuous
 62
     7
100
AcDbLine
 10
-57.9279670423
 20
23.9819380761
 30
0.0
 11
-57.9279670423
 21
24.9822380761
 31
0.0
  0
LINE
  5
11D
330
1F
100
AcDbEntity
  8
0
  6
Continuous
 62
     7
100
AcDbLine
 10
-57.9279670423
 20
24.9822380761
 30
0.0
 11
-71.9272670423
 21
24.9822380761
 31
0.0
  0
LINE
  5
11E
330
1F
100
AcDbEntity
  8
0
  6
Continuous
 62
     7
100
AcDbLine
 10
-52.8772670423
 20
24.9822380761
 30
0.0
 11
-52.8772670423
 21
23.9819380761
 31
0.0
  0
LINE
  5
11F
330
1F
100
AcDbEntity
  8
0
  6
Continuous
 62
     7
100
AcDbLine
 10
-52.8772670423
 20
23.9819380761
 30
0.0
 11
-53.6780670423
 21
23.9819380761
 31
0.0
  0
LINE
  5
120
330
1F
100
AcDbEntity
  8
0
  6
Continuous
 62
     7
100
AcDbLine
 10
-53.6780670423
 20
23.9819380761
 30
0.0
 11
-53.6780670423
 21
20.8840380761
 31
0.0
  0
LINE
  5
121
330
1F
100
AcDbEntity
  8
0
  6
Continuous
 62
     7
100
AcDbLine
 10
-53.6780670423
 20
20.8840380761
 30
0.0
 11
-52.8772670423
 21
20.8840380761
 31
0.0
  0
LINE
  5
122
330
1F
100
AcDbEntity
  8
0
  6
Continuous
 62
     7
100
AcDbLine
 10
-52.8772670423
 20
20.8840380761
 30
0.0
 11
-52.8772670423
 21
15.0825380761
 31
0.0
  0
LINE
  5
123
330
1F
100
AcDbEntity
  8
0
  6
Continuous
 62
     7
100
AcDbLine
 10
-52.8772670423
 20
15.0825380761
 30
0.0
 11
-53.6780670423
 21
15.0825380761
 31
0.0
  0
LINE
  5
124
330
1F
100
AcDbEntity
  8
0
  6
Continuous
 62
     7
100
AcDbLine
 10
-53.6780670423
 20
15.0825380761
 30
0.0
 11
-53.6780670423
 21
11.9819380761
 31
0.0
  0
LINE
  5
125
330
1F
100
AcDbEntity
  8
0
  6
Continuous
 62
     7
100
AcDbLine
 10
-53.6780670423
 20
11.9819380761
 30
0.0
 11
-52.8772670423
 21
11.9819380761
 31
0.0
  0
LINE
  5
126
330
1F
100
AcDbEntity
  8
0
  6
Continuous
 62
     7
100
AcDbLine
 10
-52.8772670423
 20
11.9819380761
 30
0.0
 11
-52.8772670423
 21
10.9828380761
 31
0.0
  0
LINE
  5
127
330
1F
100
AcDbEntity
  8
0
  6
Continuous
 62
     7
100
AcDbLine
 10
-52.8772670423
 20
10.9828380761
 30
0.0
 11
-38.8779670423
 21
10.9828380761
 31
0.0
  0
LINE
  5
128
330
1F
100
AcDbEntity
  8
0
  6
Continuous
 62
     7
100
AcDbLine
 10
-38.8779670423
 20
10.9828380761
 30
0.0
 11
-38.8779670423
 21
11.9819380761
 31
0.0
  0
LINE
  5
129
330
1F
100
AcDbEntity
  8
0
  6
Continuous
 62
     7
100
AcDbLine
 10
-38.8779670423
 20
11.9819380761
 30
0.0
 11
-38.0771670423
 21
11.9819380761
 31
0.0
  0
LINE
  5
12A
330
1F
100
AcDbEntity
  8
0
  6
Continuous
 62
     7
100
AcDbLine
 10
-38.0771670423
 20
11.9819380761
 30
0.0
 11
-38.0771670423
 21
15.0825380761
 31
0.0
  0
LINE
  5
12B
330
1F
100
AcDbEntity
  8
0
  6
Continuous
 62
     7
100
AcDbLine
 10
-38.0771670423
 20
15.0825380761
 30
0.0
 11
-38.8779670423
 21
15.0825380761
 31
0.0
  0
LINE
  5
12C
330
1F
100
AcDbEntity
  8
0
  6
Continuous
 62
     7
100
AcDbLine
 10
-38.8779670423
 20
15.0825380761
 30
0.0
 11
-38.8779670423
 21
20.8840380761
 31
0.0
  0
LINE
  5
12D
330
1F
100
AcDbEntity
  8
0
  6
Continuous
 62
     7
100
AcDbLine
 10
-38.8779670423
 20
20.8840380761
 30
0.0
 11
-38.0771670423
 21
20.8840380761
 31
0.0
  0
LINE
  5
12E
330
1F
100
AcDbEntity
  8
0
  6
Continuous
 62
     7
100
AcDbLine
 10
-38.0771670423
 20
20.8840380761
 30
0.0
 11
-38.0771670423
 21
23.9819380761
 31
0.0
  0
LINE
  5
12F
330
1F
100
AcDbEntity
  8
0
  6
Continuous
 62
     7
100
AcDbLine
 10
-38.0771670423
 20
23.9819380761
 30
0.0
 11
-38.8779670423
 21
23.9819380761
 31
0.0
  0
LINE
  5
130
330
1F
100
AcDbEntity
  8
0
  6
Continuous
 62
     7
100
AcDbLine
 10
-38.8779670423
 20
23.9819380761
 30
0.0
 11
-38.8779670423
 21
24.9822380761
 31
0.0
  0
LINE
  5
131
330
1F
100
AcDbEntity
  8
0
  6
Continuous
 62
     7
100
AcDbLine
 10
-38.8779670423
 20
24.9822380761
 30
0.0
 11
-52.8772670423
 21
24.9822380761
 31
0.0
  0
LINE
  5
132
330
1F
100
AcDbEntity
  8
0
  6
Continuous
 62
     7
100
AcDbLine
 10
-33.8272670423
 20
24.9822380761
 30
0.0
 11
-33.8272670423
 21
23.9819380761
 31
0.0
  0
LINE
  5
133
330
1F
100
AcDbEntity
  8
0
  6
Continuous
 62
     7
100
AcDbLine
 10
-33.8272670423
 20
23.9819380761
 30
0.0
 11
-34.6280670423
 21
23.9819380761
 31
0.0
  0
LINE
  5
134
330
1F
100
AcDbEntity
  8
0
  6
Continuous
 62
     7
100
AcDbLine
 10
-34.6280670423
 20
23.9819380761
 30
0.0
 11
-34.6280670423
 21
20.8840380761
 31
0.0
  0
LINE
  5
135
330
1F
100
AcDbEntity
  8
0
  6
Continuous
 62
     7
100
AcDbLine
 10
-34.6280670423
 20
20.8840380761
 30
0.0
 11
-33.8272670423
 21
20.8840380761
 31
0.0
  0
LINE
  5
136
330
1F
100
AcDbEntity
  8
0
  6
Continuous
 62
     7
100
AcDbLine
 10
-33.8272670423
 20
20.8840380761
 30
0.0
 11
-33.8272670423
 21
15.0825380761
 31
0.0
  0
LINE
  5
137
330
1F
100
AcDbEntity
  8
0
  6
Continuous
 62
     7
100
AcDbLine
 10
-33.8272670423
 20
15.0825380761
 30
0.0
 11
-34.6280670423
 21
15.0825380761
 31
0.0
  0
LINE
  5
138
330
1F
100
AcDbEntity
  8
0
  6
Continuous
 62
     7
100
AcDbLine
 10
-34.6280670423
 20
15.0825380761
 30
0.0
 11
-34.6280670423
 21
11.9819380761
 31
0.0
  0
LINE
  5
139
330
1F
100
AcDbEntity
  8
0
  6
Continuous
 62
     7
100
AcDbLine
 10
-34.6280670423
 20
11.9819380761
 30
0.0
 11
-33.8272670423
 21
11.9819380761
 31
0.0
  0
LINE
  5
13A
330
1F
100
AcDbEntity
  8
0
  6
Continuous
 62
     7
100
AcDbLine
 10
-33.8272670423
 20
11.9819380761
 30
0.0
 11
-33.8272670423
 21
10.9828380761
 31
0.0
  0
LINE
  5
13B
330
1F
100
AcDbEntity
  8
0
  6
Continuous
 62
     7
100
AcDbLine
 10
-33.8272670423
 20
10.9828380761
 30
0.0
 11
-19.8279670423
 21
10.9828380761
 31
0.0
  0
LINE
  5
13C
330
1F
100
AcDbEntity
  8
0
  6
Continuous
 62
     7
100
AcDbLine
 10
-19.8279670423
 20
10.9828380761
 30
0.0
 11
-19.8279670423
 21
11.9819380761
 31
0.0
  0
LINE
  5
13D
330
1F
100
AcDbEntity
  8
0
  6
Continuous
 62
     7
100
AcDbLine
 10
-19.8279670423
 20
11.9819380761
 30
0.0
 11
-19.0271670423
 21
11.9819380761
 31
0.0
  0
LINE
  5
13E
330
1F
100
AcDbEntity
  8
0
  6
Continuous
 62
     7
100
AcDbLine
 10
-19.0271670423
 20
11.9819380761
 30
0.0
 11
-19.0271670423
 21
15.0825380761
 31
0.0
  0
LINE
  5
13F
330
1F
100
AcDbEntity
  8
0
  6
Continuous
 62
     7
100
AcDbLine
 10
-19.0271670423
 20
15.0825380761
 30
0.0
 11
-19.8279670423
 21
15.0825380761
 31
0.0
  0
LINE
  5
140
330
1F
100
AcDbEntity
  8
0
  6
Continuous
 62
     7
100
AcDbLine
 10
-19.8279670423
 20
15.0825380761
 30
0.0
 11
-19.8279670423
 21
20.8840380761
 31
0.0
  0
LINE
  5
141
330
1F
100
AcDbEntity
  8
0
  6
Continuous
 62
     7
100
AcDbLine
 10
-19.8279670423
 20
20.8840380761
 30
0.0
 11
-19.0271670423
 21
20.8840380761
 31
0.0
  0
LINE
  5
142
330
1F
100
AcDbEntity
  8
0
  6
Continuous
 62
     7
100
AcDbLine
 10
-19.0271670423
 20
20.8840380761
 30
0.0
 11
-19.0271670423
 21
23.9819380761
 31
0.0
  0
LINE
  5
143
330
1F
100
AcDbEntity
  8
0
  6
Continuous
 62
     7
100
AcDbLine
 10
-19.0271670423
 20
23.9819380761
 30
0.0
 11
-19.8279670423
 21
23.9819380761
 31
0.0
  0
LINE
  5
144
330
1F
100
AcDbEntity
  8
0
  6
Continuous
 62
     7
100
AcDbLine
 10
-19.8279670423
 20
23.9819380761
 30
0.0
 11
-19.8279670423
 21
24.9822380761
 31
0.0
  0
LINE
  5
145
330
1F
100
AcDbEntity
  8
0
  6
Continuous
 62
     7
100
AcDbLine
 10
-19.8279670423
 20
24.9822380761
 30
0.0
 11
-33.8272670423
 21
24.9822380761
 31
0.0
  0
LINE
  5
146
330
1F
100
AcDbEntity
  8
0
  6
Continuous
 62
     7
100
AcDbLine
 10
-14.7772670423
 20
24.9822380761
 30
0.0
 11
-14.7772670423
 21
23.9819380761
 31
0.0
  0
LINE
  5
147
330
1F
100
AcDbEntity
  8
0
  6
Continuous
 62
     7
100
AcDbLine
 10
-14.7772670423
 20
23.9819380761
 30
0.0
 11
-15.5780670423
 21
23.9819380761
 31
0.0
  0
LINE
  5
148
330
1F
100
AcDbEntity
  8
0
  6
Continuous
 62
     7
100
AcDbLine
 10
-15.5780670423
 20
23.9819380761
 30
0.0
 11
-15.5780670423
 21
20.8840380761
 31
0.0
  0
LINE
  5
149
330
1F
100
AcDbEntity
  8
0
  6
Continuous
 62
     7
100
AcDbLine
 10
-15.5780670423
 20
20.8840380761
 30
0.0
 11
-14.7772670423
 21
20.8840380761
 31
0.0
  0
LINE
  5
14A
330
1F
100
AcDbEntity
  8
0
  6
Continuous
 62
     7
100
AcDbLine
 10
-14.7772670423
 20
20.8840380761
 30
0.0
 11
-14.7772670423
 21
15.0825380761
 31
0.0
  0
LINE
  5
14B
330
1F
100
AcDbEntity
  8
0
  6
Continuous
 62
     7
100
AcDbLine
 10
-14.7772670423
 20
15.0825380761
 30
0.0
 11
-15.5780670423
 21
15.0825380761
 31
0.0
  0
LINE
  5
14C
330
1F
100
AcDbEntity
  8
0
  6
Continuous
 62
     7
100
AcDbLine
 10
-15.5780670423
 20
15.0825380761
 30
0.0
 11
-15.5780670423
 21
11.9819380761
 31
0.0
  0
LINE
  5
14D
330
1F
100
AcDbEntity
  8
0
  6
Continuous
 62
     7
100
AcDbLine
 10
-15.5780670423
 20
11.9819380761
 30
0.0
 11
-14.7772670423
 21
11.9819380761
 31
0.0
  0
LINE
  5
14E
330
1F
100
AcDbEntity
  8
0
  6
Continuous
 62
     7
100
AcDbLine
 10
-14.7772670423
 20
11.9819380761
 30
0.0
 11
-14.7772670423
 21
10.9828380761
 31
0.0
  0
LINE
  5
14F
330
1F
100
AcDbEntity
  8
0
  6
Continuous
 62
     7
100
AcDbLine
 10
-14.7772670423
 20
10.9828380761
 30
0.0
 11
-0.7779670423
 21
10.9828380761
 31
0.0
  0
LINE
  5
150
330
1F
100
AcDbEntity
  8
0
  6
Continuous
 62
     7
100
AcDbLine
 10
-0.7779670423
 20
10.9828380761
 30
0.0
 11
-0.7779670423
 21
11.9819380761
 31
0.0
  0
LINE
  5
151
330
1F
100
AcDbEntity
  8
0
  6
Continuous
 62
     7
100
AcDbLine
 10
-0.7779670423
 20
11.9819380761
 30
0.0
 11
0.0214329577
 21
11.9819380761
 31
0.0
  0
LINE
  5
152
330
1F
100
AcDbEntity
  8
0
  6
Continuous
 62
     7
100
AcDbLine
 10
0.0214329577
 20
11.9819380761
 30
0.0
 11
0.0214329577
 21
15.0825380761
 31
0.0
  0
LINE
  5
153
330
1F
100
AcDbEntity
  8
0
  6
Continuous
 62
     7
100
AcDbLine
 10
0.0214329577
 20
15.0825380761
 30
0.0
 11
-0.7779670423
 21
15.0825380761
 31
0.0
  0
LINE
  5
154
330
1F
100
AcDbEntity
  8
0
  6
Continuous
 62
     7
100
AcDbLine
 10
-0.7779670423
 20
15.0825380761
 30
0.0
 11
-0.7779670423
 21
20.8840380761
 31
0.0
  0
LINE
  5
155
330
1F
100
AcDbEntity
  8
0
  6
Continuous
 62
     7
100
AcDbLine
 10
-0.7779670423
 20
20.8840380761
 30
0.0
 11
0.0214329577
 21
20.8840380761
 31
0.0
  0
LINE
  5
156
330
1F
100
AcDbEntity
  8
0
  6
Continuous
 62
     7
100
AcDbLine
 10
0.0214329577
 20
20.8840380761
 30
0.0
 11
0.0214329577
 21
23.9819380761
 31
0.0
  0
LINE
  5
157
330
1F
100
AcDbEntity
  8
0
  6
Continuous
 62
     7
100
AcDbLine
 10
0.0214329577
 20
23.9819380761
 30
0.0
 11
-0.7779670423
 21
23.9819380761
 31
0.0
  0
LINE
  5
158
330
1F
100
AcDbEntity
  8
0
  6
Continuous
 62
     7
100
AcDbLine
 10
-0.7779670423
 20
23.9819380761
 30
0.0
 11
-0.7779670423
 21
24.9822380761
 31
0.0
  0
LINE
  5
159
330
1F
100
AcDbEntity
  8
0
  6
Continuous
 62
     7
100
AcDbLine
 10
-0.7779670423
 20
24.9822380761
 30
0.0
 11
-14.7772670423
 21
24.9822380761
 31
0.0
  0
LINE
  5
15A
330
1F
100
AcDbEntity
  8
0
  6
Continuous
 62
     7
100
AcDbLine
 10
-90.9773170423
 20
44.0323380761
 30
0.0
 11
-90.9773170423
 21
43.0318380761
 31
0.0
  0
LINE
  5
15B
330
1F
100
AcDbEntity
  8
0
  6
Continuous
 62
     7
100
AcDbLine
 10
-90.9773170423
 20
43.0318380761
 30
0.0
 11
-91.7779570423
 21
43.0318380761
 31
0.0
  0
LINE
  5
15C
330
1F
100
AcDbEntity
  8
0
  6
Continuous
 62
     7
100
AcDbLine
 10
-91.7779570423
 20
43.0318380761
 30
0.0
 11
-91.7779570423
 21
39.9326380761
 31
0.0
  0
LINE
  5
15D
330
1F
100
AcDbEntity
  8
0
  6
Continuous
 62
     7
100
AcDbLine
 10
-91.7779570423
 20
39.9326380761
 30
0.0
 11
-90.9773170423
 21
39.9326380761
 31
0.0
  0
LINE
  5
15E
330
1F
100
AcDbEntity
  8
0
  6
Continuous
 62
     7
100
AcDbLine
 10
-90.9773170423
 20
39.9326380761
 30
0.0
 11
-90.9773170423
 21
34.1326380761
 31
0.0
  0
LINE
  5
15F
330
1F
100
AcDbEntity
  8
0
  6
Continuous
 62
     7
100
AcDbLine
 10
-90.9773170423
 20
34.1326380761
 30
0.0
 11
-91.7779570423
 21
34.1326380761
 31
0.0
  0
LINE
  5
160
330
1F
100
AcDbEntity
  8
0
  6
Continuous
 62
     7
100
AcDbLine
 10
-91.7779570423
 20
34.1326380761
 30
0.0
 11
-91.7779570423
 21
31.0320380761
 31
0.0
  0
LINE
  5
161
330
1F
100
AcDbEntity
  8
0
  6
Continuous
 62
     7
100
AcDbLine
 10
-91.7779570423
 20
31.0320380761
 30
0.0
 11
-90.9773170423
 21
31.0320380761
 31
0.0
  0
LINE
  5
162
330
1F
100
AcDbEntity
  8
0
  6
Continuous
 62
     7
100
AcDbLine
 10
-90.9773170423
 20
31.0320380761
 30
0.0
 11
-90.9773170423
 21
30.0330380761
 31
0.0
  0
LINE
  5
163
330
1F
100
AcDbEntity
  8
0
  6
Continuous
 62
     7
100
AcDbLine
 10
-90.9773170423
 20
30.0330380761
 30
0.0
 11
-76.9777670423
 21
30.0330380761
 31
0.0
  0
LINE
  5
164
330
1F
100
AcDbEntity
  8
0
  6
Continuous
 62
     7
100
AcDbLine
 10
-76.9777670423
 20
30.0330380761
 30
0.0
 11
-76.9777670423
 21
31.0320380761
 31
0.0
  0
LINE
  5
165
330
1F
100
AcDbEntity
  8
0
  6
Continuous
 62
     7
100
AcDbLine
 10
-76.9777670423
 20
31.0320380761
 30
0.0
 11
-76.1771670423
 21
31.0320380761
 31
0.0
  0
LINE
  5
166
330
1F
100
AcDbEntity
  8
0
  6
Continuous
 62
     7
100
AcDbLine
 10
-76.1771670423
 20
31.0320380761
 30
0.0
 11
-76.1771670423
 21
34.1326380761
 31
0.0
  0
LINE
  5
167
330
1F
100
AcDbEntity
  8
0
  6
Continuous
 62
     7
100
AcDbLine
 10
-76.1771670423
 20
34.1326380761
 30
0.0
 11
-76.9777670423
 21
34.1326380761
 31
0.0
  0
LINE
  5
168
330
1F
100
AcDbEntity
  8
0
  6
Continuous
 62
     7
100
AcDbLine
 10
-76.9777670423
 20
34.1326380761
 30
0.0
 11
-76.9777670423
 21
39.9326380761
 31
0.0
  0
LINE
  5
169
330
1F
100
AcDbEntity
  8
0
  6
Continuous
 62
     7
100
AcDbLine
 10
-76.9777670423
 20
39.9326380761
 30
0.0
 11
-76.1771670423
 21
39.9326380761
 31
0.0
  0
LINE
  5
16A
330
1F
100
AcDbEntity
  8
0
  6
Continuous
 62
     7
100
AcDbLine
 10
-76.1771670423
 20
39.9326380761
 30
0.0
 11
-76.1771670423
 21
43.0318380761
 31
0.0
  0
LINE
  5
16B
330
1F
100
AcDbEntity
  8
0
  6
Continuous
 62
     7
100
AcDbLine
 10
-76.1771670423
 20
43.0318380761
 30
0.0
 11
-76.9777670423
 21
43.0318380761
 31
0.0
  0
LINE
  5
16C
330
1F
100
AcDbEntity
  8
0
  6
Continuous
 62
     7
100
AcDbLine
 10
-76.9777670423
 20
43.0318380761
 30
0.0
 11
-76.9777670423
 21
44.0323380761
 31
0.0
  0
LINE
  5
16D
330
1F
100
AcDbEntity
  8
0
  6
Continuous
 62
     7
100
AcDbLine
 10
-76.9777670423
 20
44.0323380761
 30
0.0
 11
-90.9773170423
 21
44.0323380761
 31
0.0
  0
LINE
  5
16E
330
1F
100
AcDbEntity
  8
0
  6
Continuous
 62
     7
100
AcDbLine
 10
-71.9272670423
 20
44.0323380761
 30
0.0
 11
-71.9272670423
 21
43.0318380761
 31
0.0
  0
LINE
  5
16F
330
1F
100
AcDbEntity
  8
0
  6
Continuous
 62
     7
100
AcDbLine
 10
-71.9272670423
 20
43.0318380761
 30
0.0
 11
-72.7279670423
 21
43.0318380761
 31
0.0
  0
LINE
  5
170
330
1F
100
AcDbEntity
  8
0
  6
Continuous
 62
     7
100
AcDbLine
 10
-72.7279670423
 20
43.0318380761
 30
0.0
 11
-72.7279670423
 21
39.9326380761
 31
0.0
  0
LINE
  5
171
330
1F
100
AcDbEntity
  8
0
  6
Continuous
 62
     7
100
AcDbLine
 10
-72.7279670423
 20
39.9326380761
 30
0.0
 11
-71.9272670423
 21
39.9326380761
 31
0.0
  0
LINE
  5
172
330
1F
100
AcDbEntity
  8
0
  6
Continuous
 62
     7
100
AcDbLine
 10
-71.9272670423
 20
39.9326380761
 30
0.0
 11
-71.9272670423
 21
34.1326380761
 31
0.0
  0
LINE
  5
173
330
1F
100
AcDbEntity
  8
0
  6
Continuous
 62
     7
100
AcDbLine
 10
-71.9272670423
 20
34.1326380761
 30
0.0
 11
-72.7279670423
 21
34.1326380761
 31
0.0
  0
LINE
  5
174
330
1F
100
AcDbEntity
  8
0
  6
Continuous
 62
     7
100
AcDbLine
 10
-72.7279670423
 20
34.1326380761
 30
0.0
 11
-72.7279670423
 21
31.0320380761
 31
0.0
  0
LINE
  5
175
330
1F
100
AcDbEntity
  8
0
  6
Continuous
 62
     7
100
AcDbLine
 10
-72.7279670423
 20
31.0320380761
 30
0.0
 11
-71.9272670423
 21
31.0320380761
 31
0.0
  0
LINE
  5
176
330
1F
100
AcDbEntity
  8
0
  6
Continuous
 62
     7
100
AcDbLine
 10
-71.9272670423
 20
31.0320380761
 30
0.0
 11
-71.9272670423
 21
30.0330380761
 31
0.0
  0
LINE
  5
177
330
1F
100
AcDbEntity
  8
0
  6
Continuous
 62
     7
100
AcDbLine
 10
-71.9272670423
 20
30.0330380761
 30
0.0
 11
-57.9279670423
 21
30.0330380761
 31
0.0
  0
LINE
  5
178
330
1F
100
AcDbEntity
  8
0
  6
Continuous
 62
     7
100
AcDbLine
 10
-57.9279670423
 20
30.0330380761
 30
0.0
 11
-57.9279670423
 21
31.0320380761
 31
0.0
  0
LINE
  5
179
330
1F
100
AcDbEntity
  8
0
  6
Continuous
 62
     7
100
AcDbLine
 10
-57.9279670423
 20
31.0320380761
 30
0.0
 11
-57.1271670423
 21
31.0320380761
 31
0.0
  0
LINE
  5
17A
330
1F
100
AcDbEntity
  8
0
  6
Continuous
 62
     7
100
AcDbLine
 10
-57.1271670423
 20
31.0320380761
 30
0.0
 11
-57.1271670423
 21
34.1326380761
 31
0.0
  0
LINE
  5
17B
330
1F
100
AcDbEntity
  8
0
  6
Continuous
 62
     7
100
AcDbLine
 10
-57.1271670423
 20
34.1326380761
 30
0.0
 11
-57.9279670423
 21
34.1326380761
 31
0.0
  0
LINE
  5
17C
330
1F
100
AcDbEntity
  8
0
  6
Continuous
 62
     7
100
AcDbLine
 10
-57.9279670423
 20
34.1326380761
 30
0.0
 11
-57.9279670423
 21
39.9326380761
 31
0.0
  0
LINE
  5
17D
330
1F
100
AcDbEntity
  8
0
  6
Continuous
 62
     7
100
AcDbLine
 10
-57.9279670423
 20
39.9326380761
 30
0.0
 11
-57.1271670423
 21
39.9326380761
 31
0.0
  0
LINE
  5
17E
330
1F
100
AcDbEntity
  8
0
  6
Continuous
 62
     7
100
AcDbLine
 10
-57.1271670423
 20
39.9326380761
 30
0.0
 11
-57.1271670423
 21
43.0318380761
 31
0.0
  0
LINE
  5
17F
330
1F
100
AcDbEntity
  8
0
  6
Continuous
 62
     7
100
AcDbLine
 10
-57.1271670423
 20
43.0318380761
 30
0.0
 11
-57.9279670423
 21
43.0318380761
 31
0.0
  0
LINE
  5
180
330
1F
100
AcDbEntity
  8
0
  6
Continuous
 62
     7
100
AcDbLine
 10
-57.9279670423
 20
43.0318380761
 30
0.0
 11
-57.9279670423
 21
44.0323380761
 31
0.0
  0
LINE
  5
181
330
1F
100
AcDbEntity
  8
0
  6
Continuous
 62
     7
100
AcDbLine
 10
-57.9279670423
 20
44.0323380761
 30
0.0
 11
-71.9272670423
 21
44.0323380761
 31
0.0
  0
LINE
  5
182
330
1F
100
AcDbEntity
  8
0
  6
Continuous
 62
     7
100
AcDbLine
 10
-52.8772670423
 20
44.0323380761
 30
0.0
 11
-52.8772670423
 21
43.0318380761
 31
0.0
  0
LINE
  5
183
330
1F
100
AcDbEntity
  8
0
  6
Continuous
 62
     7
100
AcDbLine
 10
-52.8772670423
 20
43.0318380761
 30
0.0
 11
-53.6780670423
 21
43.0318380761
 31
0.0
  0
LINE
  5
184
330
1F
100
AcDbEntity
  8
0
  6
Continuous
 62
     7
100
AcDbLine
 10
-53.6780670423
 20
43.0318380761
 30
0.0
 11
-53.6780670423
 21
39.9326380761
 31
0.0
  0
LINE
  5
185
330
1F
100
AcDbEntity
  8
0
  6
Continuous
 62
     7
100
AcDbLine
 10
-53.6780670423
 20
39.9326380761
 30
0.0
 11
-52.8772670423
 21
39.9326380761
 31
0.0
  0
LINE
  5
186
330
1F
100
AcDbEntity
  8
0
  6
Continuous
 62
     7
100
AcDbLine
 10
-52.8772670423
 20
39.9326380761
 30
0.0
 11
-52.8772670423
 21
34.1326380761
 31
0.0
  0
LINE
  5
187
330
1F
100
AcDbEntity
  8
0
  6
Continuous
 62
     7
100
AcDbLine
 10
-52.8772670423
 20
34.1326380761
 30
0.0
 11
-53.6780670423
 21
34.1326380761
 31
0.0
  0
LINE
  5
188
330
1F
100
AcDbEntity
  8
0
  6
Continuous
 62
     7
100
AcDbLine
 10
-53.6780670423
 20
34.1326380761
 30
0.0
 11
-53.6780670423
 21
31.0320380761
 31
0.0
  0
LINE
  5
189
330
1F
100
AcDbEntity
  8
0
  6
Continuous
 62
     7
100
AcDbLine
 10
-53.6780670423
 20
31.0320380761
 30
0.0
 11
-52.8772670423
 21
31.0320380761
 31
0.0
  0
LINE
  5
18A
330
1F
100
AcDbEntity
  8
0
  6
Continuous
 62
     7
100
AcDbLine
 10
-52.8772670423
 20
31.0320380761
 30
0.0
 11
-52.8772670423
 21
30.0330380761
 31
0.0
  0
LINE
  5
18B
330
1F
100
AcDbEntity
  8
0
  6
Continuous
 62
     7
100
AcDbLine
 10
-52.8772670423
 20
30.0330380761
 30
0.0
 11
-38.8779670423
 21
30.0330380761
 31
0.0
  0
LINE
  5
18C
330
1F
100
AcDbEntity
  8
0
  6
Continuous
 62
     7
100
AcDbLine
 10
-38.8779670423
 20
30.0330380761
 30
0.0
 11
-38.8779670423
 21
31.0320380761
 31
0.0
  0
LINE
  5
18D
330
1F
100
AcDbEntity
  8
0
  6
Continuous
 62
     7
100
AcDbLine
 10
-38.8779670423
 20
31.0320380761
 30
0.0
 11
-38.0771670423
 21
31.0320380761
 31
0.0
  0
LINE
  5
18E
330
1F
100
AcDbEntity
  8
0
  6
Continuous
 62
     7
100
AcDbLine
 10
-38.0771670423
 20
31.0320380761
 30
0.0
 11
-38.0771670423
 21
34.1326380761
 31
0.0
  0
LINE
  5
18F
330
1F
100
AcDbEntity
  8
0
  6
Continuous
 62
     7
100
AcDbLine
 10
-38.0771670423
 20
34.1326380761
 30
0.0
 11
-38.8779670423
 21
34.1326380761
 31
0.0
  0
LINE
  5
190
330
1F
100
AcDbEntity
  8
0
  6
Continuous
 62
     7
100
AcDbLine
 10
-38.8779670423
 20
34.1326380761
 30
0.0
 11
-38.8779670423
 21
39.9326380761
 31
0.0
  0
LINE
  5
191
330
1F
100
AcDbEntity
  8
0
  6
Continuous
 62
     7
100
AcDbLine
 10
-38.8779670423
 20
39.9326380761
 30
0.0
 11
-38.0771670423
 21
39.9326380761
 31
0.0
  0
LINE
  5
192
330
1F
100
AcDbEntity
  8
0
  6
Continuous
 62
     7
100
AcDbLine
 10
-38.0771670423
 20
39.9326380761
 30
0.0
 11
-38.0771670423
 21
43.0318380761
 31
0.0
  0
LINE
  5
193
330
1F
100
AcDbEntity
  8
0
  6
Continuous
 62
     7
100
AcDbLine
 10
-38.0771670423
 20
43.0318380761
 30
0.0
 11
-38.8779670423
 21
43.0318380761
 31
0.0
  0
LINE
  5
194
330
1F
100
AcDbEntity
  8
0
  6
Continuous
 62
     7
100
AcDbLine
 10
-38.8779670423
 20
43.0318380761
 30
0.0
 11
-38.8779670423
 21
44.0323380761
 31
0.0
  0
LINE
  5
195
330
1F
100
AcDbEntity
  8
0
  6
Continuous
 62
     7
100
AcDbLine
 10
-38.8779670423
 20
44.0323380761
 30
0.0
 11
-52.8772670423
 21
44.0323380761
 31
0.0
  0
LINE
  5
196
330
1F
100
AcDbEntity
  8
0
  6
Continuous
 62
     7
100
AcDbLine
 10
-33.8272670423
 20
44.0323380761
 30
0.0
 11
-33.8272670423
 21
43.0318380761
 31
0.0
  0
LINE
  5
197
330
1F
100
AcDbEntity
  8
0
  6
Continuous
 62
     7
100
AcDbLine
 10
-33.8272670423
 20
43.0318380761
 30
0.0
 11
-34.6280670423
 21
43.0318380761
 31
0.0
  0
LINE
  5
198
330
1F
100
AcDbEntity
  8
0
  6
Continuous
 62
     7
100
AcDbLine
 10
-34.6280670423
 20
43.0318380761
 30
0.0
 11
-34.6280670423
 21
39.9326380761
 31
0.0
  0
LINE
  5
199
330
1F
100
AcDbEntity
  8
0
  6
Continuous
 62
     7
100
AcDbLine
 10
-34.6280670423
 20
39.9326380761
 30
0.0
 11
-33.8272670423
 21
39.9326380761
 31
0.0
  0
LINE
  5
19A
330
1F
100
AcDbEntity
  8
0
  6
Continuous
 62
     7
100
AcDbLine
 10
-33.8272670423
 20
39.9326380761
 30
0.0
 11
-33.8272670423
 21
34.1326380761
 31
0.0
  0
LINE
  5
19B
330
1F
100
AcDbEntity
  8
0
  6
Continuous
 62
     7
100
AcDbLine
 10
-33.8272670423
 20
34.1326380761
 30
0.0
 11
-34.6280670423
 21
34.1326380761
 31
0.0
  0
LINE
  5
19C
330
1F
100
AcDbEntity
  8
0
  6
Continuous
 62
     7
100
AcDbLine
 10
-34.6280670423
 20
34.1326380761
 30
0.0
 11
-34.6280670423
 21
31.0320380761
 31
0.0
  0
LINE
  5
19D
330
1F
100
AcDbEntity
  8
0
  6
Continuous
 62
     7
100
AcDbLine
 10
-34.6280670423
 20
31.0320380761
 30
0.0
 11
-33.8272670423
 21
31.0320380761
 31
0.0
  0
LINE
  5
19E
330
1F
100
AcDbEntity
  8
0
  6
Continuous
 62
     7
100
AcDbLine
 10
-33.8272670423
 20
31.0320380761
 30
0.0
 11
-33.8272670423
 21
30.0330380761
 31
0.0
  0
LINE
  5
19F
330
1F
100
AcDbEntity
  8
0
  6
Continuous
 62
     7
100
AcDbLine
 10
-33.8272670423
 20
30.0330380761
 30
0.0
 11
-19.8279670423
 21
30.0330380761
 31
0.0
  0
LINE
  5
1A0
330
1F
100
AcDbEntity
  8
0
  6
Continuous
 62
     7
100
AcDbLine
 10
-19.8279670423
 20
30.0330380761
 30
0.0
 11
-19.8279670423
 21
31.0320380761
 31
0.0
  0
LINE
  5
1A1
330
1F
100
AcDbEntity
  8
0
  6
Continuous
 62
     7
100
AcDbLine
 10
-19.8279670423
 20
31.0320380761
 30
0.0
 11
-19.0271670423
 21
31.0320380761
 31
0.0
  0
LINE
  5
1A2
330
1F
100
AcDbEntity
  8
0
  6
Continuous
 62
     7
100
AcDbLine
 10
-19.0271670423
 20
31.0320380761
 30
0.0
 11
-19.0271670423
 21
34.1326380761
 31
0.0
  0
LINE
  5
1A3
330
1F
100
AcDbEntity
  8
0
  6
Continuous
 62
     7
100
AcDbLine
 10
-19.0271670423
 20
34.1326380761
 30
0.0
 11
-19.8279670423
 21
34.1326380761
 31
0.0
  0
LINE
  5
1A4
330
1F
100
AcDbEntity
  8
0
  6
Continuous
 62
     7
100
AcDbLine
 10
-19.8279670423
 20
34.1326380761
 30
0.0
 11
-19.8279670423
 21
39.9326380761
 31
0.0
  0
LINE
  5
1A5
330
1F
100
AcDbEntity
  8
0
  6
Continuous
 62
     7
100
AcDbLine
 10
-19.8279670423
 20
39.9326380761
 30
0.0
 11
-19.0271670423
 21
39.9326380761
 31
0.0
  0
LINE
  5
1A6
330
1F
100
AcDbEntity
  8
0
  6
Continuous
 62
     7
100
AcDbLine
 10
-19.0271670423
 20
39.9326380761
 30
0.0
 11
-19.0271670423
 21
43.0318380761
 31
0.0
  0
LINE
  5
1A7
330
1F
100
AcDbEntity
  8
0
  6
Continuous
 62
     7
100
AcDbLine
 10
-19.0271670423
 20
43.0318380761
 30
0.0
 11
-19.8279670423
 21
43.0318380761
 31
0.0
  0
LINE
  5
1A8
330
1F
100
AcDbEntity
  8
0
  6
Continuous
 62
     7
100
AcDbLine
 10
-19.8279670423
 20
43.0318380761
 30
0.0
 11
-19.8279670423
 21
44.0323380761
 31
0.0
  0
LINE
  5
1A9
330
1F
100
AcDbEntity
  8
0
  6
Continuous
 62
     7
100
AcDbLine
 10
-19.8279670423
 20
44.0323380761
 30
0.0
 11
-33.8272670423
 21
44.0323380761
 31
0.0
  0
LINE
  5
1AA
330
1F
100
AcDbEntity
  8
0
  6
Continuous
 62
     7
100
AcDbLine
 10
-14.7772670423
 20
44.0323380761
 30
0.0
 11
-14.7772670423
 21
43.0318380761
 31
0.0
  0
LINE
  5
1AB
330
1F
100
AcDbEntity
  8
0
  6
Continuous
 62
     7
100
AcDbLine
 10
-14.7772670423
 20
43.0318380761
 30
0.0
 11
-15.5780670423
 21
43.0318380761
 31
0.0
  0
LINE
  5
1AC
330
1F
100
AcDbEntity
  8
0
  6
Continuous
 62
     7
100
AcDbLine
 10
-15.5780670423
 20
43.0318380761
 30
0.0
 11
-15.5780670423
 21
39.9326380761
 31
0.0
  0
LINE
  5
1AD
330
1F
100
AcDbEntity
  8
0
  6
Continuous
 62
     7
100
AcDbLine
 10
-15.5780670423
 20
39.9326380761
 30
0.0
 11
-14.7772670423
 21
39.9326380761
 31
0.0
  0
LINE
  5
1AE
330
1F
100
AcDbEntity
  8
0
  6
Continuous
 62
     7
100
AcDbLine
 10
-14.7772670423
 20
39.9326380761
 30
0.0
 11
-14.7772670423
 21
34.1326380761
 31
0.0
  0
LINE
  5
1AF
330
1F
100
AcDbEntity
  8
0
  6
Continuous
 62
     7
100
AcDbLine
 10
-14.7772670423
 20
34.1326380761
 30
0.0
 11
-15.5780670423
 21
34.1326380761
 31
0.0
  0
LINE
  5
1B0
330
1F
100
AcDbEntity
  8
0
  6
Continuous
 62
     7
100
AcDbLine
 10
-15.5780670423
 20
34.1326380761
 30
0.0
 11
-15.5780670423
 21
31.0320380761
 31
0.0
  0
LINE
  5
1B1
330
1F
100
AcDbEntity
  8
0
  6
Continuous
 62
     7
100
AcDbLine
 10
-15.5780670423
 20
31.0320380761
 30
0.0
 11
-14.7772670423
 21
31.0320380761
 31
0.0
  0
LINE
  5
1B2
330
1F
100
AcDbEntity
  8
0
  6
Continuous
 62
     7
100
AcDbLine
 10
-14.7772670423
 20
31.0320380761
 30
0.0
 11
-14.7772670423
 21
30.0330380761
 31
0.0
  0
LINE
  5
1B3
330
1F
100
AcDbEntity
  8
0
  6
Continuous
 62
     7
100
AcDbLine
 10
-14.7772670423
 20
30.0330380761
 30
0.0
 11
-0.7779670423
 21
30.0330380761
 31
0.0
  0
LINE
  5
1B4
330
1F
100
AcDbEntity
  8
0
  6
Continuous
 62
     7
100
AcDbLine
 10
-0.7779670423
 20
30.0330380761
 30
0.0
 11
-0.7779670423
 21
31.0320380761
 31
0.0
  0
LINE
  5
1B5
330
1F
100
AcDbEntity
  8
0
  6
Continuous
 62
     7
100
AcDbLine
 10
-0.7779670423
 20
31.0320380761
 30
0.0
 11
0.0214329577
 21
31.0320380761
 31
0.0
  0
LINE
  5
1B6
330
1F
100
AcDbEntity
  8
0
  6
Continuous
 62
     7
100
AcDbLine
 10
0.0214329577
 20
31.0320380761
 30
0.0
 11
0.0214329577
 21
34.1326380761
 31
0.0
  0
LINE
  5
1B7
330
1F
100
AcDbEntity
  8
0
  6
Continuous
 62
     7
100
AcDbLine
 10
0.0214329577
 20
34.1326380761
 30
0.0
 11
-0.7779670423
 21
34.1326380761
 31
0.0
  0
LINE
  5
1B8
330
1F
100
AcDbEntity
  8
0
  6
Continuous
 62
     7
100
AcDbLine
 10
-0.7779670423
 20
34.1326380761
 30
0.0
 11
-0.7779670423
 21
39.9326380761
 31
0.0
  0
LINE
  5
1B9
330
1F
100
AcDbEntity
  8
0
  6
Continuous
 62
     7
100
AcDbLine
 10
-0.7779670423
 20
39.9326380761
 30
0.0
 11
0.0214329577
 21
39.9326380761
 31
0.0
  0
LINE
  5
1BA
330
1F
100
AcDbEntity
  8
0
  6
Continuous
 62
     7
100
AcDbLine
 10
0.0214329577
 20
39.9326380761
 30
0.0
 11
0.0214329577
 21
43.0318380761
 31
0.0
  0
LINE
  5
1BB
330
1F
100
AcDbEntity
  8
0
  6
Continuous
 62
     7
100
AcDbLine
 10
0.0214329577
 20
43.0318380761
 30
0.0
 11
-0.7779670423
 21
43.0318380761
 31
0.0
  0
LINE
  5
1BC
330
1F
100
AcDbEntity
  8
0
  6
Continuous
 62
     7
100
AcDbLine
 10
-0.7779670423
 20
43.0318380761
 30
0.0
 11
-0.7779670423
 21
44.0323380761
 31
0.0
  0
LINE
  5
1BD
330
1F
100
AcDbEntity
  8
0
  6
Continuous
 62
     7
100
AcDbLine
 10
-0.7779670423
 20
44.0323380761
 30
0.0
 11
-14.7772670423
 21
44.0323380761
 31
0.0
  0
LINE
  5
1BE
330
1F
100
AcDbEntity
  8
0
  6
Continuous
 62
     7
100
AcDbLine
 10
-90.9773170423
 20
63.0823380761
 30
0.0
 11
-90.9773170423
 21
62.0818380761
 31
0.0
  0
LINE
  5
1BF
330
1F
100
AcDbEntity
  8
0
  6
Continuous
 62
     7
100
AcDbLine
 10
-90.9773170423
 20
62.0818380761
 30
0.0
 11
-91.7779570423
 21
62.0818380761
 31
0.0
  0
LINE
  5
1C0
330
1F
100
AcDbEntity
  8
0
  6
Continuous
 62
     7
100
AcDbLine
 10
-91.7779570423
 20
62.0818380761
 30
0.0
 11
-91.7779570423
 21
58.9826380761
 31
0.0
  0
LINE
  5
1C1
330
1F
100
AcDbEntity
  8
0
  6
Continuous
 62
     7
100
AcDbLine
 10
-91.7779570423
 20
58.9826380761
 30
0.0
 11
-90.9773170423
 21
58.9826380761
 31
0.0
  0
LINE
  5
1C2
330
1F
100
AcDbEntity
  8
0
  6
Continuous
 62
     7
100
AcDbLine
 10
-90.9773170423
 20
58.9826380761
 30
0.0
 11
-90.9773170423
 21
53.1826380761
 31
0.0
  0
LINE
  5
1C3
330
1F
100
AcDbEntity
  8
0
  6
Continuous
 62
     7
100
AcDbLine
 10
-90.9773170423
 20
53.1826380761
 30
0.0
 11
-91.7779570423
 21
53.1826380761
 31
0.0
  0
LINE
  5
1C4
330
1F
100
AcDbEntity
  8
0
  6
Continuous
 62
     7
100
AcDbLine
 10
-91.7779570423
 20
53.1826380761
 30
0.0
 11
-91.7779570423
 21
50.0820380761
 31
0.0
  0
LINE
  5
1C5
330
1F
100
AcDbEntity
  8
0
  6
Continuous
 62
     7
100
AcDbLine
 10
-91.7779570423
 20
50.0820380761
 30
0.0
 11
-90.9773170423
 21
50.0820380761
 31
0.0
  0
LINE
  5
1C6
330
1F
100
AcDbEntity
  8
0
  6
Continuous
 62
     7
100
AcDbLine
 10
-90.9773170423
 20
50.0820380761
 30
0.0
 11
-90.9773170423
 21
49.0830380761
 31
0.0
  0
LINE
  5
1C7
330
1F
100
AcDbEntity
  8
0
  6
Continuous
 62
     7
100
AcDbLine
 10
-90.9773170423
 20
49.0830380761
 30
0.0
 11
-76.9777670423
 21
49.0830380761
 31
0.0
  0
LINE
  5
1C8
330
1F
100
AcDbEntity
  8
0
  6
Continuous
 62
     7
100
AcDbLine
 10
-76.9777670423
 20
49.0830380761
 30
0.0
 11
-76.9777670423
 21
50.0820380761
 31
0.0
  0
LINE
  5
1C9
330
1F
100
AcDbEntity
  8
0
  6
Continuous
 62
     7
100
AcDbLine
 10
-76.9777670423
 20
50.0820380761
 30
0.0
 11
-76.1771670423
 21
50.0820380761
 31
0.0
  0
LINE
  5
1CA
330
1F
100
AcDbEntity
  8
0
  6
Continuous
 62
     7
100
AcDbLine
 10
-76.1771670423
 20
50.0820380761
 30
0.0
 11
-76.1771670423
 21
53.1826380761
 31
0.0
  0
LINE
  5
1CB
330
1F
100
AcDbEntity
  8
0
  6
Continuous
 62
     7
100
AcDbLine
 10
-76.1771670423
 20
53.1826380761
 30
0.0
 11
-76.9777670423
 21
53.1826380761
 31
0.0
  0
LINE
  5
1CC
330
1F
100
AcDbEntity
  8
0
  6
Continuous
 62
     7
100
AcDbLine
 10
-76.9777670423
 20
53.1826380761
 30
0.0
 11
-76.9777670423
 21
58.9826380761
 31
0.0
  0
LINE
  5
1CD
330
1F
100
AcDbEntity
  8
0
  6
Continuous
 62
     7
100
AcDbLine
 10
-76.9777670423
 20
58.9826380761
 30
0.0
 11
-76.1771670423
 21
58.9826380761
 31
0.0
  0
LINE
  5
1CE
330
1F
100
AcDbEntity
  8
0
  6
Continuous
 62
     7
100
AcDbLine
 10
-76.1771670423
 20
58.9826380761
 30
0.0
 11
-76.1771670423
 21
62.0818380761
 31
0.0
  0
LINE
  5
1CF
330
1F
100
AcDbEntity
  8
0
  6
Continuous
 62
     7
100
AcDbLine
 10
-76.1771670423
 20
62.0818380761
 30
0.0
 11
-76.9777670423
 21
62.0818380761
 31
0.0
  0
LINE
  5
1D0
330
1F
100
AcDbEntity
  8
0
  6
Continuous
 62
     7
100
AcDbLine
 10
-76.9777670423
 20
62.0818380761
 30
0.0
 11
-76.9777670423
 21
63.0823380761
 31
0.0
  0
LINE
  5
1D1
330
1F
100
AcDbEntity
  8
0
  6
Continuous
 62
     7
100
AcDbLine
 10
-76.9777670423
 20
63.0823380761
 30
0.0
 11
-90.9773170423
 21
63.0823380761
 31
0.0
  0
LINE
  5
1D2
330
1F
100
AcDbEntity
  8
0
  6
Continuous
 62
     7
100
AcDbLine
 10
-71.9272670423
 20
63.0823380761
 30
0.0
 11
-71.9272670423
 21
62.0818380761
 31
0.0
  0
LINE
  5
1D3
330
1F
100
AcDbEntity
  8
0
  6
Continuous
 62
     7
100
AcDbLine
 10
-71.9272670423
 20
62.0818380761
 30
0.0
 11
-72.7279670423
 21
62.0818380761
 31
0.0
  0
LINE
  5
1D4
330
1F
100
AcDbEntity
  8
0
  6
Continuous
 62
     7
100
AcDbLine
 10
-72.7279670423
 20
62.0818380761
 30
0.0
 11
-72.7279670423
 21
58.9826380761
 31
0.0
  0
LINE
  5
1D5
330
1F
100
AcDbEntity
  8
0
  6
Continuous
 62
     7
100
AcDbLine
 10
-72.7279670423
 20
58.9826380761
 30
0.0
 11
-71.9272670423
 21
58.9826380761
 31
0.0
  0
LINE
  5
1D6
330
1F
100
AcDbEntity
  8
0
  6
Continuous
 62
     7
100
AcDbLine
 10
-71.9272670423
 20
58.9826380761
 30
0.0
 11
-71.9272670423
 21
53.1826380761
 31
0.0
  0
LINE
  5
1D7
330
1F
100
AcDbEntity
  8
0
  6
Continuous
 62
     7
100
AcDbLine
 10
-71.9272670423
 20
53.1826380761
 30
0.0
 11
-72.7279670423
 21
53.1826380761
 31
0.0
  0
LINE
  5
1D8
330
1F
100
AcDbEntity
  8
0
  6
Continuous
 62
     7
100
AcDbLine
 10
-72.7279670423
 20
53.1826380761
 30
0.0
 11
-72.7279670423
 21
50.0820380761
 31
0.0
  0
LINE
  5
1D9
330
1F
100
AcDbEntity
  8
0
  6
Continuous
 62
     7
100
AcDbLine
 10
-72.7279670423
 20
50.0820380761
 30
0.0
 11
-71.9272670423
 21
50.0820380761
 31
0.0
  0
LINE
  5
1DA
330
1F
100
AcDbEntity
  8
0
  6
Continuous
 62
     7
100
AcDbLine
 10
-71.9272670423
 20
50.0820380761
 30
0.0
 11
-71.9272670423
 21
49.0830380761
 31
0.0
  0
LINE
  5
1DB
330
1F
100
AcDbEntity
  8
0
  6
Continuous
 62
     7
100
AcDbLine
 10
-71.9272670423
 20
49.0830380761
 30
0.0
 11
-57.9279670423
 21
49.0830380761
 31
0.0
  0
LINE
  5
1DC
330
1F
100
AcDbEntity
  8
0
  6
Continuous
 62
     7
100
AcDbLine
 10
-57.9279670423
 20
49.0830380761
 30
0.0
 11
-57.9279670423
 21
50.0820380761
 31
0.0
  0
LINE
  5
1DD
330
1F
100
AcDbEntity
  8
0
  6
Continuous
 62
     7
100
AcDbLine
 10
-57.9279670423
 20
50.0820380761
 30
0.0
 11
-57.1271670423
 21
50.0820380761
 31
0.0
  0
LINE
  5
1DE
330
1F
100
AcDbEntity
  8
0
  6
Continuous
 62
     7
100
AcDbLine
 10
-57.1271670423
 20
50.0820380761
 30
0.0
 11
-57.1271670423
 21
53.1826380761
 31
0.0
  0
LINE
  5
1DF
330
1F
100
AcDbEntity
  8
0
  6
Continuous
 62
     7
100
AcDbLine
 10
-57.1271670423
 20
53.1826380761
 30
0.0
 11
-57.9279670423
 21
53.1826380761
 31
0.0
  0
LINE
  5
1E0
330
1F
100
AcDbEntity
  8
0
  6
Continuous
 62
     7
100
AcDbLine
 10
-57.9279670423
 20
53.1826380761
 30
0.0
 11
-57.9279670423
 21
58.9826380761
 31
0.0
  0
LINE
  5
1E1
330
1F
100
AcDbEntity
  8
0
  6
Continuous
 62
     7
100
AcDbLine
 10
-57.9279670423
 20
58.9826380761
 30
0.0
 11
-57.1271670423
 21
58.9826380761
 31
0.0
  0
LINE
  5
1E2
330
1F
100
AcDbEntity
  8
0
  6
Continuous
 62
     7
100
AcDbLine
 10
-57.1271670423
 20
58.9826380761
 30
0.0
 11
-57.1271670423
 21
62.0818380761
 31
0.0
  0
LINE
  5
1E3
330
1F
100
AcDbEntity
  8
0
  6
Continuous
 62
     7
100
AcDbLine
 10
-57.1271670423
 20
62.0818380761
 30
0.0
 11
-57.9279670423
 21
62.0818380761
 31
0.0
  0
LINE
  5
1E4
330
1F
100
AcDbEntity
  8
0
  6
Continuous
 62
     7
100
AcDbLine
 10
-57.9279670423
 20
62.0818380761
 30
0.0
 11
-57.9279670423
 21
63.0823380761
 31
0.0
  0
LINE
  5
1E5
330
1F
100
AcDbEntity
  8
0
  6
Continuous
 62
     7
100
AcDbLine
 10
-57.9279670423
 20
63.0823380761
 30
0.0
 11
-71.9272670423
 21
63.0823380761
 31
0.0
  0
LINE
  5
1E6
330
1F
100
AcDbEntity
  8
0
  6
Continuous
 62
     7
100
AcDbLine
 10
-52.8772670423
 20
63.0823380761
 30
0.0
 11
-52.8772670423
 21
62.0818380761
 31
0.0
  0
LINE
  5
1E7
330
1F
100
AcDbEntity
  8
0
  6
Continuous
 62
     7
100
AcDbLine
 10
-52.8772670423
 20
62.0818380761
 30
0.0
 11
-53.6780670423
 21
62.0818380761
 31
0.0
  0
LINE
  5
1E8
330
1F
100
AcDbEntity
  8
0
  6
Continuous
 62
     7
100
AcDbLine
 10
-53.6780670423
 20
62.0818380761
 30
0.0
 11
-53.6780670423
 21
58.9826380761
 31
0.0
  0
LINE
  5
1E9
330
1F
100
AcDbEntity
  8
0
  6
Continuous
 62
     7
100
AcDbLine
 10
-53.6780670423
 20
58.9826380761
 30
0.0
 11
-52.8772670423
 21
58.9826380761
 31
0.0
  0
LINE
  5
1EA
330
1F
100
AcDbEntity
  8
0
  6
Continuous
 62
     7
100
AcDbLine
 10
-52.8772670423
 20
58.9826380761
 30
0.0
 11
-52.8772670423
 21
53.1826380761
 31
0.0
  0
LINE
  5
1EB
330
1F
100
AcDbEntity
  8
0
  6
Continuous
 62
     7
100
AcDbLine
 10
-52.8772670423
 20
53.1826380761
 30
0.0
 11
-53.6780670423
 21
53.1826380761
 31
0.0
  0
LINE
  5
1EC
330
1F
100
AcDbEntity
  8
0
  6
Continuous
 62
     7
100
AcDbLine
 10
-53.6780670423
 20
53.1826380761
 30
0.0
 11
-53.6780670423
 21
50.0820380761
 31
0.0
  0
LINE
  5
1ED
330
1F
100
AcDbEntity
  8
0
  6
Continuous
 62
     7
100
AcDbLine
 10
-53.6780670423
 20
50.0820380761
 30
0.0
 11
-52.8772670423
 21
50.0820380761
 31
0.0
  0
LINE
  5
1EE
330
1F
100
AcDbEntity
  8
0
  6
Continuous
 62
     7
100
AcDbLine
 10
-52.8772670423
 20
50.0820380761
 30
0.0
 11
-52.8772670423
 21
49.0830380761
 31
0.0
  0
LINE
  5
1EF
330
1F
100
AcDbEntity
  8
0
  6
Continuous
 62
     7
100
AcDbLine
 10
-52.8772670423
 20
49.0830380761
 30
0.0
 11
-38.8779670423
 21
49.0830380761
 31
0.0
  0
LINE
  5
1F0
330
1F
100
AcDbEntity
  8
0
  6
Continuous
 62
     7
100
AcDbLine
 10
-38.8779670423
 20
49.0830380761
 30
0.0
 11
-38.8779670423
 21
50.0820380761
 31
0.0
  0
LINE
  5
1F1
330
1F
100
AcDbEntity
  8
0
  6
Continuous
 62
     7
100
AcDbLine
 10
-38.8779670423
 20
50.0820380761
 30
0.0
 11
-38.0771670423
 21
50.0820380761
 31
0.0
  0
LINE
  5
1F2
330
1F
100
AcDbEntity
  8
0
  6
Continuous
 62
     7
100
AcDbLine
 10
-38.0771670423
 20
50.0820380761
 30
0.0
 11
-38.0771670423
 21
53.1826380761
 31
0.0
  0
LINE
  5
1F3
330
1F
100
AcDbEntity
  8
0
  6
Continuous
 62
     7
100
AcDbLine
 10
-38.0771670423
 20
53.1826380761
 30
0.0
 11
-38.8779670423
 21
53.1826380761
 31
0.0
  0
LINE
  5
1F4
330
1F
100
AcDbEntity
  8
0
  6
Continuous
 62
     7
100
AcDbLine
 10
-38.8779670423
 20
53.1826380761
 30
0.0
 11
-38.8779670423
 21
58.9826380761
 31
0.0
  0
LINE
  5
1F5
330
1F
100
AcDbEntity
  8
0
  6
Continuous
 62
     7
100
AcDbLine
 10
-38.8779670423
 20
58.9826380761
 30
0.0
 11
-38.0771670423
 21
58.9826380761
 31
0.0
  0
LINE
  5
1F6
330
1F
100
AcDbEntity
  8
0
  6
Continuous
 62
     7
100
AcDbLine
 10
-38.0771670423
 20
58.9826380761
 30
0.0
 11
-38.0771670423
 21
62.0818380761
 31
0.0
  0
LINE
  5
1F7
330
1F
100
AcDbEntity
  8
0
  6
Continuous
 62
     7
100
AcDbLine
 10
-38.0771670423
 20
62.0818380761
 30
0.0
 11
-38.8779670423
 21
62.0818380761
 31
0.0
  0
LINE
  5
1F8
330
1F
100
AcDbEntity
  8
0
  6
Continuous
 62
     7
100
AcDbLine
 10
-38.8779670423
 20
62.0818380761
 30
0.0
 11
-38.8779670423
 21
63.0823380761
 31
0.0
  0
LINE
  5
1F9
330
1F
100
AcDbEntity
  8
0
  6
Continuous
 62
     7
100
AcDbLine
 10
-38.8779670423
 20
63.0823380761
 30
0.0
 11
-52.8772670423
 21
63.0823380761
 31
0.0
  0
LINE
  5
1FA
330
1F
100
AcDbEntity
  8
0
  6
Continuous
 62
     7
100
AcDbLine
 10
-33.8272670423
 20
63.0823380761
 30
0.0
 11
-33.8272670423
 21
62.0818380761
 31
0.0
  0
LINE
  5
1FB
330
1F
100
AcDbEntity
  8
0
  6
Continuous
 62
     7
100
AcDbLine
 10
-33.8272670423
 20
62.0818380761
 30
0.0
 11
-34.6280670423
 21
62.0818380761
 31
0.0
  0
LINE
  5
1FC
330
1F
100
AcDbEntity
  8
0
  6
Continuous
 62
     7
100
AcDbLine
 10
-34.6280670423
 20
62.0818380761
 30
0.0
 11
-34.6280670423
 21
58.9826380761
 31
0.0
  0
LINE
  5
1FD
330
1F
100
AcDbEntity
  8
0
  6
Continuous
 62
     7
100
AcDbLine
 10
-34.6280670423
 20
58.9826380761
 30
0.0
 11
-33.8272670423
 21
58.9826380761
 31
0.0
  0
LINE
  5
1FE
330
1F
100
AcDbEntity
  8
0
  6
Continuous
 62
     7
100
AcDbLine
 10
-33.8272670423
 20
58.9826380761
 30
0.0
 11
-33.8272670423
 21
53.1826380761
 31
0.0
  0
LINE
  5
1FF
330
1F
100
AcDbEntity
  8
0
  6
Continuous
 62
     7
100
AcDbLine
 10
-33.8272670423
 20
53.1826380761
 30
0.0
 11
-34.6280670423
 21
53.1826380761
 31
0.0
  0
LINE
  5
200
330
1F
100
AcDbEntity
  8
0
  6
Continuous
 62
     7
100
AcDbLine
 10
-34.6280670423
 20
53.1826380761
 30
0.0
 11
-34.6280670423
 21
50.0820380761
 31
0.0
  0
LINE
  5
201
330
1F
100
AcDbEntity
  8
0
  6
Continuous
 62
     7
100
AcDbLine
 10
-34.6280670423
 20
50.0820380761
 30
0.0
 11
-33.8272670423
 21
50.0820380761
 31
0.0
  0
LINE
  5
202
330
1F
100
AcDbEntity
  8
0
  6
Continuous
 62
     7
100
AcDbLine
 10
-33.8272670423
 20
50.0820380761
 30
0.0
 11
-33.8272670423
 21
49.0830380761
 31
0.0
  0
LINE
  5
203
330
1F
100
AcDbEntity
  8
0
  6
Continuous
 62
     7
100
AcDbLine
 10
-33.8272670423
 20
49.0830380761
 30
0.0
 11
-19.8279670423
 21
49.0830380761
 31
0.0
  0
LINE
  5
204
330
1F
100
AcDbEntity
  8
0
  6
Continuous
 62
     7
100
AcDbLine
 10
-19.8279670423
 20
49.0830380761
 30
0.0
 11
-19.8279670423
 21
50.0820380761
 31
0.0
  0
LINE
  5
205
330
1F
100
AcDbEntity
  8
0
  6
Continuous
 62
     7
100
AcDbLine
 10
-19.8279670423
 20
50.0820380761
 30
0.0
 11
-19.0271670423
 21
50.0820380761
 31
0.0
  0
LINE
  5
206
330
1F
100
AcDbEntity
  8
0
  6
Continuous
 62
     7
100
AcDbLine
 10
-19.0271670423
 20
50.0820380761
 30
0.0
 11
-19.0271670423
 21
53.1826380761
 31
0.0
  0
LINE
  5
207
330
1F
100
AcDbEntity
  8
0
  6
Continuous
 62
     7
100
AcDbLine
 10
-19.0271670423
 20
53.1826380761
 30
0.0
 11
-19.8279670423
 21
53.1826380761
 31
0.0
  0
LINE
  5
208
330
1F
100
AcDbEntity
  8
0
  6
Continuous
 62
     7
100
AcDbLine
 10
-19.8279670423
 20
53.1826380761
 30
0.0
 11
-19.8279670423
 21
58.9826380761
 31
0.0
  0
LINE
  5
209
330
1F
100
AcDbEntity
  8
0
  6
Continuous
 62
     7
100
AcDbLine
 10
-19.8279670423
 20
58.9826380761
 30
0.0
 11
-19.0271670423
 21
58.9826380761
 31
0.0
  0
LINE
  5
20A
330
1F
100
AcDbEntity
  8
0
  6
Continuous
 62
     7
100
AcDbLine
 10
-19.0271670423
 20
58.9826380761
 30
0.0
 11
-19.0271670423
 21
62.0818380761
 31
0.0
  0
LINE
  5
20B
330
1F
100
AcDbEntity
  8
0
  6
Continuous
 62
     7
100
AcDbLine
 10
-19.0271670423
 20
62.0818380761
 30
0.0
 11
-19.8279670423
 21
62.0818380761
 31
0.0
  0
LINE
  5
20C
330
1F
100
AcDbEntity
  8
0
  6
Continuous
 62
     7
100
AcDbLine
 10
-19.8279670423
 20
62.0818380761
 30
0.0
 11
-19.8279670423
 21
63.0823380761
 31
0.0
  0
LINE
  5
20D
330
1F
100
AcDbEntity
  8
0
  6
Continuous
 62
     7
100
AcDbLine
 10
-19.8279670423
 20
63.0823380761
 30
0.0
 11
-33.8272670423
 21
63.0823380761
 31
0.0
  0
LINE
  5
20E
330
1F
100
AcDbEntity
  8
0
  6
Continuous
 62
     7
100
AcDbLine
 10
-14.7772670423
 20
63.0823380761
 30
0.0
 11
-14.7772670423
 21
62.0818380761
 31
0.0
  0
LINE
  5
20F
330
1F
100
AcDbEntity
  8
0
  6
Continuous
 62
     7
100
AcDbLine
 10
-14.7772670423
 20
62.0818380761
 30
0.0
 11
-15.5780670423
 21
62.0818380761
 31
0.0
  0
LINE
  5
210
330
1F
100
AcDbEntity
  8
0
  6
Continuous
 62
     7
100
AcDbLine
 10
-15.5780670423
 20
62.0818380761
 30
0.0
 11
-15.5780670423
 21
58.9826380761
 31
0.0
  0
LINE
  5
211
330
1F
100
AcDbEntity
  8
0
  6
Continuous
 62
     7
100
AcDbLine
 10
-15.5780670423
 20
58.9826380761
 30
0.0
 11
-14.7772670423
 21
58.9826380761
 31
0.0
  0
LINE
  5
212
330
1F
100
AcDbEntity
  8
0
  6
Continuous
 62
     7
100
AcDbLine
 10
-14.7772670423
 20
58.9826380761
 30
0.0
 11
-14.7772670423
 21
53.1826380761
 31
0.0
  0
LINE
  5
213
330
1F
100
AcDbEntity
  8
0
  6
Continuous
 62
     7
100
AcDbLine
 10
-14.7772670423
 20
53.1826380761
 30
0.0
 11
-15.5780670423
 21
53.1826380761
 31
0.0
  0
LINE
  5
214
330
1F
100
AcDbEntity
  8
0
  6
Continuous
 62
     7
100
AcDbLine
 10
-15.5780670423
 20
53.1826380761
 30
0.0
 11
-15.5780670423
 21
50.0820380761
 31
0.0
  0
LINE
  5
215
330
1F
100
AcDbEntity
  8
0
  6
Continuous
 62
     7
100
AcDbLine
 10
-15.5780670423
 20
50.0820380761
 30
0.0
 11
-14.7772670423
 21
50.0820380761
 31
0.0
  0
LINE
  5
216
330
1F
100
AcDbEntity
  8
0
  6
Continuous
 62
     7
100
AcDbLine
 10
-14.7772670423
 20
50.0820380761
 30
0.0
 11
-14.7772670423
 21
49.0830380761
 31
0.0
  0
LINE
  5
217
330
1F
100
AcDbEntity
  8
0
  6
Continuous
 62
     7
100
AcDbLine
 10
-14.7772670423
 20
49.0830380761
 30
0.0
 11
-0.7779670423
 21
49.0830380761
 31
0.0
  0
LINE
  5
218
330
1F
100
AcDbEntity
  8
0
  6
Continuous
 62
     7
100
AcDbLine
 10
-0.7779670423
 20
49.0830380761
 30
0.0
 11
-0.7779670423
 21
50.0820380761
 31
0.0
  0
LINE
  5
219
330
1F
100
AcDbEntity
  8
0
  6
Continuous
 62
     7
100
AcDbLine
 10
-0.7779670423
 20
50.0820380761
 30
0.0
 11
0.0214329577
 21
50.0820380761
 31
0.0
  0
LINE
  5
21A
330
1F
100
AcDbEntity
  8
0
  6
Continuous
 62
     7
100
AcDbLine
 10
0.0214329577
 20
50.0820380761
 30
0.0
 11
0.0214329577
 21
53.1826380761
 31
0.0
  0
LINE
  5
21B
330
1F
100
AcDbEntity
  8
0
  6
Continuous
 62
     7
100
AcDbLine
 10
0.0214329577
 20
53.1826380761
 30
0.0
 11
-0.7779670423
 21
53.1826380761
 31
0.0
  0
LINE
  5
21C
330
1F
100
AcDbEntity
  8
0
  6
Continuous
 62
     7
100
AcDbLine
 10
-0.7779670423
 20
53.1826380761
 30
0.0
 11
-0.7779670423
 21
58.9826380761
 31
0.0
  0
LINE
  5
21D
330
1F
100
AcDbEntity
  8
0
  6
Continuous
 62
     7
100
AcDbLine
 10
-0.7779670423
 20
58.9826380761
 30
0.0
 11
0.0214329577
 21
58.9826380761
 31
0.0
  0
LINE
  5
21E
330
1F
100
AcDbEntity
  8
0
  6
Continuous
 62
     7
100
AcDbLine
 10
0.0214329577
 20
58.9826380761
 30
0.0
 11
0.0214329577
 21
62.0818380761
 31
0.0
  0
LINE
  5
21F
330
1F
100
AcDbEntity
  8
0
  6
Continuous
 62
     7
100
AcDbLine
 10
0.0214329577
 20
62.0818380761
 30
0.0
 11
-0.7779670423
 21
62.0818380761
 31
0.0
  0
LINE
  5
220
330
1F
100
AcDbEntity
  8
0
  6
Continuous
 62
     7
100
AcDbLine
 10
-0.7779670423
 20
62.0818380761
 30
0.0
 11
-0.7779670423
 21
63.0823380761
 31
0.0
  0
LINE
  5
221
330
1F
100
AcDbEntity
  8
0
  6
Continuous
 62
     7
100
AcDbLine
 10
-0.7779670423
 20
63.0823380761
 30
0.0
 11
-14.7772670423
 21
63.0823380761
 31
0.0
  0
LINE
  5
222
330
1F
100
AcDbEntity
  8
0
  6
Continuous
 62
     7
100
AcDbLine
 10
4.2713329577
 20
63.0823380761
 30
0.0
 11
4.2713329577
 21
62.0818380761
 31
0.0
  0
LINE
  5
223
330
1F
100
AcDbEntity
  8
0
  6
Continuous
 62
     7
100
AcDbLine
 10
4.2713329577
 20
62.0818380761
 30
0.0
 11
3.4719329577
 21
62.0818380761
 31
0.0
  0
LINE
  5
224
330
1F
100
AcDbEntity
  8
0
  6
Continuous
 62
     7
100
AcDbLine
 10
3.4719329577
 20
62.0818380761
 30
0.0
 11
3.4719329577
 21
58.9826380761
 31
0.0
  0
LINE
  5
225
330
1F
100
AcDbEntity
  8
0
  6
Continuous
 62
     7
100
AcDbLine
 10
3.4719329577
 20
58.9826380761
 30
0.0
 11
4.2713329577
 21
58.9826380761
 31
0.0
  0
LINE
  5
226
330
1F
100
AcDbEntity
  8
0
  6
Continuous
 62
     7
100
AcDbLine
 10
4.2713329577
 20
58.9826380761
 30
0.0
 11
4.2713329577
 21
53.1826380761
 31
0.0
  0
LINE
  5
227
330
1F
100
AcDbEntity
  8
0
  6
Continuous
 62
     7
100
AcDbLine
 10
4.2713329577
 20
53.1826380761
 30
0.0
 11
3.4719329577
 21
53.1826380761
 31
0.0
  0
LINE
  5
228
330
1F
100
AcDbEntity
  8
0
  6
Continuous
 62
     7
100
AcDbLine
 10
3.4719329577
 20
53.1826380761
 30
0.0
 11
3.4719329577
 21
50.0820380761
 31
0.0
  0
LINE
  5
229
330
1F
100
AcDbEntity
  8
0
  6
Continuous
 62
     7
100
AcDbLine
 10
3.4719329577
 20
50.0820380761
 30
0.0
 11
4.2713329577
 21
50.0820380761
 31
0.0
  0
LINE
  5
22A
330
1F
100
AcDbEntity
  8
0
  6
Continuous
 62
     7
100
AcDbLine
 10
4.2713329577
 20
50.0820380761
 30
0.0
 11
4.2713329577
 21
49.0830380761
 31
0.0
  0
LINE
  5
22B
330
1F
100
AcDbEntity
  8
0
  6
Continuous
 62
     7
100
AcDbLine
 10
4.2713329577
 20
49.0830380761
 30
0.0
 11
18.2720329577
 21
49.0830380761
 31
0.0
  0
LINE
  5
22C
330
1F
100
AcDbEntity
  8
0
  6
Continuous
 62
     7
100
AcDbLine
 10
18.2720329577
 20
49.0830380761
 30
0.0
 11
18.2720329577
 21
50.0820380761
 31
0.0
  0
LINE
  5
22D
330
1F
100
AcDbEntity
  8
0
  6
Continuous
 62
     7
100
AcDbLine
 10
18.2720329577
 20
50.0820380761
 30
0.0
 11
19.0710329577
 21
50.0820380761
 31
0.0
  0
LINE
  5
22E
330
1F
100
AcDbEntity
  8
0
  6
Continuous
 62
     7
100
AcDbLine
 10
19.0710329577
 20
50.0820380761
 30
0.0
 11
19.0710329577
 21
53.1826380761
 31
0.0
  0
LINE
  5
22F
330
1F
100
AcDbEntity
  8
0
  6
Continuous
 62
     7
100
AcDbLine
 10
19.0710329577
 20
53.1826380761
 30
0.0
 11
18.2720329577
 21
53.1826380761
 31
0.0
  0
LINE
  5
230
330
1F
100
AcDbEntity
  8
0
  6
Continuous
 62
     7
100
AcDbLine
 10
18.2720329577
 20
53.1826380761
 30
0.0
 11
18.2720329577
 21
58.9826380761
 31
0.0
  0
LINE
  5
231
330
1F
100
AcDbEntity
  8
0
  6
Continuous
 62
     7
100
AcDbLine
 10
18.2720329577
 20
58.9826380761
 30
0.0
 11
19.0710329577
 21
58.9826380761
 31
0.0
  0
LINE
  5
232
330
1F
100
AcDbEntity
  8
0
  6
Continuous
 62
     7
100
AcDbLine
 10
19.0710329577
 20
58.9826380761
 30
0.0
 11
19.0710329577
 21
62.0818380761
 31
0.0
  0
LINE
  5
233
330
1F
100
AcDbEntity
  8
0
  6
Continuous
 62
     7
100
AcDbLine
 10
19.0710329577
 20
62.0818380761
 30
0.0
 11
18.2720329577
 21
62.0818380761
 31
0.0
  0
LINE
  5
234
330
1F
100
AcDbEntity
  8
0
  6
Continuous
 62
     7
100
AcDbLine
 10
18.2720329577
 20
62.0818380761
 30
0.0
 11
18.2720329577
 21
63.0823380761
 31
0.0
  0
LINE
  5
235
330
1F
100
AcDbEntity
  8
0
  6
Continuous
 62
     7
100
AcDbLine
 10
18.2720329577
 20
63.0823380761
 30
0.0
 11
4.2713329577
 21
63.0823380761
 31
0.0
  0
LINE
  5
236
330
1F
100
AcDbEntity
  8
0
  6
Continuous
 62
     7
100
AcDbLine
 10
-90.9773170423
 20
82.1323380761
 30
0.0
 11
-90.9773170423
 21
81.1318380761
 31
0.0
  0
LINE
  5
237
330
1F
100
AcDbEntity
  8
0
  6
Continuous
 62
     7
100
AcDbLine
 10
-90.9773170423
 20
81.1318380761
 30
0.0
 11
-91.7779570423
 21
81.1318380761
 31
0.0
  0
LINE
  5
238
330
1F
100
AcDbEntity
  8
0
  6
Continuous
 62
     7
100
AcDbLine
 10
-91.7779570423
 20
81.1318380761
 30
0.0
 11
-91.7779570423
 21
78.0326380761
 31
0.0
  0
LINE
  5
239
330
1F
100
AcDbEntity
  8
0
  6
Continuous
 62
     7
100
AcDbLine
 10
-91.7779570423
 20
78.0326380761
 30
0.0
 11
-90.9773170423
 21
78.0326380761
 31
0.0
  0
LINE
  5
23A
330
1F
100
AcDbEntity
  8
0
  6
Continuous
 62
     7
100
AcDbLine
 10
-90.9773170423
 20
78.0326380761
 30
0.0
 11
-90.9773170423
 21
72.2326380761
 31
0.0
  0
LINE
  5
23B
330
1F
100
AcDbEntity
  8
0
  6
Continuous
 62
     7
100
AcDbLine
 10
-90.9773170423
 20
72.2326380761
 30
0.0
 11
-91.7779570423
 21
72.2326380761
 31
0.0
  0
LINE
  5
23C
330
1F
100
AcDbEntity
  8
0
  6
Continuous
 62
     7
100
AcDbLine
 10
-91.7779570423
 20
72.2326380761
 30
0.0
 11
-91.7779570423
 21
69.1320380761
 31
0.0
  0
LINE
  5
23D
330
1F
100
AcDbEntity
  8
0
  6
Continuous
 62
     7
100
AcDbLine
 10
-91.7779570423
 20
69.1320380761
 30
0.0
 11
-90.9773170423
 21
69.1320380761
 31
0.0
  0
LINE
  5
23E
330
1F
100
AcDbEntity
  8
0
  6
Continuous
 62
     7
100
AcDbLine
 10
-90.9773170423
 20
69.1320380761
 30
0.0
 11
-90.9773170423
 21
68.1330380761
 31
0.0
  0
LINE
  5
23F
330
1F
100
AcDbEntity
  8
0
  6
Continuous
 62
     7
100
AcDbLine
 10
-90.9773170423
 20
68.1330380761
 30
0.0
 11
-76.9777670423
 21
68.1330380761
 31
0.0
  0
LINE
  5
240
330
1F
100
AcDbEntity
  8
0
  6
Continuous
 62
     7
100
AcDbLine
 10
-76.9777670423
 20
68.1330380761
 30
0.0
 11
-76.9777670423
 21
69.1320380761
 31
0.0
  0
LINE
  5
241
330
1F
100
AcDbEntity
  8
0
  6
Continuous
 62
     7
100
AcDbLine
 10
-76.9777670423
 20
69.1320380761
 30
0.0
 11
-76.1771670423
 21
69.1320380761
 31
0.0
  0
LINE
  5
242
330
1F
100
AcDbEntity
  8
0
  6
Continuous
 62
     7
100
AcDbLine
 10
-76.1771670423
 20
69.1320380761
 30
0.0
 11
-76.1771670423
 21
72.2326380761
 31
0.0
  0
LINE
  5
243
330
1F
100
AcDbEntity
  8
0
  6
Continuous
 62
     7
100
AcDbLine
 10
-76.1771670423
 20
72.2326380761
 30
0.0
 11
-76.9777670423
 21
72.2326380761
 31
0.0
  0
LINE
  5
244
330
1F
100
AcDbEntity
  8
0
  6
Continuous
 62
     7
100
AcDbLine
 10
-76.9777670423
 20
72.2326380761
 30
0.0
 11
-76.9777670423
 21
78.0326380761
 31
0.0
  0
LINE
  5
245
330
1F
100
AcDbEntity
  8
0
  6
Continuous
 62
     7
100
AcDbLine
 10
-76.9777670423
 20
78.0326380761
 30
0.0
 11
-76.1771670423
 21
78.0326380761
 31
0.0
  0
LINE
  5
246
330
1F
100
AcDbEntity
  8
0
  6
Continuous
 62
     7
100
AcDbLine
 10
-76.1771670423
 20
78.0326380761
 30
0.0
 11
-76.1771670423
 21
81.1318380761
 31
0.0
  0
LINE
  5
247
330
1F
100
AcDbEntity
  8
0
  6
Continuous
 62
     7
100
AcDbLine
 10
-76.1771670423
 20
81.1318380761
 30
0.0
 11
-76.9777670423
 21
81.1318380761
 31
0.0
  0
LINE
  5
248
330
1F
100
AcDbEntity
  8
0
  6
Continuous
 62
     7
100
AcDbLine
 10
-76.9777670423
 20
81.1318380761
 30
0.0
 11
-76.9777670423
 21
82.1323380761
 31
0.0
  0
LINE
  5
249
330
1F
100
AcDbEntity
  8
0
  6
Continuous
 62
     7
100
AcDbLine
 10
-76.9777670423
 20
82.1323380761
 30
0.0
 11
-90.9773170423
 21
82.1323380761
 31
0.0
  0
LINE
  5
24A
330
1F
100
AcDbEntity
  8
0
  6
Continuous
 62
     7
100
AcDbLine
 10
-71.9272670423
 20
82.1323380761
 30
0.0
 11
-71.9272670423
 21
81.1318380761
 31
0.0
  0
LINE
  5
24B
330
1F
100
AcDbEntity
  8
0
  6
Continuous
 62
     7
100
AcDbLine
 10
-71.9272670423
 20
81.1318380761
 30
0.0
 11
-72.7279670423
 21
81.1318380761
 31
0.0
  0
LINE
  5
24C
330
1F
100
AcDbEntity
  8
0
  6
Continuous
 62
     7
100
AcDbLine
 10
-72.7279670423
 20
81.1318380761
 30
0.0
 11
-72.7279670423
 21
78.0326380761
 31
0.0
  0
LINE
  5
24D
330
1F
100
AcDbEntity
  8
0
  6
Continuous
 62
     7
100
AcDbLine
 10
-72.7279670423
 20
78.0326380761
 30
0.0
 11
-71.9272670423
 21
78.0326380761
 31
0.0
  0
LINE
  5
24E
330
1F
100
AcDbEntity
  8
0
  6
Continuous
 62
     7
100
AcDbLine
 10
-71.9272670423
 20
78.0326380761
 30
0.0
 11
-71.9272670423
 21
72.2326380761
 31
0.0
  0
LINE
  5
24F
330
1F
100
AcDbEntity
  8
0
  6
Continuous
 62
     7
100
AcDbLine
 10
-71.9272670423
 20
72.2326380761
 30
0.0
 11
-72.7279670423
 21
72.2326380761
 31
0.0
  0
LINE
  5
250
330
1F
100
AcDbEntity
  8
0
  6
Continuous
 62
     7
100
AcDbLine
 10
-72.7279670423
 20
72.2326380761
 30
0.0
 11
-72.7279670423
 21
69.1320380761
 31
0.0
  0
LINE
  5
251
330
1F
100
AcDbEntity
  8
0
  6
Continuous
 62
     7
100
AcDbLine
 10
-72.7279670423
 20
69.1320380761
 30
0.0
 11
-71.9272670423
 21
69.1320380761
 31
0.0
  0
LINE
  5
252
330
1F
100
AcDbEntity
  8
0
  6
Continuous
 62
     7
100
AcDbLine
 10
-71.9272670423
 20
69.1320380761
 30
0.0
 11
-71.9272670423
 21
68.1330380761
 31
0.0
  0
LINE
  5
253
330
1F
100
AcDbEntity
  8
0
  6
Continuous
 62
     7
100
AcDbLine
 10
-71.9272670423
 20
68.1330380761
 30
0.0
 11
-57.9279670423
 21
68.1330380761
 31
0.0
  0
LINE
  5
254
330
1F
100
AcDbEntity
  8
0
  6
Continuous
 62
     7
100
AcDbLine
 10
-57.9279670423
 20
68.1330380761
 30
0.0
 11
-57.9279670423
 21
69.1320380761
 31
0.0
  0
LINE
  5
255
330
1F
100
AcDbEntity
  8
0
  6
Continuous
 62
     7
100
AcDbLine
 10
-57.9279670423
 20
69.1320380761
 30
0.0
 11
-57.1271670423
 21
69.1320380761
 31
0.0
  0
LINE
  5
256
330
1F
100
AcDbEntity
  8
0
  6
Continuous
 62
     7
100
AcDbLine
 10
-57.1271670423
 20
69.1320380761
 30
0.0
 11
-57.1271670423
 21
72.2326380761
 31
0.0
  0
LINE
  5
257
330
1F
100
AcDbEntity
  8
0
  6
Continuous
 62
     7
100
AcDbLine
 10
-57.1271670423
 20
72.2326380761
 30
0.0
 11
-57.9279670423
 21
72.2326380761
 31
0.0
  0
LINE
  5
258
330
1F
100
AcDbEntity
  8
0
  6
Continuous
 62
     7
100
AcDbLine
 10
-57.9279670423
 20
72.2326380761
 30
0.0
 11
-57.9279670423
 21
78.0326380761
 31
0.0
  0
LINE
  5
259
330
1F
100
AcDbEntity
  8
0
  6
Continuous
 62
     7
100
AcDbLine
 10
-57.9279670423
 20
78.0326380761
 30
0.0
 11
-57.1271670423
 21
78.0326380761
 31
0.0
  0
LINE
  5
25A
330
1F
100
AcDbEntity
  8
0
  6
Continuous
 62
     7
100
AcDbLine
 10
-57.1271670423
 20
78.0326380761
 30
0.0
 11
-57.1271670423
 21
81.1318380761
 31
0.0
  0
LINE
  5
25B
330
1F
100
AcDbEntity
  8
0
  6
Continuous
 62
     7
100
AcDbLine
 10
-57.1271670423
 20
81.1318380761
 30
0.0
 11
-57.9279670423
 21
81.1318380761
 31
0.0
  0
LINE
  5
25C
330
1F
100
AcDbEntity
  8
0
  6
Continuous
 62
     7
100
AcDbLine
 10
-57.9279670423
 20
81.1318380761
 30
0.0
 11
-57.9279670423
 21
82.1323380761
 31
0.0
  0
LINE
  5
25D
330
1F
100
AcDbEntity
  8
0
  6
Continuous
 62
     7
100
AcDbLine
 10
-57.9279670423
 20
82.1323380761
 30
0.0
 11
-71.9272670423
 21
82.1323380761
 31
0.0
  0
LINE
  5
25E
330
1F
100
AcDbEntity
  8
0
  6
Continuous
 62
     7
100
AcDbLine
 10
-52.8772670423
 20
82.1323380761
 30
0.0
 11
-52.8772670423
 21
81.1318380761
 31
0.0
  0
LINE
  5
25F
330
1F
100
AcDbEntity
  8
0
  6
Continuous
 62
     7
100
AcDbLine
 10
-52.8772670423
 20
81.1318380761
 30
0.0
 11
-53.6780670423
 21
81.1318380761
 31
0.0
  0
LINE
  5
260
330
1F
100
AcDbEntity
  8
0
  6
Continuous
 62
     7
100
AcDbLine
 10
-53.6780670423
 20
81.1318380761
 30
0.0
 11
-53.6780670423
 21
78.0326380761
 31
0.0
  0
LINE
  5
261
330
1F
100
AcDbEntity
  8
0
  6
Continuous
 62
     7
100
AcDbLine
 10
-53.6780670423
 20
78.0326380761
 30
0.0
 11
-52.8772670423
 21
78.0326380761
 31
0.0
  0
LINE
  5
262
330
1F
100
AcDbEntity
  8
0
  6
Continuous
 62
     7
100
AcDbLine
 10
-52.8772670423
 20
78.0326380761
 30
0.0
 11
-52.8772670423
 21
72.2326380761
 31
0.0
  0
LINE
  5
263
330
1F
100
AcDbEntity
  8
0
  6
Continuous
 62
     7
100
AcDbLine
 10
-52.8772670423
 20
72.2326380761
 30
0.0
 11
-53.6780670423
 21
72.2326380761
 31
0.0
  0
LINE
  5
264
330
1F
100
AcDbEntity
  8
0
  6
Continuous
 62
     7
100
AcDbLine
 10
-53.6780670423
 20
72.2326380761
 30
0.0
 11
-53.6780670423
 21
69.1320380761
 31
0.0
  0
LINE
  5
265
330
1F
100
AcDbEntity
  8
0
  6
Continuous
 62
     7
100
AcDbLine
 10
-53.6780670423
 20
69.1320380761
 30
0.0
 11
-52.8772670423
 21
69.1320380761
 31
0.0
  0
LINE
  5
266
330
1F
100
AcDbEntity
  8
0
  6
Continuous
 62
     7
100
AcDbLine
 10
-52.8772670423
 20
69.1320380761
 30
0.0
 11
-52.8772670423
 21
68.1330380761
 31
0.0
  0
LINE
  5
267
330
1F
100
AcDbEntity
  8
0
  6
Continuous
 62
     7
100
AcDbLine
 10
-52.8772670423
 20
68.1330380761
 30
0.0
 11
-38.8779670423
 21
68.1330380761
 31
0.0
  0
LINE
  5
268
330
1F
100
AcDbEntity
  8
0
  6
Continuous
 62
     7
100
AcDbLine
 10
-38.8779670423
 20
68.1330380761
 30
0.0
 11
-38.8779670423
 21
69.1320380761
 31
0.0
  0
LINE
  5
269
330
1F
100
AcDbEntity
  8
0
  6
Continuous
 62
     7
100
AcDbLine
 10
-38.8779670423
 20
69.1320380761
 30
0.0
 11
-38.0771670423
 21
69.1320380761
 31
0.0
  0
LINE
  5
26A
330
1F
100
AcDbEntity
  8
0
  6
Continuous
 62
     7
100
AcDbLine
 10
-38.0771670423
 20
69.1320380761
 30
0.0
 11
-38.0771670423
 21
72.2326380761
 31
0.0
  0
LINE
  5
26B
330
1F
100
AcDbEntity
  8
0
  6
Continuous
 62
     7
100
AcDbLine
 10
-38.0771670423
 20
72.2326380761
 30
0.0
 11
-38.8779670423
 21
72.2326380761
 31
0.0
  0
LINE
  5
26C
330
1F
100
AcDbEntity
  8
0
  6
Continuous
 62
     7
100
AcDbLine
 10
-38.8779670423
 20
72.2326380761
 30
0.0
 11
-38.8779670423
 21
78.0326380761
 31
0.0
  0
LINE
  5
26D
330
1F
100
AcDbEntity
  8
0
  6
Continuous
 62
     7
100
AcDbLine
 10
-38.8779670423
 20
78.0326380761
 30
0.0
 11
-38.0771670423
 21
78.0326380761
 31
0.0
  0
LINE
  5
26E
330
1F
100
AcDbEntity
  8
0
  6
Continuous
 62
     7
100
AcDbLine
 10
-38.0771670423
 20
78.0326380761
 30
0.0
 11
-38.0771670423
 21
81.1318380761
 31
0.0
  0
LINE
  5
26F
330
1F
100
AcDbEntity
  8
0
  6
Continuous
 62
     7
100
AcDbLine
 10
-38.0771670423
 20
81.1318380761
 30
0.0
 11
-38.8779670423
 21
81.1318380761
 31
0.0
  0
LINE
  5
270
330
1F
100
AcDbEntity
  8
0
  6
Continuous
 62
     7
100
AcDbLine
 10
-38.8779670423
 20
81.1318380761
 30
0.0
 11
-38.8779670423
 21
82.1323380761
 31
0.0
  0
LINE
  5
271
330
1F
100
AcDbEntity
  8
0
  6
Continuous
 62
     7
100
AcDbLine
 10
-38.8779670423
 20
82.1323380761
 30
0.0
 11
-52.8772670423
 21
82.1323380761
 31
0.0
  0
LINE
  5
272
330
1F
100
AcDbEntity
  8
0
  6
Continuous
 62
     7
100
AcDbLine
 10
-33.8272670423
 20
82.1323380761
 30
0.0
 11
-33.8272670423
 21
81.1318380761
 31
0.0
  0
LINE
  5
273
330
1F
100
AcDbEntity
  8
0
  6
Continuous
 62
     7
100
AcDbLine
 10
-33.8272670423
 20
81.1318380761
 30
0.0
 11
-34.6280670423
 21
81.1318380761
 31
0.0
  0
LINE
  5
274
330
1F
100
AcDbEntity
  8
0
  6
Continuous
 62
     7
100
AcDbLine
 10
-34.6280670423
 20
81.1318380761
 30
0.0
 11
-34.6280670423
 21
78.0326380761
 31
0.0
  0
LINE
  5
275
330
1F
100
AcDbEntity
  8
0
  6
Continuous
 62
     7
100
AcDbLine
 10
-34.6280670423
 20
78.0326380761
 30
0.0
 11
-33.8272670423
 21
78.0326380761
 31
0.0
  0
LINE
  5
276
330
1F
100
AcDbEntity
  8
0
  6
Continuous
 62
     7
100
AcDbLine
 10
-33.8272670423
 20
78.0326380761
 30
0.0
 11
-33.8272670423
 21
72.2326380761
 31
0.0
  0
LINE
  5
277
330
1F
100
AcDbEntity
  8
0
  6
Continuous
 62
     7
100
AcDbLine
 10
-33.8272670423
 20
72.2326380761
 30
0.0
 11
-34.6280670423
 21
72.2326380761
 31
0.0
  0
LINE
  5
278
330
1F
100
AcDbEntity
  8
0
  6
Continuous
 62
     7
100
AcDbLine
 10
-34.6280670423
 20
72.2326380761
 30
0.0
 11
-34.6280670423
 21
69.1320380761
 31
0.0
  0
LINE
  5
279
330
1F
100
AcDbEntity
  8
0
  6
Continuous
 62
     7
100
AcDbLine
 10
-34.6280670423
 20
69.1320380761
 30
0.0
 11
-33.8272670423
 21
69.1320380761
 31
0.0
  0
LINE
  5
27A
330
1F
100
AcDbEntity
  8
0
  6
Continuous
 62
     7
100
AcDbLine
 10
-33.8272670423
 20
69.1320380761
 30
0.0
 11
-33.8272670423
 21
68.1330380761
 31
0.0
  0
LINE
  5
27B
330
1F
100
AcDbEntity
  8
0
  6
Continuous
 62
     7
100
AcDbLine
 10
-33.8272670423
 20
68.1330380761
 30
0.0
 11
-19.8279670423
 21
68.1330380761
 31
0.0
  0
LINE
  5
27C
330
1F
100
AcDbEntity
  8
0
  6
Continuous
 62
     7
100
AcDbLine
 10
-19.8279670423
 20
68.1330380761
 30
0.0
 11
-19.8279670423
 21
69.1320380761
 31
0.0
  0
LINE
  5
27D
330
1F
100
AcDbEntity
  8
0
  6
Continuous
 62
     7
100
AcDbLine
 10
-19.8279670423
 20
69.1320380761
 30
0.0
 11
-19.0271670423
 21
69.1320380761
 31
0.0
  0
LINE
  5
27E
330
1F
100
AcDbEntity
  8
0
  6
Continuous
 62
     7
100
AcDbLine
 10
-19.0271670423
 20
69.1320380761
 30
0.0
 11
-19.0271670423
 21
72.2326380761
 31
0.0
  0
LINE
  5
27F
330
1F
100
AcDbEntity
  8
0
  6
Continuous
 62
     7
100
AcDbLine
 10
-19.0271670423
 20
72.2326380761
 30
0.0
 11
-19.8279670423
 21
72.2326380761
 31
0.0
  0
LINE
  5
280
330
1F
100
AcDbEntity
  8
0
  6
Continuous
 62
     7
100
AcDbLine
 10
-19.8279670423
 20
72.2326380761
 30
0.0
 11
-19.8279670423
 21
78.0326380761
 31
0.0
  0
LINE
  5
281
330
1F
100
AcDbEntity
  8
0
  6
Continuous
 62
     7
100
AcDbLine
 10
-19.8279670423
 20
78.0326380761
 30
0.0
 11
-19.0271670423
 21
78.0326380761
 31
0.0
  0
LINE
  5
282
330
1F
100
AcDbEntity
  8
0
  6
Continuous
 62
     7
100
AcDbLine
 10
-19.0271670423
 20
78.0326380761
 30
0.0
 11
-19.0271670423
 21
81.1318380761
 31
0.0
  0
LINE
  5
283
330
1F
100
AcDbEntity
  8
0
  6
Continuous
 62
     7
100
AcDbLine
 10
-19.0271670423
 20
81.1318380761
 30
0.0
 11
-19.8279670423
 21
81.1318380761
 31
0.0
  0
LINE
  5
284
330
1F
100
AcDbEntity
  8
0
  6
Continuous
 62
     7
100
AcDbLine
 10
-19.8279670423
 20
81.1318380761
 30
0.0
 11
-19.8279670423
 21
82.1323380761
 31
0.0
  0
LINE
  5
285
330
1F
100
AcDbEntity
  8
0
  6
Continuous
 62
     7
100
AcDbLine
 10
-19.8279670423
 20
82.1323380761
 30
0.0
 11
-33.8272670423
 21
82.1323380761
 31
0.0
  0
LINE
  5
286
330
1F
100
AcDbEntity
  8
0
  6
Continuous
 62
     7
100
AcDbLine
 10
-14.7772670423
 20
82.1323380761
 30
0.0
 11
-14.7772670423
 21
81.1318380761
 31
0.0
  0
LINE
  5
287
330
1F
100
AcDbEntity
  8
0
  6
Continuous
 62
     7
100
AcDbLine
 10
-14.7772670423
 20
81.1318380761
 30
0.0
 11
-15.5780670423
 21
81.1318380761
 31
0.0
  0
LINE
  5
288
330
1F
100
AcDbEntity
  8
0
  6
Continuous
 62
     7
100
AcDbLine
 10
-15.5780670423
 20
81.1318380761
 30
0.0
 11
-15.5780670423
 21
78.0326380761
 31
0.0
  0
LINE
  5
289
330
1F
100
AcDbEntity
  8
0
  6
Continuous
 62
     7
100
AcDbLine
 10
-15.5780670423
 20
78.0326380761
 30
0.0
 11
-14.7772670423
 21
78.0326380761
 31
0.0
  0
LINE
  5
28A
330
1F
100
AcDbEntity
  8
0
  6
Continuous
 62
     7
100
AcDbLine
 10
-14.7772670423
 20
78.0326380761
 30
0.0
 11
-14.7772670423
 21
72.2326380761
 31
0.0
  0
LINE
  5
28B
330
1F
100
AcDbEntity
  8
0
  6
Continuous
 62
     7
100
AcDbLine
 10
-14.7772670423
 20
72.2326380761
 30
0.0
 11
-15.5780670423
 21
72.2326380761
 31
0.0
  0
LINE
  5
28C
330
1F
100
AcDbEntity
  8
0
  6
Continuous
 62
     7
100
AcDbLine
 10
-15.5780670423
 20
72.2326380761
 30
0.0
 11
-15.5780670423
 21
69.1320380761
 31
0.0
  0
LINE
  5
28D
330
1F
100
AcDbEntity
  8
0
  6
Continuous
 62
     7
100
AcDbLine
 10
-15.5780670423
 20
69.1320380761
 30
0.0
 11
-14.7772670423
 21
69.1320380761
 31
0.0
  0
LINE
  5
28E
330
1F
100
AcDbEntity
  8
0
  6
Continuous
 62
     7
100
AcDbLine
 10
-14.7772670423
 20
69.1320380761
 30
0.0
 11
-14.7772670423
 21
68.1330380761
 31
0.0
  0
LINE
  5
28F
330
1F
100
AcDbEntity
  8
0
  6
Continuous
 62
     7
100
AcDbLine
 10
-14.7772670423
 20
68.1330380761
 30
0.0
 11
-0.7779670423
 21
68.1330380761
 31
0.0
  0
LINE
  5
290
330
1F
100
AcDbEntity
  8
0
  6
Continuous
 62
     7
100
AcDbLine
 10
-0.7779670423
 20
68.1330380761
 30
0.0
 11
-0.7779670423
 21
69.1320380761
 31
0.0
  0
LINE
  5
291
330
1F
100
AcDbEntity
  8
0
  6
Continuous
 62
     7
100
AcDbLine
 10
-0.7779670423
 20
69.1320380761
 30
0.0
 11
0.0214329577
 21
69.1320380761
 31
0.0
  0
LINE
  5
292
330
1F
100
AcDbEntity
  8
0
  6
Continuous
 62
     7
100
AcDbLine
 10
0.0214329577
 20
69.1320380761
 30
0.0
 11
0.0214329577
 21
72.2326380761
 31
0.0
  0
LINE
  5
293
330
1F
100
AcDbEntity
  8
0
  6
Continuous
 62
     7
100
AcDbLine
 10
0.0214329577
 20
72.2326380761
 30
0.0
 11
-0.7779670423
 21
72.2326380761
 31
0.0
  0
LINE
  5
294
330
1F
100
AcDbEntity
  8
0
  6
Continuous
 62
     7
100
AcDbLine
 10
-0.7779670423
 20
72.2326380761
 30
0.0
 11
-0.7779670423
 21
78.0326380761
 31
0.0
  0
LINE
  5
295
330
1F
100
AcDbEntity
  8
0
  6
Continuous
 62
     7
100
AcDbLine
 10
-0.7779670423
 20
78.0326380761
 30
0.0
 11
0.0214329577
 21
78.0326380761
 31
0.0
  0
LINE
  5
296
330
1F
100
AcDbEntity
  8
0
  6
Continuous
 62
     7
100
AcDbLine
 10
0.0214329577
 20
78.0326380761
 30
0.0
 11
0.0214329577
 21
81.1318380761
 31
0.0
  0
LINE
  5
297
330
1F
100
AcDbEntity
  8
0
  6
Continuous
 62
     7
100
AcDbLine
 10
0.0214329577
 20
81.1318380761
 30
0.0
 11
-0.7779670423
 21
81.1318380761
 31
0.0
  0
LINE
  5
298
330
1F
100
AcDbEntity
  8
0
  6
Continuous
 62
     7
100
AcDbLine
 10
-0.7779670423
 20
81.1318380761
 30
0.0
 11
-0.7779670423
 21
82.1323380761
 31
0.0
  0
LINE
  5
299
330
1F
100
AcDbEntity
  8
0
  6
Continuous
 62
     7
100
AcDbLine
 10
-0.7779670423
 20
82.1323380761
 30
0.0
 11
-14.7772670423
 21
82.1323380761
 31
0.0
  0
LINE
  5
29A
330
1F
100
AcDbEntity
  8
0
  6
Continuous
 62
     7
100
AcDbLine
 10
9.0350329577
 20
82.1323380761
 30
0.0
 11
9.0350329577
 21
81.1318380761
 31
0.0
  0
LINE
  5
29B
330
1F
100
AcDbEntity
  8
0
  6
Continuous
 62
     7
100
AcDbLine
 10
9.0350329577
 20
81.1318380761
 30
0.0
 11
8.2340329577
 21
81.1318380761
 31
0.0
  0
LINE
  5
29C
330
1F
100
AcDbEntity
  8
0
  6
Continuous
 62
     7
100
AcDbLine
 10
8.2340329577
 20
81.1318380761
 30
0.0
 11
8.2340329577
 21
78.0326380761
 31
0.0
  0
LINE
  5
29D
330
1F
100
AcDbEntity
  8
0
  6
Continuous
 62
     7
100
AcDbLine
 10
8.2340329577
 20
78.0326380761
 30
0.0
 11
9.0350329577
 21
78.0326380761
 31
0.0
  0
LINE
  5
29E
330
1F
100
AcDbEntity
  8
0
  6
Continuous
 62
     7
100
AcDbLine
 10
9.0350329577
 20
78.0326380761
 30
0.0
 11
9.0350329577
 21
72.2326380761
 31
0.0
  0
LINE
  5
29F
330
1F
100
AcDbEntity
  8
0
  6
Continuous
 62
     7
100
AcDbLine
 10
9.0350329577
 20
72.2326380761
 30
0.0
 11
8.2340329577
 21
72.2326380761
 31
0.0
  0
LINE
  5
2A0
330
1F
100
AcDbEntity
  8
0
  6
Continuous
 62
     7
100
AcDbLine
 10
8.2340329577
 20
72.2326380761
 30
0.0
 11
8.2340329577
 21
69.1320380761
 31
0.0
  0
LINE
  5
2A1
330
1F
100
AcDbEntity
  8
0
  6
Continuous
 62
     7
100
AcDbLine
 10
8.2340329577
 20
69.1320380761
 30
0.0
 11
9.0350329577
 21
69.1320380761
 31
0.0
  0
LINE
  5
2A2
330
1F
100
AcDbEntity
  8
0
  6
Continuous
 62
     7
100
AcDbLine
 10
9.0350329577
 20
69.1320380761
 30
0.0
 11
9.0350329577
 21
68.1330380761
 31
0.0
  0
LINE
  5
2A3
330
1F
100
AcDbEntity
  8
0
  6
Continuous
 62
     7
100
AcDbLine
 10
9.0350329577
 20
68.1330380761
 30
0.0
 11
23.0350329577
 21
68.1330380761
 31
0.0
  0
LINE
  5
2A4
330
1F
100
AcDbEntity
  8
0
  6
Continuous
 62
     7
100
AcDbLine
 10
23.0350329577
 20
68.1330380761
 30
0.0
 11
23.0350329577
 21
69.1320380761
 31
0.0
  0
LINE
  5
2A5
330
1F
100
AcDbEntity
  8
0
  6
Continuous
 62
     7
100
AcDbLine
 10
23.0350329577
 20
69.1320380761
 30
0.0
 11
23.8340329577
 21
69.1320380761
 31
0.0
  0
LINE
  5
2A6
330
1F
100
AcDbEntity
  8
0
  6
Continuous
 62
     7
100
AcDbLine
 10
23.8340329577
 20
69.1320380761
 30
0.0
 11
23.8340329577
 21
72.2326380761
 31
0.0
  0
LINE
  5
2A7
330
1F
100
AcDbEntity
  8
0
  6
Continuous
 62
     7
100
AcDbLine
 10
23.8340329577
 20
72.2326380761
 30
0.0
 11
23.0350329577
 21
72.2326380761
 31
0.0
  0
LINE
  5
2A8
330
1F
100
AcDbEntity
  8
0
  6
Continuous
 62
     7
100
AcDbLine
 10
23.0350329577
 20
72.2326380761
 30
0.0
 11
23.0350329577
 21
78.0326380761
 31
0.0
  0
LINE
  5
2A9
330
1F
100
AcDbEntity
  8
0
  6
Continuous
 62
     7
100
AcDbLine
 10
23.0350329577
 20
78.0326380761
 30
0.0
 11
23.8340329577
 21
78.0326380761
 31
0.0
  0
LINE
  5
2AA
330
1F
100
AcDbEntity
  8
0
  6
Continuous
 62
     7
100
AcDbLine
 10
23.8340329577
 20
78.0326380761
 30
0.0
 11
23.8340329577
 21
81.1318380761
 31
0.0
  0
LINE
  5
2AB
330
1F
100
AcDbEntity
  8
0
  6
Continuous
 62
     7
100
AcDbLine
 10
23.8340329577
 20
81.1318380761
 30
0.0
 11
23.0350329577
 21
81.1318380761
 31
0.0
  0
LINE
  5
2AC
330
1F
100
AcDbEntity
  8
0
  6
Continuous
 62
     7
100
AcDbLine
 10
23.0350329577
 20
81.1318380761
 30
0.0
 11
23.0350329577
 21
82.1323380761
 31
0.0
  0
LINE
  5
2AD
330
1F
100
AcDbEntity
  8
0
  6
Continuous
 62
     7
100
AcDbLine
 10
23.0350329577
 20
82.1323380761
 30
0.0
 11
9.0350329577
 21
82.1323380761
 31
0.0
  0
LINE
  5
2AE
330
1F
100
AcDbEntity
  8
0
  6
Continuous
 62
     7
100
AcDbLine
 10
78.9543543541
 20
28.161264684
 30
0.0
 11
78.5721503423
 21
27.2366456579
 31
0.0
  0
LINE
  5
2AF
330
1F
100
AcDbEntity
  8
0
  6
Continuous
 62
     7
100
AcDbLine
 10
78.5721503423
 20
27.2366456579
 30
0.0
 11
77.8319006273
 21
27.5426380752
 31
0.0
  0
LINE
  5
2B0
330
1F
100
AcDbEntity
  8
0
  6
Continuous
 62
     7
100
AcDbLine
 10
77.8319006273
 20
27.5426380752
 30
0.0
 11
76.6479659211
 21
24.6784908633
 31
0.0
  0
LINE
  5
2B1
330
1F
100
AcDbEntity
  8
0
  6
Continuous
 62
     7
100
AcDbLine
 10
76.6479659211
 20
24.6784908633
 30
0.0
 11
77.3882156361
 21
24.372498446
 31
0.0
  0
LINE
  5
2B2
330
1F
100
AcDbEntity
  8
0
  6
Continuous
 62
     7
100
AcDbLine
 10
77.3882156361
 20
24.372498446
 30
0.0
 11
75.1725402051
 21
19.0123881501
 31
0.0
  0
LINE
  5
2B3
330
1F
100
AcDbEntity
  8
0
  6
Continuous
 62
     7
100
AcDbLine
 10
75.1725402051
 20
19.0123881501
 30
0.0
 11
74.4322904901
 21
19.3183805674
 31
0.0
  0
LINE
  5
2B4
330
1F
100
AcDbEntity
  8
0
  6
Continuous
 62
     7
100
AcDbLine
 10
74.4322904901
 20
19.3183805674
 30
0.0
 11
73.2478209657
 21
16.4529395357
 31
0.0
  0
LINE
  5
2B5
330
1F
100
AcDbEntity
  8
0
  6
Continuous
 62
     7
100
AcDbLine
 10
73.2478209657
 20
16.4529395357
 30
0.0
 11
73.9880706807
 21
16.1469471185
 31
0.0
  0
LINE
  5
2B6
330
1F
100
AcDbEntity
  8
0
  6
Continuous
 62
     7
100
AcDbLine
 10
73.9880706807
 20
16.1469471185
 30
0.0
 11
73.6064396884
 21
15.2237143278
 31
0.0
  0
LINE
  5
2B7
330
1F
100
AcDbEntity
  8
0
  6
Continuous
 62
     7
100
AcDbLine
 10
73.6064396884
 20
15.2237143278
 30
0.0
 11
86.5446369544
 21
9.875532253
 31
0.0
  0
LINE
  5
2B8
330
1F
100
AcDbEntity
  8
0
  6
Continuous
 62
     7
100
AcDbLine
 10
86.5446369544
 20
9.875532253
 30
0.0
 11
86.9262679467
 21
10.7987650436
 31
0.0
  0
LINE
  5
2B9
330
1F
100
AcDbEntity
  8
0
  6
Continuous
 62
     7
100
AcDbLine
 10
86.9262679467
 20
10.7987650436
 30
0.0
 11
87.6646693478
 21
10.4935366524
 31
0.0
  0
LINE
  5
2BA
330
1F
100
AcDbEntity
  8
0
  6
Continuous
 62
     7
100
AcDbLine
 10
87.6646693478
 20
10.4935366524
 30
0.0
 11
88.8491388722
 21
13.358977684
 31
0.0
  0
LINE
  5
2BB
330
1F
100
AcDbEntity
  8
0
  6
Continuous
 62
     7
100
AcDbLine
 10
88.8491388722
 20
13.358977684
 30
0.0
 11
88.1107374711
 21
13.6642060753
 31
0.0
  0
LINE
  5
2BC
330
1F
100
AcDbEntity
  8
0
  6
Continuous
 62
     7
100
AcDbLine
 10
88.1107374711
 20
13.6642060753
 30
0.0
 11
90.3264129021
 21
19.0243163712
 31
0.0
  0
LINE
  5
2BD
330
1F
100
AcDbEntity
  8
0
  6
Continuous
 62
     7
100
AcDbLine
 10
90.3264129021
 20
19.0243163712
 30
0.0
 11
91.0648143032
 21
18.7190879799
 31
0.0
  0
LINE
  5
2BE
330
1F
100
AcDbEntity
  8
0
  6
Continuous
 62
     7
100
AcDbLine
 10
91.0648143032
 20
18.7190879799
 30
0.0
 11
92.2487490094
 21
21.5832351918
 31
0.0
  0
LINE
  5
2BF
330
1F
100
AcDbEntity
  8
0
  6
Continuous
 62
     7
100
AcDbLine
 10
92.2487490094
 20
21.5832351918
 30
0.0
 11
91.5103476083
 21
21.8884635831
 31
0.0
  0
LINE
  5
2C0
330
1F
100
AcDbEntity
  8
0
  6
Continuous
 62
     7
100
AcDbLine
 10
91.5103476083
 20
21.8884635831
 30
0.0
 11
91.8925516201
 21
22.8130826092
 31
0.0
  0
LINE
  5
2C1
330
1F
100
AcDbEntity
  8
0
  6
Continuous
 62
     7
100
AcDbLine
 10
91.8925516201
 20
22.8130826092
 30
0.0
 11
78.9543543541
 21
28.161264684
 31
0.0
  0
LINE
  5
2C2
330
1F
100
AcDbEntity
  8
0
  6
Continuous
 62
     7
100
AcDbLine
 10
71.3735582864
 20
10.1951429272
 30
0.0
 11
70.9913542746
 21
9.2705239011
 31
0.0
  0
LINE
  5
2C3
330
1F
100
AcDbEntity
  8
0
  6
Continuous
 62
     7
100
AcDbLine
 10
70.9913542746
 20
9.2705239011
 30
0.0
 11
70.2511045596
 21
9.5765163184
 31
0.0
  0
LINE
  5
2C4
330
1F
100
AcDbEntity
  8
0
  6
Continuous
 62
     7
100
AcDbLine
 10
70.2511045596
 20
9.5765163184
 30
0.0
 11
69.0671698534
 21
6.7123691065
 31
0.0
  0
LINE
  5
2C5
330
1F
100
AcDbEntity
  8
0
  6
Continuous
 62
     7
100
AcDbLine
 10
69.0671698534
 20
6.7123691065
 30
0.0
 11
69.8074195684
 21
6.4063766892
 31
0.0
  0
LINE
  5
2C6
330
1F
100
AcDbEntity
  8
0
  6
Continuous
 62
     7
100
AcDbLine
 10
69.8074195684
 20
6.4063766892
 30
0.0
 11
67.5917441374
 21
1.0462663933
 31
0.0
  0
LINE
  5
2C7
330
1F
100
AcDbEntity
  8
0
  6
Continuous
 62
     7
100
AcDbLine
 10
67.5917441374
 20
1.0462663933
 30
0.0
 11
66.8514944224
 21
1.3522588106
 31
0.0
  0
LINE
  5
2C8
330
1F
100
AcDbEntity
  8
0
  6
Continuous
 62
     7
100
AcDbLine
 10
66.8514944224
 20
1.3522588106
 30
0.0
 11
65.667024898
 21
-1.5131822211
 31
0.0
  0
LINE
  5
2C9
330
1F
100
AcDbEntity
  8
0
  6
Continuous
 62
     7
100
AcDbLine
 10
65.667024898
 20
-1.5131822211
 30
0.0
 11
66.407274613
 21
-1.8191746383
 31
0.0
  0
LINE
  5
2CA
330
1F
100
AcDbEntity
  8
0
  6
Continuous
 62
     7
100
AcDbLine
 10
66.407274613
 20
-1.8191746383
 30
0.0
 11
66.0256436207
 21
-2.742407429
 31
0.0
  0
LINE
  5
2CB
330
1F
100
AcDbEntity
  8
0
  6
Continuous
 62
     7
100
AcDbLine
 10
66.0256436207
 20
-2.742407429
 30
0.0
 11
78.9638408867
 21
-8.0905895038
 31
0.0
  0
LINE
  5
2CC
330
1F
100
AcDbEntity
  8
0
  6
Continuous
 62
     7
100
AcDbLine
 10
78.9638408867
 20
-8.0905895038
 30
0.0
 11
79.345471879
 21
-7.1673567132
 31
0.0
  0
LINE
  5
2CD
330
1F
100
AcDbEntity
  8
0
  6
Continuous
 62
     7
100
AcDbLine
 10
79.345471879
 20
-7.1673567132
 30
0.0
 11
80.0838732802
 21
-7.4725851044
 31
0.0
  0
LINE
  5
2CE
330
1F
100
AcDbEntity
  8
0
  6
Continuous
 62
     7
100
AcDbLine
 10
80.0838732802
 20
-7.4725851044
 30
0.0
 11
81.2683428045
 21
-4.6071440728
 31
0.0
  0
LINE
  5
2CF
330
1F
100
AcDbEntity
  8
0
  6
Continuous
 62
     7
100
AcDbLine
 10
81.2683428045
 20
-4.6071440728
 30
0.0
 11
80.5299414034
 21
-4.3019156815
 31
0.0
  0
LINE
  5
2D0
330
1F
100
AcDbEntity
  8
0
  6
Continuous
 62
     7
100
AcDbLine
 10
80.5299414034
 20
-4.3019156815
 30
0.0
 11
82.7456168344
 21
1.0581946144
 31
0.0
  0
LINE
  5
2D1
330
1F
100
AcDbEntity
  8
0
  6
Continuous
 62
     7
100
AcDbLine
 10
82.7456168344
 20
1.0581946144
 30
0.0
 11
83.4840182355
 21
0.7529662231
 31
0.0
  0
LINE
  5
2D2
330
1F
100
AcDbEntity
  8
0
  6
Continuous
 62
     7
100
AcDbLine
 10
83.4840182355
 20
0.7529662231
 30
0.0
 11
84.6679529417
 21
3.617113435
 31
0.0
  0
LINE
  5
2D3
330
1F
100
AcDbEntity
  8
0
  6
Continuous
 62
     7
100
AcDbLine
 10
84.6679529417
 20
3.617113435
 30
0.0
 11
83.9295515406
 21
3.9223418263
 31
0.0
  0
LINE
  5
2D4
330
1F
100
AcDbEntity
  8
0
  6
Continuous
 62
     7
100
AcDbLine
 10
83.9295515406
 20
3.9223418263
 30
0.0
 11
84.3117555524
 21
4.8469608524
 31
0.0
  0
LINE
  5
2D5
330
1F
100
AcDbEntity
  8
0
  6
Continuous
 62
     7
100
AcDbLine
 10
84.3117555524
 20
4.8469608524
 30
0.0
 11
71.3735582864
 21
10.1951429272
 31
0.0
  0
LINE
  5
2D6
330
1F
100
AcDbEntity
  8
0
  6
Continuous
 62
     7
100
AcDbLine
 10
63.7927622187
 20
-7.7709788296
 30
0.0
 11
63.4105582069
 21
-8.6955978557
 31
0.0
  0
LINE
  5
2D7
330
1F
100
AcDbEntity
  8
0
  6
Continuous
 62
     7
100
AcDbLine
 10
63.4105582069
 20
-8.6955978557
 30
0.0
 11
62.6703084919
 21
-8.3896054384
 31
0.0
  0
LINE
  5
2D8
330
1F
100
AcDbEntity
  8
0
  6
Continuous
 62
     7
100
AcDbLine
 10
62.6703084919
 20
-8.3896054384
 30
0.0
 11
61.4863737857
 21
-11.2537526503
 31
0.0
  0
LINE
  5
2D9
330
1F
100
AcDbEntity
  8
0
  6
Continuous
 62
     7
100
AcDbLine
 10
61.4863737857
 20
-11.2537526503
 30
0.0
 11
62.2266235007
 21
-11.5597450676
 31
0.0
  0
LINE
  5
2DA
330
1F
100
AcDbEntity
  8
0
  6
Continuous
 62
     7
100
AcDbLine
 10
62.2266235007
 20
-11.5597450676
 30
0.0
 11
60.0109480697
 21
-16.9198553635
 31
0.0
  0
LINE
  5
2DB
330
1F
100
AcDbEntity
  8
0
  6
Continuous
 62
     7
100
AcDbLine
 10
60.0109480697
 20
-16.9198553635
 30
0.0
 11
59.2706983547
 21
-16.6138629462
 31
0.0
  0
LINE
  5
2DC
330
1F
100
AcDbEntity
  8
0
  6
Continuous
 62
     7
100
AcDbLine
 10
59.2706983547
 20
-16.6138629462
 30
0.0
 11
58.0862288303
 21
-19.4793039779
 31
0.0
  0
LINE
  5
2DD
330
1F
100
AcDbEntity
  8
0
  6
Continuous
 62
     7
100
AcDbLine
 10
58.0862288303
 20
-19.4793039779
 30
0.0
 11
58.8264785453
 21
-19.7852963951
 31
0.0
  0
LINE
  5
2DE
330
1F
100
AcDbEntity
  8
0
  6
Continuous
 62
     7
100
AcDbLine
 10
58.8264785453
 20
-19.7852963951
 30
0.0
 11
58.444847553
 21
-20.7085291858
 31
0.0
  0
LINE
  5
2DF
330
1F
100
AcDbEntity
  8
0
  6
Continuous
 62
     7
100
AcDbLine
 10
58.444847553
 20
-20.7085291858
 30
0.0
 11
71.383044819
 21
-26.0567112606
 31
0.0
  0
LINE
  5
2E0
330
1F
100
AcDbEntity
  8
0
  6
Continuous
 62
     7
100
AcDbLine
 10
71.383044819
 20
-26.0567112606
 30
0.0
 11
71.7646758114
 21
-25.13347847
 31
0.0
  0
LINE
  5
2E1
330
1F
100
AcDbEntity
  8
0
  6
Continuous
 62
     7
100
AcDbLine
 10
71.7646758114
 20
-25.13347847
 30
0.0
 11
72.5030772125
 21
-25.4387068612
 31
0.0
  0
LINE
  5
2E2
330
1F
100
AcDbEntity
  8
0
  6
Continuous
 62
     7
100
AcDbLine
 10
72.5030772125
 20
-25.4387068612
 30
0.0
 11
73.6875467368
 21
-22.5732658296
 31
0.0
  0
LINE
  5
2E3
330
1F
100
AcDbEntity
  8
0
  6
Continuous
 62
     7
100
AcDbLine
 10
73.6875467368
 20
-22.5732658296
 30
0.0
 11
72.9491453357
 21
-22.2680374383
 31
0.0
  0
LINE
  5
2E4
330
1F
100
AcDbEntity
  8
0
  6
Continuous
 62
     7
100
AcDbLine
 10
72.9491453357
 20
-22.2680374383
 30
0.0
 11
75.1648207667
 21
-16.9079271424
 31
0.0
  0
LINE
  5
2E5
330
1F
100
AcDbEntity
  8
0
  6
Continuous
 62
     7
100
AcDbLine
 10
75.1648207667
 20
-16.9079271424
 30
0.0
 11
75.9032221679
 21
-17.2131555337
 31
0.0
  0
LINE
  5
2E6
330
1F
100
AcDbEntity
  8
0
  6
Continuous
 62
     7
100
AcDbLine
 10
75.9032221679
 20
-17.2131555337
 30
0.0
 11
77.087156874
 21
-14.3490083218
 31
0.0
  0
LINE
  5
2E7
330
1F
100
AcDbEntity
  8
0
  6
Continuous
 62
     7
100
AcDbLine
 10
77.087156874
 20
-14.3490083218
 30
0.0
 11
76.3487554729
 21
-14.0437799305
 31
0.0
  0
LINE
  5
2E8
330
1F
100
AcDbEntity
  8
0
  6
Continuous
 62
     7
100
AcDbLine
 10
76.3487554729
 20
-14.0437799305
 30
0.0
 11
76.7309594848
 21
-13.1191609044
 31
0.0
  0
LINE
  5
2E9
330
1F
100
AcDbEntity
  8
0
  6
Continuous
 62
     7
100
AcDbLine
 10
76.7309594848
 20
-13.1191609044
 30
0.0
 11
63.7927622187
 21
-7.7709788296
 31
0.0
  0
LINE
  5
2EA
330
1F
100
AcDbEntity
  8
0
  6
Continuous
 62
     7
100
AcDbLine
 10
100.5920533358
 20
22.778581746
 30
0.0
 11
95.9961794204
 21
37.8833040993
 31
0.0
  0
LINE
  5
2EB
330
1F
100
AcDbEntity
  8
0
  6
Continuous
 62
     7
100
AcDbLine
 10
53.5621247258
 20
55.7881233319
 30
0.0
 11
95.9961794204
 21
37.8833040993
 31
0.0
  0
LINE
  5
2EC
330
1F
100
AcDbEntity
  8
0
  6
Continuous
 62
     7
100
AcDbLine
 10
43.314964874
 20
55.7880805158
 30
0.0
 11
53.5621247258
 21
55.7881233319
 31
0.0
  0
LINE
  5
2ED
330
1F
100
AcDbEntity
  8
0
  6
Continuous
 62
     7
100
AcDbLine
 10
43.314964874
 20
55.7880805158
 30
0.0
 11
43.3148197854
 21
90.5121090886
 31
0.0
  0
LINE
  5
2EE
330
1F
100
AcDbEntity
  8
0
  6
Continuous
 62
     7
100
AcDbLine
 10
-99.4538481727
 20
90.5121090886
 30
0.0
 11
43.3148197854
 21
90.5121090886
 31
0.0
  0
LINE
  5
2EF
330
1F
100
AcDbEntity
  8
0
  6
Continuous
 62
     7
100
AcDbLine
 10
-99.4534048283
 20
-15.5933671908
 30
0.0
 11
-99.4538481727
 21
90.5121090886
 31
0.0
  0
LINE
  5
2F0
330
1F
100
AcDbEntity
  8
0
  6
Continuous
 62
     7
100
AcDbLine
 10
5.4202823269
 20
-15.5929289932
 30
0.0
 11
-99.4534048283
 21
-15.5933671908
 31
0.0
  0
LINE
  5
2F1
330
1F
100
AcDbEntity
  8
0
  6
Continuous
 62
     7
100
AcDbLine
 10
5.4202823269
 20
-15.5929289932
 30
0.0
 11
59.1152517286
 21
-38.2492301117
 31
0.0
  0
LINE
  5
2F2
330
1F
100
AcDbEntity
  8
0
  6
Continuous
 62
     7
100
AcDbLine
 10
59.1152517286
 20
-38.2492301117
 30
0.0
 11
77.2529949398
 21
-32.5345084083
 31
0.0
  0
LINE
  5
2F3
330
1F
100
AcDbEntity
  8
0
  6
Continuous
 62
     7
100
AcDbLine
 10
100.5920533358
 20
22.778581746
 30
0.0
 11
77.2529949398
 21
-32.5345084083
 31
0.0
  0
ENDSEC
  0
SECTION
  2
OBJECTS
  0
DICTIONARY
  5
C
330
0
100
AcDbDictionary
281
     1
  3
ACAD_GROUP
350
D
  3
ACAD_LAYOUT
350
1A
  3
ACAD_MLINESTYLE
350
17
  3
ACAD_PLOTSETTINGS
350
19
  3
ACAD_PLOTSTYLENAME
350
E
  3
ACAD_SCALELIST
350
47
  3
DWGPROPS
350
2F4
  0
DICTIONARY
  5
D
102
{ACAD_REACTORS
330
C
102
}
330
C
100
AcDbDictionary
281
     1
  0
DICTIONARY
  5
1A
102
{ACAD_REACTORS
330
C
102
}
330
C
100
AcDbDictionary
281
     1
  3
Layout1
350
1E
  3
Layout2
350
26
  3
Model
350
22
  0
DICTIONARY
  5
17
102
{ACAD_REACTORS
330
C
102
}
330
C
100
AcDbDictionary
281
     1
  3
Standard
350
18
  0
DICTIONARY
  5
19
102
{ACAD_REACTORS
330
C
102
}
330
C
100
AcDbDictionary
281
     1
  0
ACDBDICTIONARYWDFLT
  5
E
102
{ACAD_REACTORS
330
C
102
}
330
C
100
AcDbDictionary
281
     1
  3
Normal
350
F
100
AcDbDictionaryWithDefault
340
F
  0
DICTIONARY
  5
47
102
{ACAD_REACTORS
330
C
102
}
330
C
100
AcDbDictionary
281
     1
  3
A0
350
48
  3
A1
350
49
  3
A2
350
4A
  3
A3
350
4B
  3
A4
350
4C
  3
A5
350
4D
  3
A6
350
4E
  3
A7
350
4F
  3
A8
350
50
  3
A9
350
51
  3
B0
350
52
  3
B1
350
53
  3
B2
350
54
  3
B3
350
55
  3
B4
350
56
  3
B5
350
57
  3
B6
350
58
  0
XRECORD
  5
2F4
102
{ACAD_REACTORS
330
C
102
}
330
C
100
AcDbXrecord
280
     1
  1
DWGPROPS COOKIE
  2

  3

  4

  6

  7

  8
Admin
  9

300
=
301
=
302
=
303
=
304
=
305
=
306
=
307
=
308
=
309
=
 40
0.0
 41
2460806.168998507
 42
2460806.169026979
  1

 90
        0
  0
LAYOUT
  5
1E
102
{ACAD_REACTORS
330
1A
102
}
330
1A
100
AcDbPlotSettings
  1

  2
none_device
  4

  6

 40
0.0
 41
0.0
 42
0.0
 43
0.0
 44
0.0
 45
0.0
 46
0.0
 47
0.0
 48
0.0
 49
0.0
140
0.0
141
0.0
142
1.0
143
1.0
 70
   688
 72
     1
 73
     0
 74
     5
  7

 75
    16
147
1.0
148
0.0
149
0.0
100
AcDbLayout
  1
Layout1
 70
     1
 71
     1
 10
0.0
 20
0.0
 11
420.0
 21
297.0
 12
0.0
 22
0.0
 32
0.0
 14
1.0000000000E+20
 24
1.0000000000E+20
 34
1.0000000000E+20
 15
-1.0000000000E+20
 25
-1.0000000000E+20
 35
-1.0000000000E+20
146
0.0
 13
0.0
 23
0.0
 33
0.0
 16
1.0
 26
0.0
 36
0.0
 17
0.0
 27
1.0
 37
0.0
 76
     0
330
1B
  0
LAYOUT
  5
26
102
{ACAD_REACTORS
330
1A
102
}
330
1A
100
AcDbPlotSettings
  1

  2
none_device
  4

  6

 40
0.0
 41
0.0
 42
0.0
 43
0.0
 44
0.0
 45
0.0
 46
0.0
 47
0.0
 48
0.0
 49
0.0
140
0.0
141
0.0
142
1.0
143
1.0
 70
   688
 72
     1
 73
     0
 74
     5
  7

 75
    16
147
1.0
148
0.0
149
0.0
100
AcDbLayout
  1
Layout2
 70
     1
 71
     2
 10
0.0
 20
0.0
 11
0.0
 21
0.0
 12
0.0
 22
0.0
 32
0.0
 14
0.0
 24
0.0
 34
0.0
 15
0.0
 25
0.0
 35
0.0
146
0.0
 13
0.0
 23
0.0
 33
0.0
 16
1.0
 26
0.0
 36
0.0
 17
0.0
 27
1.0
 37
0.0
 76
     0
330
23
  0
LAYOUT
  5
22
102
{ACAD_REACTORS
330
1A
102
}
330
1A
100
AcDbPlotSettings
  1

  2
none_device
  4
ANSI_A_(11.00_x_8.50_Inches)
  6

 40
6.35
 41
19.05
 42
6.35000508
 43
19.05000254
 44
279.4
 45
215.9
 46
132.5630921173
 47
52.7677266033
 48
0.0
 49
0.0
140
0.0
141
0.0
142
0.0544375062
143
1.0
 70
  1696
 72
     0
 73
     0
 74
     0
  7

 75
     0
147
0.0179189148
148
-1300.4909072572
149
0.0
100
AcDbLayout
  1
Model
 70
     1
 71
     0
 10
0.0
 20
0.0
 11
420.0
 21
297.0
 12
0.0
 22
0.0
 32
0.0
 14
-99.4538481727
 24
-38.2492301117
 34
0.0
 15
100.5920533358
 25
90.5121090886
 35
0.0
146
0.0
 13
0.0
 23
0.0
 33
0.0
 16
1.0
 26
0.0
 36
0.0
 17
0.0
 27
1.0
 37
0.0
 76
     0
330
1F
331
29
  0
MLINESTYLE
  5
18
102
{ACAD_REACTORS
330
17
102
}
330
17
100
AcDbMlineStyle
  2
Standard
 70
     0
  3

 62
   256
 51
90.0
 52
90.0
 71
     2
 49
0.5
 62
   256
  6
BYLAYER
 49
-0.5
 62
   256
  6
BYLAYER
  0
ACDBPLACEHOLDER
  5
F
102
{ACAD_REACTORS
330
E
102
}
330
E
  0
SCALE
  5
48
102
{ACAD_REACTORS
330
47
102
}
330
47
100
AcDbScale
 70
     0
300
1:1
140
1.0
141
1.0
290
     1
  0
SCALE
  5
49
102
{ACAD_REACTORS
330
47
102
}
330
47
100
AcDbScale
 70
     0
300
1:2
140
1.0
141
2.0
290
     0
  0
SCALE
  5
4A
102
{ACAD_REACTORS
330
47
102
}
330
47
100
AcDbScale
 70
     0
300
1:4
140
1.0
141
4.0
290
     0
  0
SCALE
  5
4B
102
{ACAD_REACTORS
330
47
102
}
330
47
100
AcDbScale
 70
     0
300
1:5
140
1.0
141
5.0
290
     0
  0
SCALE
  5
4C
102
{ACAD_REACTORS
330
47
102
}
330
47
100
AcDbScale
 70
     0
300
1:8
140
1.0
141
8.0
290
     0
  0
SCALE
  5
4D
102
{ACAD_REACTORS
330
47
102
}
330
47
100
AcDbScale
 70
     0
300
1:10
140
1.0
141
10.0
290
     0
  0
SCALE
  5
4E
102
{ACAD_REACTORS
330
47
102
}
330
47
100
AcDbScale
 70
     0
300
1:16
140
1.0
141
16.0
290
     0
  0
SCALE
  5
4F
102
{ACAD_REACTORS
330
47
102
}
330
47
100
AcDbScale
 70
     0
300
1:20
140
1.0
141
20.0
290
     0
  0
SCALE
  5
50
102
{ACAD_REACTORS
330
47
102
}
330
47
100
AcDbScale
 70
     0
300
1:30
140
1.0
141
30.0
290
     0
  0
SCALE
  5
51
102
{ACAD_REACTORS
330
47
102
}
330
47
100
AcDbScale
 70
     0
300
1:40
140
1.0
141
40.0
290
     0
  0
SCALE
  5
52
102
{ACAD_REACTORS
330
47
102
}
330
47
100
AcDbScale
 70
     0
300
1:50
140
1.0
141
50.0
290
     0
  0
SCALE
  5
53
102
{ACAD_REACTORS
330
47
102
}
330
47
100
AcDbScale
 70
     0
300
1:100
140
1.0
141
100.0
290
     0
  0
SCALE
  5
54
102
{ACAD_REACTORS
330
47
102
}
330
47
100
AcDbScale
 70
     0
300
2:1
140
2.0
141
1.0
290
     0
  0
SCALE
  5
55
102
{ACAD_REACTORS
330
47
102
}
330
47
100
AcDbScale
 70
     0
300
4:1
140
4.0
141
1.0
290
     0
  0
SCALE
  5
56
102
{ACAD_REACTORS
330
47
102
}
330
47
100
AcDbScale
 70
     0
300
8:1
140
8.0
141
1.0
290
     0
  0
SCALE
  5
57
102
{ACAD_REACTORS
330
47
102
}
330
47
100
AcDbScale
 70
     0
300
10:1
140
10.0
141
1.0
290
     0
  0
SCALE
  5
58
102
{ACAD_REACTORS
330
47
102
}
330
47
100
AcDbScale
 70
     0
300
100:1
140
100.0
141
1.0
290
     0
  0
ENDSEC
  0
EOF
